G04 #@! TF.FileFunction,Copper,L2,Bot,Signal*
%FSLAX46Y46*%
G04 Gerber Fmt 4.6, Leading zero omitted, Abs format (unit mm)*
G04 Created by KiCad (PCBNEW 4.0.7) date Thu Oct 12 07:51:30 2017*
%MOMM*%
%LPD*%
G01*
G04 APERTURE LIST*
%ADD10C,0.100000*%
%ADD11R,1.600000X1.600000*%
%ADD12C,1.600000*%
%ADD13R,1.200000X1.200000*%
%ADD14C,1.200000*%
%ADD15R,1.700000X1.700000*%
%ADD16O,1.700000X1.700000*%
%ADD17R,2.500000X2.500000*%
%ADD18C,2.500000*%
%ADD19C,1.520000*%
%ADD20C,2.000000*%
%ADD21R,1.600000X2.400000*%
%ADD22O,1.600000X2.400000*%
%ADD23C,1.700000*%
%ADD24C,1.500000*%
%ADD25C,4.064000*%
%ADD26C,0.685800*%
%ADD27C,0.203200*%
%ADD28C,0.152400*%
%ADD29C,0.508000*%
%ADD30C,2.540000*%
%ADD31C,0.254000*%
G04 APERTURE END LIST*
D10*
D11*
X18000000Y-109500000D03*
D12*
X15500000Y-109500000D03*
D11*
X27000000Y-109500000D03*
D12*
X24500000Y-109500000D03*
D13*
X33500000Y-109000000D03*
D14*
X33500000Y-107500000D03*
D15*
X99060000Y-116840000D03*
D16*
X96520000Y-116840000D03*
X93980000Y-116840000D03*
X91440000Y-116840000D03*
X88900000Y-116840000D03*
X86360000Y-116840000D03*
X83820000Y-116840000D03*
X81280000Y-116840000D03*
X78740000Y-116840000D03*
X76200000Y-116840000D03*
X73660000Y-116840000D03*
X71120000Y-116840000D03*
X68580000Y-116840000D03*
X66040000Y-116840000D03*
X63500000Y-116840000D03*
X60960000Y-116840000D03*
X58420000Y-116840000D03*
X55880000Y-116840000D03*
X53340000Y-116840000D03*
X50800000Y-116840000D03*
D15*
X99060000Y-134620000D03*
D16*
X96520000Y-134620000D03*
X93980000Y-134620000D03*
X91440000Y-134620000D03*
X88900000Y-134620000D03*
X86360000Y-134620000D03*
X83820000Y-134620000D03*
X81280000Y-134620000D03*
X78740000Y-134620000D03*
X76200000Y-134620000D03*
X73660000Y-134620000D03*
X71120000Y-134620000D03*
X68580000Y-134620000D03*
X66040000Y-134620000D03*
X63500000Y-134620000D03*
X60960000Y-134620000D03*
X58420000Y-134620000D03*
X55880000Y-134620000D03*
X53340000Y-134620000D03*
X50800000Y-134620000D03*
D17*
X16000000Y-159000000D03*
D18*
X21000000Y-159000000D03*
D17*
X36000000Y-159000000D03*
D18*
X41000000Y-159000000D03*
D17*
X21000000Y-94500000D03*
D18*
X16000000Y-94500000D03*
D17*
X131000000Y-94500000D03*
D18*
X126000000Y-94500000D03*
D17*
X46000000Y-159000000D03*
D18*
X51000000Y-159000000D03*
D17*
X86000000Y-159000000D03*
D18*
X91000000Y-159000000D03*
D17*
X121000000Y-94500000D03*
D18*
X116000000Y-94500000D03*
D17*
X81000000Y-94500000D03*
D18*
X76000000Y-94500000D03*
D17*
X56000000Y-159000000D03*
D18*
X61000000Y-159000000D03*
D17*
X96000000Y-159000000D03*
D18*
X101000000Y-159000000D03*
D17*
X111000000Y-94500000D03*
D18*
X106000000Y-94500000D03*
D17*
X71000000Y-94500000D03*
D18*
X66000000Y-94500000D03*
D17*
X66000000Y-159000000D03*
D18*
X71000000Y-159000000D03*
D17*
X106000000Y-159000000D03*
D18*
X111000000Y-159000000D03*
D17*
X101000000Y-94500000D03*
D18*
X96000000Y-94500000D03*
D17*
X61000000Y-94500000D03*
D18*
X56000000Y-94500000D03*
D17*
X76000000Y-159000000D03*
D18*
X81000000Y-159000000D03*
D17*
X116000000Y-159000000D03*
D18*
X121000000Y-159000000D03*
D17*
X91000000Y-94500000D03*
D18*
X86000000Y-94500000D03*
D17*
X51000000Y-94500000D03*
D18*
X46000000Y-94500000D03*
D17*
X26000000Y-159000000D03*
D18*
X31000000Y-159000000D03*
X166000000Y-159000000D03*
D17*
X156000000Y-159000000D03*
D18*
X161000000Y-159000000D03*
X181000000Y-159000000D03*
D17*
X171000000Y-159000000D03*
D18*
X176000000Y-159000000D03*
X196000000Y-159000000D03*
D17*
X186000000Y-159000000D03*
D18*
X191000000Y-159000000D03*
X136000000Y-159000000D03*
D17*
X126000000Y-159000000D03*
D18*
X131000000Y-159000000D03*
X151000000Y-159000000D03*
D17*
X141000000Y-159000000D03*
D18*
X146000000Y-159000000D03*
D19*
X127000000Y-131000000D03*
D20*
X127000000Y-141160000D03*
X127000000Y-148780000D03*
X134620000Y-146240000D03*
D19*
X134620000Y-131000000D03*
X142000000Y-131000000D03*
D20*
X142000000Y-141160000D03*
X142000000Y-148780000D03*
X149620000Y-146240000D03*
D19*
X149620000Y-131000000D03*
D21*
X130000000Y-115500000D03*
D22*
X137620000Y-107880000D03*
X132540000Y-115500000D03*
X135080000Y-107880000D03*
X135080000Y-115500000D03*
X132540000Y-107880000D03*
X137620000Y-115500000D03*
X130000000Y-107880000D03*
D23*
X184200000Y-91760000D03*
X184200000Y-89220000D03*
X181660000Y-91760000D03*
X181660000Y-89220000D03*
X179120000Y-91760000D03*
X179120000Y-89220000D03*
X176580000Y-91760000D03*
X176580000Y-89220000D03*
X174040000Y-91760000D03*
X174040000Y-89220000D03*
X171500000Y-91760000D03*
X171500000Y-89220000D03*
X168960000Y-91760000D03*
X168960000Y-89220000D03*
X166420000Y-91760000D03*
X166420000Y-89220000D03*
X163880000Y-91760000D03*
X163880000Y-89220000D03*
X161340000Y-91760000D03*
X161340000Y-89220000D03*
X158800000Y-91760000D03*
X158800000Y-89220000D03*
X156260000Y-91760000D03*
X156260000Y-89220000D03*
X153720000Y-91760000D03*
X153720000Y-89220000D03*
X151180000Y-91760000D03*
X151180000Y-89220000D03*
X148640000Y-91760000D03*
X148640000Y-89220000D03*
X146100000Y-91760000D03*
X146100000Y-89220000D03*
X189280000Y-91760000D03*
X189280000Y-89220000D03*
X191820000Y-89220000D03*
X191820000Y-91760000D03*
X194360000Y-91760000D03*
X194360000Y-89220000D03*
X196900000Y-89220000D03*
X196900000Y-91760000D03*
X146100000Y-109540000D03*
X148640000Y-109540000D03*
X148640000Y-112080000D03*
X146100000Y-112080000D03*
X146100000Y-114620000D03*
X148640000Y-114620000D03*
X148640000Y-117160000D03*
X146100000Y-117160000D03*
X146100000Y-119700000D03*
X148640000Y-119700000D03*
X151180000Y-119700000D03*
X153720000Y-119700000D03*
X156260000Y-119700000D03*
X158800000Y-119700000D03*
X161340000Y-119700000D03*
X163880000Y-119700000D03*
X166420000Y-119700000D03*
X168960000Y-119700000D03*
X171500000Y-119700000D03*
X174040000Y-119700000D03*
X176580000Y-119700000D03*
X179120000Y-119700000D03*
X181660000Y-119700000D03*
X184200000Y-119700000D03*
X186740000Y-119700000D03*
X186740000Y-122240000D03*
X184200000Y-122240000D03*
X181660000Y-122240000D03*
X179120000Y-122240000D03*
X176580000Y-122240000D03*
X174040000Y-122240000D03*
X171500000Y-122240000D03*
X168960000Y-122240000D03*
X166420000Y-122240000D03*
X163880000Y-122240000D03*
X161340000Y-122240000D03*
X158800000Y-122240000D03*
X156260000Y-122240000D03*
X153720000Y-122240000D03*
X151180000Y-122240000D03*
X148640000Y-122240000D03*
X146100000Y-122240000D03*
D24*
X40000000Y-131000000D03*
X40000000Y-135880000D03*
D25*
X18500000Y-147500000D03*
X201500000Y-159000000D03*
X34500000Y-94500000D03*
X108000000Y-127500000D03*
X201500000Y-94500000D03*
D26*
X184391800Y-101623700D03*
X167399300Y-105035800D03*
X116468000Y-147420300D03*
X146517900Y-126255000D03*
X141000000Y-91750000D03*
X14000000Y-135497700D03*
X136229800Y-139257500D03*
X136671500Y-132074400D03*
X176452500Y-131497800D03*
X165118800Y-112578000D03*
X131669200Y-106452900D03*
X82299600Y-108652100D03*
X180725600Y-131963700D03*
X141253000Y-137373800D03*
X166763100Y-110248000D03*
X146480500Y-138413500D03*
X108477700Y-108904100D03*
X123222400Y-109117700D03*
X167823200Y-113541200D03*
X64938200Y-114145300D03*
X63395100Y-127852800D03*
X138780700Y-138552800D03*
X168056400Y-111163200D03*
X143955500Y-113953400D03*
X149786600Y-113833100D03*
X85900000Y-149500000D03*
X118800800Y-103500000D03*
X78799700Y-103500000D03*
X55496200Y-149500000D03*
X95900000Y-149500000D03*
X111203000Y-103458500D03*
X71199800Y-102900600D03*
X65389400Y-149500000D03*
X105599800Y-149388200D03*
X101150300Y-102981400D03*
X61194800Y-103500000D03*
X75599800Y-149388200D03*
X90831300Y-104671500D03*
X51150300Y-102981400D03*
X156815100Y-116000400D03*
X154435900Y-116286700D03*
X168298900Y-94968800D03*
X90127300Y-115712900D03*
X151455100Y-113196400D03*
X167853800Y-93138100D03*
X75055800Y-115153300D03*
X129243700Y-98240300D03*
X168317800Y-103006500D03*
X91585100Y-121394700D03*
X28816400Y-147424200D03*
X31157600Y-149747300D03*
X167943900Y-103818400D03*
X163516000Y-132902900D03*
X183045300Y-129274700D03*
X173111200Y-132664300D03*
X170330200Y-104124800D03*
X54799300Y-115384300D03*
X121072900Y-109358300D03*
X84226500Y-119231700D03*
D27*
X196900000Y-89220000D02*
X196900000Y-91760000D01*
X187036300Y-101623700D02*
X196900000Y-91760000D01*
X184391800Y-101623700D02*
X187036300Y-101623700D01*
X118199700Y-147420300D02*
X116468000Y-147420300D01*
X134620000Y-131000000D02*
X118199700Y-147420300D01*
X146517900Y-128238500D02*
X146517900Y-126255000D01*
X137381500Y-128238500D02*
X146517900Y-128238500D01*
X134620000Y-131000000D02*
X137381500Y-128238500D01*
X146858500Y-128238500D02*
X149620000Y-131000000D01*
X146517900Y-128238500D02*
X146858500Y-128238500D01*
X162452600Y-109982500D02*
X167399300Y-105035800D01*
X162452600Y-122751300D02*
X162452600Y-109982500D01*
X154203900Y-131000000D02*
X162452600Y-122751300D01*
X149620000Y-131000000D02*
X154203900Y-131000000D01*
D28*
X126000000Y-94500000D02*
X128750000Y-91750000D01*
X128750000Y-91750000D02*
X141000000Y-91750000D01*
X194360000Y-89220000D02*
X194360000Y-91760000D01*
X112479000Y-160479000D02*
X111000000Y-159000000D01*
X119521000Y-160479000D02*
X112479000Y-160479000D01*
X121000000Y-159000000D02*
X119521000Y-160479000D01*
X92479000Y-160479000D02*
X91000000Y-159000000D01*
X99521000Y-160479000D02*
X92479000Y-160479000D01*
X101000000Y-159000000D02*
X99521000Y-160479000D01*
X102479000Y-160479000D02*
X101000000Y-159000000D01*
X109521000Y-160479000D02*
X102479000Y-160479000D01*
X111000000Y-159000000D02*
X109521000Y-160479000D01*
X89521000Y-160479000D02*
X91000000Y-159000000D01*
X82479000Y-160479000D02*
X89521000Y-160479000D01*
X81000000Y-159000000D02*
X82479000Y-160479000D01*
X74521000Y-95979000D02*
X76000000Y-94500000D01*
X67479000Y-95979000D02*
X74521000Y-95979000D01*
X66000000Y-94500000D02*
X67479000Y-95979000D01*
X84521000Y-95979000D02*
X86000000Y-94500000D01*
X77479000Y-95979000D02*
X84521000Y-95979000D01*
X76000000Y-94500000D02*
X77479000Y-95979000D01*
X62479000Y-160479000D02*
X61000000Y-159000000D01*
X69521000Y-160479000D02*
X62479000Y-160479000D01*
X71000000Y-159000000D02*
X69521000Y-160479000D01*
X52479000Y-160479000D02*
X51000000Y-159000000D01*
X59521000Y-160479000D02*
X52479000Y-160479000D01*
X61000000Y-159000000D02*
X59521000Y-160479000D01*
X49521000Y-160479000D02*
X51000000Y-159000000D01*
X42479000Y-160479000D02*
X49521000Y-160479000D01*
X41000000Y-159000000D02*
X42479000Y-160479000D01*
X14750000Y-135497700D02*
X14000000Y-135497700D01*
X14750000Y-132972200D02*
X14750000Y-135497700D01*
X15500000Y-132222200D02*
X14750000Y-132972200D01*
X15500000Y-109500000D02*
X15500000Y-132222200D01*
X14750000Y-152750000D02*
X21000000Y-159000000D01*
X14750000Y-135497700D02*
X14750000Y-152750000D01*
X26500000Y-107500000D02*
X33500000Y-107500000D01*
X24500000Y-109500000D02*
X26500000Y-107500000D01*
X46000000Y-95000000D02*
X46000000Y-94500000D01*
X33500000Y-107500000D02*
X46000000Y-95000000D01*
X136229900Y-139257500D02*
X136229800Y-139257500D01*
X136229900Y-132516000D02*
X136229900Y-139257500D01*
X136671500Y-132074400D02*
X136229900Y-132516000D01*
X181660000Y-126290300D02*
X181660000Y-122240000D01*
X176452500Y-131497800D02*
X181660000Y-126290300D01*
X84553400Y-106398300D02*
X82299600Y-108652100D01*
X131614600Y-106398300D02*
X84553400Y-106398300D01*
X131669200Y-106452900D02*
X131614600Y-106398300D01*
X167610100Y-115069300D02*
X165118800Y-112578000D01*
X167610100Y-119921400D02*
X167610100Y-115069300D01*
X168579700Y-120891000D02*
X167610100Y-119921400D01*
X170151000Y-120891000D02*
X168579700Y-120891000D01*
X171500000Y-122240000D02*
X170151000Y-120891000D01*
X181190700Y-131963700D02*
X180725600Y-131963700D01*
X185470000Y-127684400D02*
X181190700Y-131963700D01*
X185470000Y-120970000D02*
X185470000Y-127684400D01*
X186740000Y-119700000D02*
X185470000Y-120970000D01*
X169743200Y-137373800D02*
X141253000Y-137373800D01*
X175575600Y-131541400D02*
X169743200Y-137373800D01*
X175575600Y-131134400D02*
X175575600Y-131541400D01*
X177964200Y-128745800D02*
X175575600Y-131134400D01*
X177964200Y-121868100D02*
X177964200Y-128745800D01*
X178671300Y-121161000D02*
X177964200Y-121868100D01*
X180199000Y-121161000D02*
X178671300Y-121161000D01*
X181660000Y-119700000D02*
X180199000Y-121161000D01*
X171500000Y-115415500D02*
X171500000Y-119700000D01*
X166763100Y-110678600D02*
X171500000Y-115415500D01*
X166763100Y-110248000D02*
X166763100Y-110678600D01*
X169169100Y-138413500D02*
X146480500Y-138413500D01*
X175880700Y-131701900D02*
X169169100Y-138413500D01*
X175880700Y-131260900D02*
X175880700Y-131701900D01*
X179120000Y-128021600D02*
X175880700Y-131260900D01*
X179120000Y-122240000D02*
X179120000Y-128021600D01*
X170338000Y-116056000D02*
X167823200Y-113541200D01*
X170338000Y-120120800D02*
X170338000Y-116056000D01*
X170996200Y-120779000D02*
X170338000Y-120120800D01*
X172579000Y-120779000D02*
X170996200Y-120779000D01*
X174040000Y-122240000D02*
X172579000Y-120779000D01*
X122889600Y-108784900D02*
X123222400Y-109117700D01*
X108596900Y-108784900D02*
X122889600Y-108784900D01*
X108477700Y-108904100D02*
X108596900Y-108784900D01*
X62421000Y-126878700D02*
X63395100Y-127852800D01*
X62421000Y-116339500D02*
X62421000Y-126878700D01*
X64615200Y-114145300D02*
X62421000Y-116339500D01*
X64938200Y-114145300D02*
X64615200Y-114145300D01*
X140531500Y-136802000D02*
X138780700Y-138552800D01*
X169814700Y-136802000D02*
X140531500Y-136802000D01*
X175270500Y-131346200D02*
X169814700Y-136802000D01*
X175270500Y-131007900D02*
X175270500Y-131346200D01*
X177659000Y-128619400D02*
X175270500Y-131007900D01*
X177659000Y-121161000D02*
X177659000Y-128619400D01*
X179120000Y-119700000D02*
X177659000Y-121161000D01*
X174040000Y-117146800D02*
X174040000Y-119700000D01*
X168056400Y-111163200D02*
X174040000Y-117146800D01*
X144389300Y-113519600D02*
X143955500Y-113953400D01*
X149473100Y-113519600D02*
X144389300Y-113519600D01*
X149786600Y-113833100D02*
X149473100Y-113519600D01*
D29*
X55880000Y-134620000D02*
X54623300Y-134620000D01*
X36000000Y-159000000D02*
X36000000Y-157343300D01*
X48904900Y-144438400D02*
X48904900Y-136199400D01*
X36000000Y-157343300D02*
X48904900Y-144438400D01*
X21000000Y-108294500D02*
X48904900Y-136199400D01*
X21000000Y-94500000D02*
X21000000Y-108294500D01*
X54623300Y-135140800D02*
X54623300Y-134620000D01*
X53564700Y-136199400D02*
X54623300Y-135140800D01*
X48904900Y-136199400D02*
X53564700Y-136199400D01*
X182656800Y-160656800D02*
X181000000Y-159000000D01*
X194343200Y-160656800D02*
X182656800Y-160656800D01*
X196000000Y-159000000D02*
X194343200Y-160656800D01*
X55880000Y-134620000D02*
X57136700Y-134620000D01*
X57136700Y-135140800D02*
X57136700Y-134620000D01*
X61860600Y-139864700D02*
X57136700Y-135140800D01*
X104217500Y-139864700D02*
X61860600Y-139864700D01*
X124221600Y-159868800D02*
X104217500Y-139864700D01*
X124221600Y-160466600D02*
X124221600Y-159868800D01*
X124594300Y-160839300D02*
X124221600Y-160466600D01*
X164160700Y-160839300D02*
X124594300Y-160839300D01*
X166000000Y-159000000D02*
X164160700Y-160839300D01*
X167656800Y-160656800D02*
X166000000Y-159000000D01*
X179343200Y-160656800D02*
X167656800Y-160656800D01*
X181000000Y-159000000D02*
X179343200Y-160656800D01*
D28*
X86000000Y-149600000D02*
X85900000Y-149500000D01*
X86000000Y-159000000D02*
X86000000Y-149600000D01*
X121000000Y-101300800D02*
X118800800Y-103500000D01*
X121000000Y-94500000D02*
X121000000Y-101300800D01*
X81000000Y-94500000D02*
X79521100Y-94500000D01*
X70976200Y-103500000D02*
X78799700Y-103500000D01*
X64200100Y-96723900D02*
X70976200Y-103500000D01*
X64200100Y-93725300D02*
X64200100Y-96723900D01*
X65232300Y-92693100D02*
X64200100Y-93725300D01*
X77714200Y-92693100D02*
X65232300Y-92693100D01*
X79521100Y-94500000D02*
X77714200Y-92693100D01*
X56000000Y-150003800D02*
X55496200Y-149500000D01*
X56000000Y-159000000D02*
X56000000Y-150003800D01*
X96000000Y-149600000D02*
X95900000Y-149500000D01*
X96000000Y-159000000D02*
X96000000Y-149600000D01*
X111203000Y-96181900D02*
X111203000Y-103458500D01*
X111000000Y-95978900D02*
X111203000Y-96181900D01*
X111000000Y-94500000D02*
X111000000Y-95978900D01*
X68042200Y-93021100D02*
X69521100Y-94500000D01*
X65336000Y-93021100D02*
X68042200Y-93021100D01*
X64521000Y-93836100D02*
X65336000Y-93021100D01*
X64521000Y-96221800D02*
X64521000Y-93836100D01*
X71199800Y-102900600D02*
X64521000Y-96221800D01*
X71000000Y-94500000D02*
X69521100Y-94500000D01*
X66000000Y-150110600D02*
X65389400Y-149500000D01*
X66000000Y-159000000D02*
X66000000Y-150110600D01*
X106000000Y-149788400D02*
X106000000Y-159000000D01*
X105599800Y-149388200D02*
X106000000Y-149788400D01*
X103957800Y-93021100D02*
X102478900Y-94500000D01*
X106612800Y-93021100D02*
X103957800Y-93021100D01*
X107529400Y-93937700D02*
X106612800Y-93021100D01*
X107529400Y-96602300D02*
X107529400Y-93937700D01*
X101150300Y-102981400D02*
X107529400Y-96602300D01*
X101000000Y-94500000D02*
X102478900Y-94500000D01*
X61000000Y-103305200D02*
X61194800Y-103500000D01*
X61000000Y-94500000D02*
X61000000Y-103305200D01*
X76000000Y-149788400D02*
X76000000Y-159000000D01*
X75599800Y-149388200D02*
X76000000Y-149788400D01*
X91000000Y-104502800D02*
X90831300Y-104671500D01*
X91000000Y-94500000D02*
X91000000Y-104502800D01*
X51000000Y-102831100D02*
X51000000Y-94500000D01*
X51150300Y-102981400D02*
X51000000Y-102831100D01*
X99060000Y-116840000D02*
X100138900Y-116840000D01*
X101566700Y-118267800D02*
X100138900Y-116840000D01*
X150305600Y-118267800D02*
X101566700Y-118267800D01*
X173461400Y-95112000D02*
X150305600Y-118267800D01*
X174762900Y-95112000D02*
X173461400Y-95112000D01*
X177850000Y-92024900D02*
X174762900Y-95112000D01*
X177850000Y-91500000D02*
X177850000Y-92024900D01*
X178678400Y-90671600D02*
X177850000Y-91500000D01*
X183111600Y-90671600D02*
X178678400Y-90671600D01*
X184200000Y-91760000D02*
X183111600Y-90671600D01*
X185681100Y-90701100D02*
X184200000Y-89220000D01*
X185681100Y-92306500D02*
X185681100Y-90701100D01*
X175660900Y-102326700D02*
X185681100Y-92306500D01*
X168188800Y-102326700D02*
X175660900Y-102326700D01*
X156815100Y-113700400D02*
X168188800Y-102326700D01*
X156815100Y-116000400D02*
X156815100Y-113700400D01*
X182758100Y-90318100D02*
X181660000Y-89220000D01*
X184343700Y-90318100D02*
X182758100Y-90318100D01*
X185307700Y-91282100D02*
X184343700Y-90318100D01*
X185307700Y-92239900D02*
X185307700Y-91282100D01*
X175526000Y-102021600D02*
X185307700Y-92239900D01*
X168062300Y-102021600D02*
X175526000Y-102021600D01*
X154435900Y-115648000D02*
X168062300Y-102021600D01*
X154435900Y-116286700D02*
X154435900Y-115648000D01*
X92518900Y-116951800D02*
X92518900Y-116840000D01*
X94140100Y-118573000D02*
X92518900Y-116951800D01*
X150647600Y-118573000D02*
X94140100Y-118573000D01*
X168372100Y-100848500D02*
X150647600Y-118573000D01*
X170031500Y-100848500D02*
X168372100Y-100848500D01*
X179120000Y-91760000D02*
X170031500Y-100848500D01*
X91440000Y-116840000D02*
X92518900Y-116840000D01*
X88900000Y-116840000D02*
X89978900Y-116840000D01*
X89978900Y-116755000D02*
X89978900Y-116840000D01*
X90973200Y-115760700D02*
X89978900Y-116755000D01*
X101631100Y-115760700D02*
X90973200Y-115760700D01*
X103441300Y-117570900D02*
X101631100Y-115760700D01*
X139960800Y-117570900D02*
X103441300Y-117570900D01*
X141504300Y-116027400D02*
X139960800Y-117570900D01*
X151303200Y-116027400D02*
X141504300Y-116027400D01*
X175160900Y-92169700D02*
X151303200Y-116027400D01*
X175160900Y-91649100D02*
X175160900Y-92169700D01*
X176320000Y-90490000D02*
X175160900Y-91649100D01*
X177850000Y-90490000D02*
X176320000Y-90490000D01*
X179120000Y-89220000D02*
X177850000Y-90490000D01*
X87438900Y-116313900D02*
X87438900Y-116840000D01*
X89788600Y-113964200D02*
X87438900Y-116313900D01*
X141357500Y-113964200D02*
X89788600Y-113964200D01*
X142159200Y-113162500D02*
X141357500Y-113964200D01*
X150105200Y-113162500D02*
X142159200Y-113162500D01*
X168298900Y-94968800D02*
X150105200Y-113162500D01*
X86360000Y-116840000D02*
X87438900Y-116840000D01*
X175310000Y-90490000D02*
X176580000Y-89220000D01*
X173779600Y-90490000D02*
X175310000Y-90490000D01*
X172695900Y-91573700D02*
X173779600Y-90490000D01*
X172695900Y-92092600D02*
X172695900Y-91573700D01*
X159216300Y-105572200D02*
X172695900Y-92092600D01*
X158233300Y-105572200D02*
X159216300Y-105572200D01*
X150361300Y-113444200D02*
X158233300Y-105572200D01*
X150361300Y-114505600D02*
X150361300Y-113444200D01*
X149144700Y-115722200D02*
X150361300Y-114505600D01*
X140459500Y-115722200D02*
X149144700Y-115722200D01*
X138934700Y-117247000D02*
X140459500Y-115722200D01*
X119749800Y-117247000D02*
X138934700Y-117247000D01*
X117958300Y-115455500D02*
X119749800Y-117247000D01*
X90384700Y-115455500D02*
X117958300Y-115455500D01*
X90127300Y-115712900D02*
X90384700Y-115455500D01*
X152603600Y-113196400D02*
X174040000Y-91760000D01*
X151455100Y-113196400D02*
X152603600Y-113196400D01*
X77778400Y-112430700D02*
X75055800Y-115153300D01*
X139630300Y-112430700D02*
X77778400Y-112430700D01*
X143942700Y-108118300D02*
X139630300Y-112430700D01*
X152493200Y-108118300D02*
X143942700Y-108118300D01*
X167473400Y-93138100D02*
X152493200Y-108118300D01*
X167853800Y-93138100D02*
X167473400Y-93138100D01*
X76200000Y-116840000D02*
X77278900Y-116840000D01*
X77278900Y-116728200D02*
X77278900Y-116840000D01*
X80661100Y-113346000D02*
X77278900Y-116728200D01*
X140009800Y-113346000D02*
X80661100Y-113346000D01*
X142386100Y-110969700D02*
X140009800Y-113346000D01*
X151489300Y-110969700D02*
X142386100Y-110969700D01*
X168062000Y-94397000D02*
X151489300Y-110969700D01*
X168863000Y-94397000D02*
X168062000Y-94397000D01*
X171500000Y-91760000D02*
X168863000Y-94397000D01*
X73660000Y-116840000D02*
X74738900Y-116840000D01*
X74738900Y-116310500D02*
X74738900Y-116840000D01*
X78313600Y-112735800D02*
X74738900Y-116310500D01*
X139756800Y-112735800D02*
X78313600Y-112735800D01*
X144069100Y-108423500D02*
X139756800Y-112735800D01*
X152619500Y-108423500D02*
X144069100Y-108423500D01*
X166951100Y-94091900D02*
X152619500Y-108423500D01*
X168198100Y-94091900D02*
X166951100Y-94091900D01*
X170230000Y-92060000D02*
X168198100Y-94091900D01*
X170230000Y-90490000D02*
X170230000Y-92060000D01*
X171500000Y-89220000D02*
X170230000Y-90490000D01*
X71120000Y-116840000D02*
X72198900Y-116840000D01*
X72198900Y-116715900D02*
X72198900Y-116840000D01*
X76789200Y-112125600D02*
X72198900Y-116715900D01*
X139503800Y-112125600D02*
X76789200Y-112125600D01*
X143968800Y-107660600D02*
X139503800Y-112125600D01*
X152519300Y-107660600D02*
X143968800Y-107660600D01*
X168419900Y-91760000D02*
X152519300Y-107660600D01*
X168960000Y-91760000D02*
X168419900Y-91760000D01*
X68580000Y-116840000D02*
X69658900Y-116840000D01*
X69658900Y-116775100D02*
X69658900Y-116840000D01*
X74613500Y-111820500D02*
X69658900Y-116775100D01*
X139377300Y-111820500D02*
X74613500Y-111820500D01*
X143842300Y-107355500D02*
X139377300Y-111820500D01*
X152373500Y-107355500D02*
X143842300Y-107355500D01*
X167690000Y-92039000D02*
X152373500Y-107355500D01*
X167690000Y-90490000D02*
X167690000Y-92039000D01*
X168960000Y-89220000D02*
X167690000Y-90490000D01*
X66040000Y-116840000D02*
X67118900Y-116840000D01*
X67118900Y-116775100D02*
X67118900Y-116840000D01*
X72378700Y-111515300D02*
X67118900Y-116775100D01*
X139105400Y-111515300D02*
X72378700Y-111515300D01*
X143579900Y-107040800D02*
X139105400Y-111515300D01*
X151139200Y-107040800D02*
X143579900Y-107040800D01*
X166420000Y-91760000D02*
X151139200Y-107040800D01*
X63500000Y-116840000D02*
X64578900Y-116840000D01*
X165150000Y-90490000D02*
X166420000Y-89220000D01*
X165150000Y-92021300D02*
X165150000Y-90490000D01*
X153467200Y-103704100D02*
X165150000Y-92021300D01*
X146433300Y-103704100D02*
X153467200Y-103704100D01*
X138927200Y-111210200D02*
X146433300Y-103704100D01*
X70096900Y-111210200D02*
X138927200Y-111210200D01*
X64578900Y-116728200D02*
X70096900Y-111210200D01*
X64578900Y-116840000D02*
X64578900Y-116728200D01*
X60960000Y-116840000D02*
X62038900Y-116840000D01*
X152278100Y-103361900D02*
X163880000Y-91760000D01*
X146343800Y-103361900D02*
X152278100Y-103361900D01*
X138800700Y-110905000D02*
X146343800Y-103361900D01*
X67369900Y-110905000D02*
X138800700Y-110905000D01*
X62038900Y-116236000D02*
X67369900Y-110905000D01*
X62038900Y-116840000D02*
X62038900Y-116236000D01*
X57341100Y-116951800D02*
X57341100Y-116840000D01*
X56373900Y-117919000D02*
X57341100Y-116951800D01*
X52863500Y-117919000D02*
X56373900Y-117919000D01*
X52251800Y-117307300D02*
X52863500Y-117919000D01*
X52251800Y-116324300D02*
X52251800Y-117307300D01*
X63286500Y-105289600D02*
X52251800Y-116324300D01*
X122194400Y-105289600D02*
X63286500Y-105289600D01*
X129243700Y-98240300D02*
X122194400Y-105289600D01*
X58420000Y-116840000D02*
X57341100Y-116840000D01*
X55880000Y-116840000D02*
X56958900Y-116840000D01*
X152207300Y-100892700D02*
X161340000Y-91760000D01*
X147949900Y-100892700D02*
X152207300Y-100892700D01*
X138578400Y-110264200D02*
X147949900Y-100892700D01*
X63423000Y-110264200D02*
X138578400Y-110264200D01*
X56958900Y-116728300D02*
X63423000Y-110264200D01*
X56958900Y-116840000D02*
X56958900Y-116728300D01*
X54418900Y-116775100D02*
X54418900Y-116840000D01*
X61235100Y-109958900D02*
X54418900Y-116775100D01*
X138451900Y-109958900D02*
X61235100Y-109958900D01*
X155084400Y-93326400D02*
X138451900Y-109958900D01*
X156291000Y-93326400D02*
X155084400Y-93326400D01*
X157530000Y-92087400D02*
X156291000Y-93326400D01*
X157530000Y-91455300D02*
X157530000Y-92087400D01*
X158304300Y-90681000D02*
X157530000Y-91455300D01*
X159447300Y-90681000D02*
X158304300Y-90681000D01*
X160908300Y-89220000D02*
X159447300Y-90681000D01*
X161340000Y-89220000D02*
X160908300Y-89220000D01*
X53340000Y-116840000D02*
X54418900Y-116840000D01*
X50800000Y-116840000D02*
X51878900Y-116840000D01*
X159879000Y-90681000D02*
X158800000Y-91760000D01*
X161835700Y-90681000D02*
X159879000Y-90681000D01*
X162420400Y-91265700D02*
X161835700Y-90681000D01*
X162420400Y-92217100D02*
X162420400Y-91265700D01*
X153402600Y-101234900D02*
X162420400Y-92217100D01*
X148039200Y-101234900D02*
X153402600Y-101234900D01*
X138704500Y-110569600D02*
X148039200Y-101234900D01*
X65700600Y-110569600D02*
X138704500Y-110569600D01*
X59690000Y-116580200D02*
X65700600Y-110569600D01*
X59690000Y-117099900D02*
X59690000Y-116580200D01*
X58564900Y-118225000D02*
X59690000Y-117099900D01*
X52737800Y-118225000D02*
X58564900Y-118225000D01*
X51878900Y-117366100D02*
X52737800Y-118225000D01*
X51878900Y-116840000D02*
X51878900Y-117366100D01*
X167947100Y-103006500D02*
X168317800Y-103006500D01*
X160070000Y-110883600D02*
X167947100Y-103006500D01*
X160070000Y-119960100D02*
X160070000Y-110883600D01*
X159060100Y-120970000D02*
X160070000Y-119960100D01*
X158535200Y-120970000D02*
X159060100Y-120970000D01*
X157721000Y-121784200D02*
X158535200Y-120970000D01*
X157721000Y-122793300D02*
X157721000Y-121784200D01*
X155579900Y-124934400D02*
X157721000Y-122793300D01*
X117744200Y-124934400D02*
X155579900Y-124934400D01*
X108058600Y-134620000D02*
X117744200Y-124934400D01*
X99060000Y-134620000D02*
X108058600Y-134620000D01*
X93980000Y-134620000D02*
X95058900Y-134620000D01*
X160070000Y-120970000D02*
X161340000Y-119700000D01*
X160070000Y-122525400D02*
X160070000Y-120970000D01*
X156961400Y-125634000D02*
X160070000Y-122525400D01*
X135744900Y-125634000D02*
X156961400Y-125634000D01*
X125674600Y-135704300D02*
X135744900Y-125634000D01*
X96031400Y-135704300D02*
X125674600Y-135704300D01*
X95058900Y-134731800D02*
X96031400Y-135704300D01*
X95058900Y-134620000D02*
X95058900Y-134731800D01*
X88900000Y-134620000D02*
X89978900Y-134620000D01*
X89978900Y-134508200D02*
X89978900Y-134620000D01*
X99857900Y-124629200D02*
X89978900Y-134508200D01*
X155453400Y-124629200D02*
X99857900Y-124629200D01*
X157415800Y-122666800D02*
X155453400Y-124629200D01*
X157415800Y-121084200D02*
X157415800Y-122666800D01*
X158800000Y-119700000D02*
X157415800Y-121084200D01*
X86360000Y-134620000D02*
X87438900Y-134620000D01*
X87438900Y-134508200D02*
X87438900Y-134620000D01*
X97623100Y-124324000D02*
X87438900Y-134508200D01*
X154176000Y-124324000D02*
X97623100Y-124324000D01*
X156260000Y-122240000D02*
X154176000Y-124324000D01*
X83820000Y-134620000D02*
X84898900Y-134620000D01*
X84898900Y-134508200D02*
X84898900Y-134620000D01*
X95388300Y-124018800D02*
X84898900Y-134508200D01*
X153482300Y-124018800D02*
X95388300Y-124018800D01*
X154990000Y-122511100D02*
X153482300Y-124018800D01*
X154990000Y-120970000D02*
X154990000Y-122511100D01*
X156260000Y-119700000D02*
X154990000Y-120970000D01*
X81280000Y-134620000D02*
X82358900Y-134620000D01*
X82358900Y-134508400D02*
X82358900Y-134620000D01*
X93153600Y-123713700D02*
X82358900Y-134508400D01*
X152246300Y-123713700D02*
X93153600Y-123713700D01*
X153720000Y-122240000D02*
X152246300Y-123713700D01*
X79818900Y-134555100D02*
X79818900Y-134620000D01*
X93251300Y-121122700D02*
X79818900Y-134555100D01*
X152297300Y-121122700D02*
X93251300Y-121122700D01*
X153720000Y-119700000D02*
X152297300Y-121122700D01*
X78740000Y-134620000D02*
X79818900Y-134620000D01*
X74738900Y-134508200D02*
X74738900Y-134620000D01*
X87852400Y-121394700D02*
X74738900Y-134508200D01*
X91585100Y-121394700D02*
X87852400Y-121394700D01*
X73660000Y-134620000D02*
X74738900Y-134620000D01*
X68580000Y-134620000D02*
X69658900Y-134620000D01*
X147522500Y-120817500D02*
X148640000Y-119700000D01*
X83384300Y-120817500D02*
X147522500Y-120817500D01*
X69658900Y-134542900D02*
X83384300Y-120817500D01*
X69658900Y-134620000D02*
X69658900Y-134542900D01*
X63500000Y-134620000D02*
X64578900Y-134620000D01*
X145684500Y-120115500D02*
X146100000Y-119700000D01*
X78971600Y-120115500D02*
X145684500Y-120115500D01*
X64578900Y-134508200D02*
X78971600Y-120115500D01*
X64578900Y-134620000D02*
X64578900Y-134508200D01*
X60960000Y-134620000D02*
X62038900Y-134620000D01*
X140679600Y-114620000D02*
X146100000Y-114620000D01*
X138370600Y-116929000D02*
X140679600Y-114620000D01*
X120389000Y-116929000D02*
X138370600Y-116929000D01*
X118597000Y-115137000D02*
X120389000Y-116929000D01*
X89065900Y-115137000D02*
X118597000Y-115137000D01*
X87821000Y-116381900D02*
X89065900Y-115137000D01*
X87821000Y-116934700D02*
X87821000Y-116381900D01*
X84945300Y-119810400D02*
X87821000Y-116934700D01*
X76736700Y-119810400D02*
X84945300Y-119810400D01*
X62038900Y-134508200D02*
X76736700Y-119810400D01*
X62038900Y-134620000D02*
X62038900Y-134508200D01*
X58420000Y-134620000D02*
X58420000Y-133541100D01*
X58531800Y-133541100D02*
X58420000Y-133541100D01*
X75104900Y-116968000D02*
X58531800Y-133541100D01*
X75104900Y-116376900D02*
X75104900Y-116968000D01*
X78440900Y-113040900D02*
X75104900Y-116376900D01*
X139883300Y-113040900D02*
X78440900Y-113040900D01*
X142259600Y-110664600D02*
X139883300Y-113040900D01*
X147515400Y-110664600D02*
X142259600Y-110664600D01*
X148640000Y-109540000D02*
X147515400Y-110664600D01*
X28816400Y-154704700D02*
X28816400Y-147424200D01*
X26000000Y-157521100D02*
X28816400Y-154704700D01*
X26000000Y-159000000D02*
X26000000Y-157521100D01*
X31157600Y-158842400D02*
X31157600Y-149747300D01*
X31000000Y-159000000D02*
X31157600Y-158842400D01*
D30*
X134620000Y-147605700D02*
X126000000Y-156225700D01*
X134620000Y-146240000D02*
X134620000Y-147605700D01*
X126000000Y-159000000D02*
X126000000Y-156225700D01*
X137417500Y-152582500D02*
X131000000Y-159000000D01*
X137417500Y-145035100D02*
X137417500Y-152582500D01*
X133542400Y-141160000D02*
X137417500Y-145035100D01*
X127000000Y-141160000D02*
X133542400Y-141160000D01*
X149620000Y-147605700D02*
X141000000Y-156225700D01*
X149620000Y-146240000D02*
X149620000Y-147605700D01*
X141000000Y-159000000D02*
X141000000Y-156225700D01*
D28*
X151180000Y-89220000D02*
X151180000Y-91760000D01*
X167988700Y-103863200D02*
X167943900Y-103818400D01*
X167988700Y-105284800D02*
X167988700Y-103863200D01*
X164529100Y-108744400D02*
X167988700Y-105284800D01*
X164529100Y-114302900D02*
X164529100Y-108744400D01*
X164978700Y-114752500D02*
X164529100Y-114302900D01*
X164978700Y-131440200D02*
X164978700Y-114752500D01*
X163516000Y-132902900D02*
X164978700Y-131440200D01*
X148640000Y-89220000D02*
X148640000Y-91760000D01*
X150070700Y-87789300D02*
X148640000Y-89220000D01*
X184345800Y-87789300D02*
X150070700Y-87789300D01*
X185986300Y-89429800D02*
X184345800Y-87789300D01*
X185986300Y-94092500D02*
X185986300Y-89429800D01*
X183045300Y-97033500D02*
X185986300Y-94092500D01*
X183045300Y-129274700D02*
X183045300Y-97033500D01*
X175176100Y-108970700D02*
X170330200Y-104124800D01*
X175176100Y-130599400D02*
X175176100Y-108970700D01*
X173111200Y-132664300D02*
X175176100Y-130599400D01*
X138046400Y-106451100D02*
X137620000Y-106451100D01*
X152450000Y-92047500D02*
X138046400Y-106451100D01*
X152450000Y-90490000D02*
X152450000Y-92047500D01*
X153720000Y-89220000D02*
X152450000Y-90490000D01*
X137620000Y-107880000D02*
X137620000Y-106451100D01*
X138048000Y-109308900D02*
X135080000Y-109308900D01*
X153720000Y-93636900D02*
X138048000Y-109308900D01*
X153720000Y-91760000D02*
X153720000Y-93636900D01*
X135080000Y-107880000D02*
X135080000Y-109308900D01*
X135475700Y-106451100D02*
X132540000Y-106451100D01*
X149910000Y-92016800D02*
X135475700Y-106451100D01*
X149910000Y-88956100D02*
X149910000Y-92016800D01*
X150766100Y-88100000D02*
X149910000Y-88956100D01*
X155140000Y-88100000D02*
X150766100Y-88100000D01*
X156260000Y-89220000D02*
X155140000Y-88100000D01*
X132540000Y-107880000D02*
X132540000Y-106451100D01*
X130000000Y-107880000D02*
X130000000Y-109308900D01*
X156028400Y-91760000D02*
X156260000Y-91760000D01*
X138174400Y-109614000D02*
X156028400Y-91760000D01*
X130305100Y-109614000D02*
X138174400Y-109614000D01*
X130000000Y-109308900D02*
X130305100Y-109614000D01*
X120828900Y-109602300D02*
X121072900Y-109358300D01*
X120828900Y-109602400D02*
X120828900Y-109602300D01*
X60581200Y-109602400D02*
X120828900Y-109602400D01*
X54799300Y-115384300D02*
X60581200Y-109602400D01*
X85090000Y-118368200D02*
X84226500Y-119231700D01*
X85090000Y-116571300D02*
X85090000Y-118368200D01*
X88002300Y-113659000D02*
X85090000Y-116571300D01*
X140128500Y-113659000D02*
X88002300Y-113659000D01*
X141707500Y-112080000D02*
X140128500Y-113659000D01*
X146100000Y-112080000D02*
X141707500Y-112080000D01*
D31*
G36*
X205544000Y-167044000D02*
X12456000Y-167044000D01*
X12456000Y-157750000D01*
X14361536Y-157750000D01*
X14361536Y-160250000D01*
X14388103Y-160391190D01*
X14471546Y-160520865D01*
X14598866Y-160607859D01*
X14750000Y-160638464D01*
X17250000Y-160638464D01*
X17391190Y-160611897D01*
X17520865Y-160528454D01*
X17607859Y-160401134D01*
X17621591Y-160333320D01*
X19846285Y-160333320D01*
X19975533Y-160626123D01*
X20675806Y-160894388D01*
X21425435Y-160874250D01*
X22024467Y-160626123D01*
X22153715Y-160333320D01*
X21000000Y-159179605D01*
X19846285Y-160333320D01*
X17621591Y-160333320D01*
X17638464Y-160250000D01*
X17638464Y-158675806D01*
X19105612Y-158675806D01*
X19125750Y-159425435D01*
X19373877Y-160024467D01*
X19666680Y-160153715D01*
X20820395Y-159000000D01*
X21179605Y-159000000D01*
X22333320Y-160153715D01*
X22626123Y-160024467D01*
X22894388Y-159324194D01*
X22874250Y-158574565D01*
X22626123Y-157975533D01*
X22333320Y-157846285D01*
X21179605Y-159000000D01*
X20820395Y-159000000D01*
X19666680Y-157846285D01*
X19373877Y-157975533D01*
X19105612Y-158675806D01*
X17638464Y-158675806D01*
X17638464Y-157750000D01*
X17622787Y-157666680D01*
X19846285Y-157666680D01*
X21000000Y-158820395D01*
X22070395Y-157750000D01*
X24361536Y-157750000D01*
X24361536Y-160250000D01*
X24388103Y-160391190D01*
X24471546Y-160520865D01*
X24598866Y-160607859D01*
X24750000Y-160638464D01*
X27250000Y-160638464D01*
X27391190Y-160611897D01*
X27520865Y-160528454D01*
X27607859Y-160401134D01*
X27638464Y-160250000D01*
X27638464Y-159323003D01*
X29368718Y-159323003D01*
X29616499Y-159922680D01*
X30074907Y-160381888D01*
X30674151Y-160630716D01*
X31323003Y-160631282D01*
X31922680Y-160383501D01*
X32381888Y-159925093D01*
X32630716Y-159325849D01*
X32631282Y-158676997D01*
X32383501Y-158077320D01*
X31925093Y-157618112D01*
X31614800Y-157489267D01*
X31614800Y-150313754D01*
X31770935Y-150157892D01*
X31881374Y-149891924D01*
X31881625Y-149603939D01*
X31771650Y-149337779D01*
X31568192Y-149133965D01*
X31302224Y-149023526D01*
X31014239Y-149023275D01*
X30748079Y-149133250D01*
X30544265Y-149336708D01*
X30433826Y-149602676D01*
X30433575Y-149890661D01*
X30543550Y-150156821D01*
X30700400Y-150313945D01*
X30700400Y-157368738D01*
X30676997Y-157368718D01*
X30077320Y-157616499D01*
X29618112Y-158074907D01*
X29369284Y-158674151D01*
X29368718Y-159323003D01*
X27638464Y-159323003D01*
X27638464Y-157750000D01*
X27611897Y-157608810D01*
X27528454Y-157479135D01*
X27401134Y-157392141D01*
X27250000Y-157361536D01*
X26806142Y-157361536D01*
X29139689Y-155027989D01*
X29238798Y-154879663D01*
X29273600Y-154704700D01*
X29273600Y-147990654D01*
X29429735Y-147834792D01*
X29540174Y-147568824D01*
X29540425Y-147280839D01*
X29430450Y-147014679D01*
X29226992Y-146810865D01*
X28961024Y-146700426D01*
X28673039Y-146700175D01*
X28406879Y-146810150D01*
X28203065Y-147013608D01*
X28092626Y-147279576D01*
X28092375Y-147567561D01*
X28202350Y-147833721D01*
X28359200Y-147990845D01*
X28359200Y-154515322D01*
X25676711Y-157197811D01*
X25577602Y-157346137D01*
X25574539Y-157361536D01*
X24750000Y-157361536D01*
X24608810Y-157388103D01*
X24479135Y-157471546D01*
X24392141Y-157598866D01*
X24361536Y-157750000D01*
X22070395Y-157750000D01*
X22153715Y-157666680D01*
X22024467Y-157373877D01*
X21324194Y-157105612D01*
X20574565Y-157125750D01*
X19975533Y-157373877D01*
X19846285Y-157666680D01*
X17622787Y-157666680D01*
X17611897Y-157608810D01*
X17528454Y-157479135D01*
X17401134Y-157392141D01*
X17250000Y-157361536D01*
X14750000Y-157361536D01*
X14608810Y-157388103D01*
X14479135Y-157471546D01*
X14392141Y-157598866D01*
X14361536Y-157750000D01*
X12456000Y-157750000D01*
X12456000Y-147977870D01*
X16086583Y-147977870D01*
X16453166Y-148865069D01*
X17131361Y-149544449D01*
X18017919Y-149912580D01*
X18977870Y-149913417D01*
X19865069Y-149546834D01*
X20544449Y-148868639D01*
X20912580Y-147982081D01*
X20913417Y-147022130D01*
X20546834Y-146134931D01*
X19868639Y-145455551D01*
X18982081Y-145087420D01*
X18022130Y-145086583D01*
X17134931Y-145453166D01*
X16455551Y-146131361D01*
X16087420Y-147017919D01*
X16086583Y-147977870D01*
X12456000Y-147977870D01*
X12456000Y-136103983D01*
X38868804Y-136103983D01*
X39040625Y-136519823D01*
X39358503Y-136838256D01*
X39774043Y-137010804D01*
X40223983Y-137011196D01*
X40639823Y-136839375D01*
X40958256Y-136521497D01*
X41130804Y-136105957D01*
X41131196Y-135656017D01*
X40959375Y-135240177D01*
X40641497Y-134921744D01*
X40225957Y-134749196D01*
X39776017Y-134748804D01*
X39360177Y-134920625D01*
X39041744Y-135238503D01*
X38869196Y-135654043D01*
X38868804Y-136103983D01*
X12456000Y-136103983D01*
X12456000Y-131223983D01*
X38868804Y-131223983D01*
X39040625Y-131639823D01*
X39358503Y-131958256D01*
X39774043Y-132130804D01*
X40223983Y-132131196D01*
X40639823Y-131959375D01*
X40958256Y-131641497D01*
X41130804Y-131225957D01*
X41131196Y-130776017D01*
X40959375Y-130360177D01*
X40641497Y-130041744D01*
X40225957Y-129869196D01*
X39776017Y-129868804D01*
X39360177Y-130040625D01*
X39041744Y-130358503D01*
X38869196Y-130774043D01*
X38868804Y-131223983D01*
X12456000Y-131223983D01*
X12456000Y-110507745D01*
X14671861Y-110507745D01*
X14745995Y-110753864D01*
X15283223Y-110946965D01*
X15853454Y-110919778D01*
X16254005Y-110753864D01*
X16328139Y-110507745D01*
X15500000Y-109679605D01*
X14671861Y-110507745D01*
X12456000Y-110507745D01*
X12456000Y-109283223D01*
X14053035Y-109283223D01*
X14080222Y-109853454D01*
X14246136Y-110254005D01*
X14492255Y-110328139D01*
X15320395Y-109500000D01*
X15679605Y-109500000D01*
X16507745Y-110328139D01*
X16753864Y-110254005D01*
X16811536Y-110093555D01*
X16811536Y-110300000D01*
X16838103Y-110441190D01*
X16921546Y-110570865D01*
X17048866Y-110657859D01*
X17200000Y-110688464D01*
X18800000Y-110688464D01*
X18941190Y-110661897D01*
X19070865Y-110578454D01*
X19157859Y-110451134D01*
X19188464Y-110300000D01*
X19188464Y-108700000D01*
X19161897Y-108558810D01*
X19078454Y-108429135D01*
X18951134Y-108342141D01*
X18800000Y-108311536D01*
X17200000Y-108311536D01*
X17058810Y-108338103D01*
X16929135Y-108421546D01*
X16842141Y-108548866D01*
X16811536Y-108700000D01*
X16811536Y-108885227D01*
X16753864Y-108745995D01*
X16507745Y-108671861D01*
X15679605Y-109500000D01*
X15320395Y-109500000D01*
X14492255Y-108671861D01*
X14246136Y-108745995D01*
X14053035Y-109283223D01*
X12456000Y-109283223D01*
X12456000Y-108492255D01*
X14671861Y-108492255D01*
X15500000Y-109320395D01*
X16328139Y-108492255D01*
X16254005Y-108246136D01*
X15716777Y-108053035D01*
X15146546Y-108080222D01*
X14745995Y-108246136D01*
X14671861Y-108492255D01*
X12456000Y-108492255D01*
X12456000Y-95833320D01*
X14846285Y-95833320D01*
X14975533Y-96126123D01*
X15675806Y-96394388D01*
X16425435Y-96374250D01*
X17024467Y-96126123D01*
X17153715Y-95833320D01*
X16000000Y-94679605D01*
X14846285Y-95833320D01*
X12456000Y-95833320D01*
X12456000Y-94175806D01*
X14105612Y-94175806D01*
X14125750Y-94925435D01*
X14373877Y-95524467D01*
X14666680Y-95653715D01*
X15820395Y-94500000D01*
X16179605Y-94500000D01*
X17333320Y-95653715D01*
X17626123Y-95524467D01*
X17894388Y-94824194D01*
X17874250Y-94074565D01*
X17626123Y-93475533D01*
X17333320Y-93346285D01*
X16179605Y-94500000D01*
X15820395Y-94500000D01*
X14666680Y-93346285D01*
X14373877Y-93475533D01*
X14105612Y-94175806D01*
X12456000Y-94175806D01*
X12456000Y-93166680D01*
X14846285Y-93166680D01*
X16000000Y-94320395D01*
X17070395Y-93250000D01*
X19361536Y-93250000D01*
X19361536Y-95750000D01*
X19388103Y-95891190D01*
X19471546Y-96020865D01*
X19598866Y-96107859D01*
X19750000Y-96138464D01*
X20365000Y-96138464D01*
X20365000Y-108294500D01*
X20413336Y-108537504D01*
X20550987Y-108743513D01*
X48269900Y-136462426D01*
X48269900Y-144175374D01*
X35550987Y-156894287D01*
X35413336Y-157100296D01*
X35365000Y-157343300D01*
X35365000Y-157361536D01*
X34750000Y-157361536D01*
X34608810Y-157388103D01*
X34479135Y-157471546D01*
X34392141Y-157598866D01*
X34361536Y-157750000D01*
X34361536Y-160250000D01*
X34388103Y-160391190D01*
X34471546Y-160520865D01*
X34598866Y-160607859D01*
X34750000Y-160638464D01*
X37250000Y-160638464D01*
X37391190Y-160611897D01*
X37520865Y-160528454D01*
X37607859Y-160401134D01*
X37621591Y-160333320D01*
X39846285Y-160333320D01*
X39975533Y-160626123D01*
X40675806Y-160894388D01*
X41425435Y-160874250D01*
X42024467Y-160626123D01*
X42153715Y-160333320D01*
X41000000Y-159179605D01*
X39846285Y-160333320D01*
X37621591Y-160333320D01*
X37638464Y-160250000D01*
X37638464Y-158675806D01*
X39105612Y-158675806D01*
X39125750Y-159425435D01*
X39373877Y-160024467D01*
X39666680Y-160153715D01*
X40820395Y-159000000D01*
X41179605Y-159000000D01*
X42333320Y-160153715D01*
X42626123Y-160024467D01*
X42894388Y-159324194D01*
X42874250Y-158574565D01*
X42626123Y-157975533D01*
X42333320Y-157846285D01*
X41179605Y-159000000D01*
X40820395Y-159000000D01*
X39666680Y-157846285D01*
X39373877Y-157975533D01*
X39105612Y-158675806D01*
X37638464Y-158675806D01*
X37638464Y-157750000D01*
X37622787Y-157666680D01*
X39846285Y-157666680D01*
X41000000Y-158820395D01*
X42070395Y-157750000D01*
X44361536Y-157750000D01*
X44361536Y-160250000D01*
X44388103Y-160391190D01*
X44471546Y-160520865D01*
X44598866Y-160607859D01*
X44750000Y-160638464D01*
X47250000Y-160638464D01*
X47391190Y-160611897D01*
X47520865Y-160528454D01*
X47607859Y-160401134D01*
X47621591Y-160333320D01*
X49846285Y-160333320D01*
X49975533Y-160626123D01*
X50675806Y-160894388D01*
X51425435Y-160874250D01*
X52024467Y-160626123D01*
X52153715Y-160333320D01*
X51000000Y-159179605D01*
X49846285Y-160333320D01*
X47621591Y-160333320D01*
X47638464Y-160250000D01*
X47638464Y-158675806D01*
X49105612Y-158675806D01*
X49125750Y-159425435D01*
X49373877Y-160024467D01*
X49666680Y-160153715D01*
X50820395Y-159000000D01*
X51179605Y-159000000D01*
X52333320Y-160153715D01*
X52626123Y-160024467D01*
X52894388Y-159324194D01*
X52874250Y-158574565D01*
X52626123Y-157975533D01*
X52333320Y-157846285D01*
X51179605Y-159000000D01*
X50820395Y-159000000D01*
X49666680Y-157846285D01*
X49373877Y-157975533D01*
X49105612Y-158675806D01*
X47638464Y-158675806D01*
X47638464Y-157750000D01*
X47622787Y-157666680D01*
X49846285Y-157666680D01*
X51000000Y-158820395D01*
X52070395Y-157750000D01*
X54361536Y-157750000D01*
X54361536Y-160250000D01*
X54388103Y-160391190D01*
X54471546Y-160520865D01*
X54598866Y-160607859D01*
X54750000Y-160638464D01*
X57250000Y-160638464D01*
X57391190Y-160611897D01*
X57520865Y-160528454D01*
X57607859Y-160401134D01*
X57621591Y-160333320D01*
X59846285Y-160333320D01*
X59975533Y-160626123D01*
X60675806Y-160894388D01*
X61425435Y-160874250D01*
X62024467Y-160626123D01*
X62153715Y-160333320D01*
X61000000Y-159179605D01*
X59846285Y-160333320D01*
X57621591Y-160333320D01*
X57638464Y-160250000D01*
X57638464Y-158675806D01*
X59105612Y-158675806D01*
X59125750Y-159425435D01*
X59373877Y-160024467D01*
X59666680Y-160153715D01*
X60820395Y-159000000D01*
X61179605Y-159000000D01*
X62333320Y-160153715D01*
X62626123Y-160024467D01*
X62894388Y-159324194D01*
X62874250Y-158574565D01*
X62626123Y-157975533D01*
X62333320Y-157846285D01*
X61179605Y-159000000D01*
X60820395Y-159000000D01*
X59666680Y-157846285D01*
X59373877Y-157975533D01*
X59105612Y-158675806D01*
X57638464Y-158675806D01*
X57638464Y-157750000D01*
X57622787Y-157666680D01*
X59846285Y-157666680D01*
X61000000Y-158820395D01*
X62070395Y-157750000D01*
X64361536Y-157750000D01*
X64361536Y-160250000D01*
X64388103Y-160391190D01*
X64471546Y-160520865D01*
X64598866Y-160607859D01*
X64750000Y-160638464D01*
X67250000Y-160638464D01*
X67391190Y-160611897D01*
X67520865Y-160528454D01*
X67607859Y-160401134D01*
X67621591Y-160333320D01*
X69846285Y-160333320D01*
X69975533Y-160626123D01*
X70675806Y-160894388D01*
X71425435Y-160874250D01*
X72024467Y-160626123D01*
X72153715Y-160333320D01*
X71000000Y-159179605D01*
X69846285Y-160333320D01*
X67621591Y-160333320D01*
X67638464Y-160250000D01*
X67638464Y-158675806D01*
X69105612Y-158675806D01*
X69125750Y-159425435D01*
X69373877Y-160024467D01*
X69666680Y-160153715D01*
X70820395Y-159000000D01*
X71179605Y-159000000D01*
X72333320Y-160153715D01*
X72626123Y-160024467D01*
X72894388Y-159324194D01*
X72874250Y-158574565D01*
X72626123Y-157975533D01*
X72333320Y-157846285D01*
X71179605Y-159000000D01*
X70820395Y-159000000D01*
X69666680Y-157846285D01*
X69373877Y-157975533D01*
X69105612Y-158675806D01*
X67638464Y-158675806D01*
X67638464Y-157750000D01*
X67622787Y-157666680D01*
X69846285Y-157666680D01*
X71000000Y-158820395D01*
X72070395Y-157750000D01*
X74361536Y-157750000D01*
X74361536Y-160250000D01*
X74388103Y-160391190D01*
X74471546Y-160520865D01*
X74598866Y-160607859D01*
X74750000Y-160638464D01*
X77250000Y-160638464D01*
X77391190Y-160611897D01*
X77520865Y-160528454D01*
X77607859Y-160401134D01*
X77621591Y-160333320D01*
X79846285Y-160333320D01*
X79975533Y-160626123D01*
X80675806Y-160894388D01*
X81425435Y-160874250D01*
X82024467Y-160626123D01*
X82153715Y-160333320D01*
X81000000Y-159179605D01*
X79846285Y-160333320D01*
X77621591Y-160333320D01*
X77638464Y-160250000D01*
X77638464Y-158675806D01*
X79105612Y-158675806D01*
X79125750Y-159425435D01*
X79373877Y-160024467D01*
X79666680Y-160153715D01*
X80820395Y-159000000D01*
X81179605Y-159000000D01*
X82333320Y-160153715D01*
X82626123Y-160024467D01*
X82894388Y-159324194D01*
X82874250Y-158574565D01*
X82626123Y-157975533D01*
X82333320Y-157846285D01*
X81179605Y-159000000D01*
X80820395Y-159000000D01*
X79666680Y-157846285D01*
X79373877Y-157975533D01*
X79105612Y-158675806D01*
X77638464Y-158675806D01*
X77638464Y-157750000D01*
X77622787Y-157666680D01*
X79846285Y-157666680D01*
X81000000Y-158820395D01*
X82070395Y-157750000D01*
X84361536Y-157750000D01*
X84361536Y-160250000D01*
X84388103Y-160391190D01*
X84471546Y-160520865D01*
X84598866Y-160607859D01*
X84750000Y-160638464D01*
X87250000Y-160638464D01*
X87391190Y-160611897D01*
X87520865Y-160528454D01*
X87607859Y-160401134D01*
X87621591Y-160333320D01*
X89846285Y-160333320D01*
X89975533Y-160626123D01*
X90675806Y-160894388D01*
X91425435Y-160874250D01*
X92024467Y-160626123D01*
X92153715Y-160333320D01*
X91000000Y-159179605D01*
X89846285Y-160333320D01*
X87621591Y-160333320D01*
X87638464Y-160250000D01*
X87638464Y-158675806D01*
X89105612Y-158675806D01*
X89125750Y-159425435D01*
X89373877Y-160024467D01*
X89666680Y-160153715D01*
X90820395Y-159000000D01*
X91179605Y-159000000D01*
X92333320Y-160153715D01*
X92626123Y-160024467D01*
X92894388Y-159324194D01*
X92874250Y-158574565D01*
X92626123Y-157975533D01*
X92333320Y-157846285D01*
X91179605Y-159000000D01*
X90820395Y-159000000D01*
X89666680Y-157846285D01*
X89373877Y-157975533D01*
X89105612Y-158675806D01*
X87638464Y-158675806D01*
X87638464Y-157750000D01*
X87622787Y-157666680D01*
X89846285Y-157666680D01*
X91000000Y-158820395D01*
X92070395Y-157750000D01*
X94361536Y-157750000D01*
X94361536Y-160250000D01*
X94388103Y-160391190D01*
X94471546Y-160520865D01*
X94598866Y-160607859D01*
X94750000Y-160638464D01*
X97250000Y-160638464D01*
X97391190Y-160611897D01*
X97520865Y-160528454D01*
X97607859Y-160401134D01*
X97621591Y-160333320D01*
X99846285Y-160333320D01*
X99975533Y-160626123D01*
X100675806Y-160894388D01*
X101425435Y-160874250D01*
X102024467Y-160626123D01*
X102153715Y-160333320D01*
X101000000Y-159179605D01*
X99846285Y-160333320D01*
X97621591Y-160333320D01*
X97638464Y-160250000D01*
X97638464Y-158675806D01*
X99105612Y-158675806D01*
X99125750Y-159425435D01*
X99373877Y-160024467D01*
X99666680Y-160153715D01*
X100820395Y-159000000D01*
X101179605Y-159000000D01*
X102333320Y-160153715D01*
X102626123Y-160024467D01*
X102894388Y-159324194D01*
X102874250Y-158574565D01*
X102626123Y-157975533D01*
X102333320Y-157846285D01*
X101179605Y-159000000D01*
X100820395Y-159000000D01*
X99666680Y-157846285D01*
X99373877Y-157975533D01*
X99105612Y-158675806D01*
X97638464Y-158675806D01*
X97638464Y-157750000D01*
X97622787Y-157666680D01*
X99846285Y-157666680D01*
X101000000Y-158820395D01*
X102070395Y-157750000D01*
X104361536Y-157750000D01*
X104361536Y-160250000D01*
X104388103Y-160391190D01*
X104471546Y-160520865D01*
X104598866Y-160607859D01*
X104750000Y-160638464D01*
X107250000Y-160638464D01*
X107391190Y-160611897D01*
X107520865Y-160528454D01*
X107607859Y-160401134D01*
X107621591Y-160333320D01*
X109846285Y-160333320D01*
X109975533Y-160626123D01*
X110675806Y-160894388D01*
X111425435Y-160874250D01*
X112024467Y-160626123D01*
X112153715Y-160333320D01*
X111000000Y-159179605D01*
X109846285Y-160333320D01*
X107621591Y-160333320D01*
X107638464Y-160250000D01*
X107638464Y-158675806D01*
X109105612Y-158675806D01*
X109125750Y-159425435D01*
X109373877Y-160024467D01*
X109666680Y-160153715D01*
X110820395Y-159000000D01*
X111179605Y-159000000D01*
X112333320Y-160153715D01*
X112626123Y-160024467D01*
X112894388Y-159324194D01*
X112874250Y-158574565D01*
X112626123Y-157975533D01*
X112333320Y-157846285D01*
X111179605Y-159000000D01*
X110820395Y-159000000D01*
X109666680Y-157846285D01*
X109373877Y-157975533D01*
X109105612Y-158675806D01*
X107638464Y-158675806D01*
X107638464Y-157750000D01*
X107622787Y-157666680D01*
X109846285Y-157666680D01*
X111000000Y-158820395D01*
X112070395Y-157750000D01*
X114361536Y-157750000D01*
X114361536Y-160250000D01*
X114388103Y-160391190D01*
X114471546Y-160520865D01*
X114598866Y-160607859D01*
X114750000Y-160638464D01*
X117250000Y-160638464D01*
X117391190Y-160611897D01*
X117520865Y-160528454D01*
X117607859Y-160401134D01*
X117621591Y-160333320D01*
X119846285Y-160333320D01*
X119975533Y-160626123D01*
X120675806Y-160894388D01*
X121425435Y-160874250D01*
X122024467Y-160626123D01*
X122153715Y-160333320D01*
X121000000Y-159179605D01*
X119846285Y-160333320D01*
X117621591Y-160333320D01*
X117638464Y-160250000D01*
X117638464Y-158675806D01*
X119105612Y-158675806D01*
X119125750Y-159425435D01*
X119373877Y-160024467D01*
X119666680Y-160153715D01*
X120820395Y-159000000D01*
X119666680Y-157846285D01*
X119373877Y-157975533D01*
X119105612Y-158675806D01*
X117638464Y-158675806D01*
X117638464Y-157750000D01*
X117611897Y-157608810D01*
X117528454Y-157479135D01*
X117401134Y-157392141D01*
X117250000Y-157361536D01*
X114750000Y-157361536D01*
X114608810Y-157388103D01*
X114479135Y-157471546D01*
X114392141Y-157598866D01*
X114361536Y-157750000D01*
X112070395Y-157750000D01*
X112153715Y-157666680D01*
X112024467Y-157373877D01*
X111324194Y-157105612D01*
X110574565Y-157125750D01*
X109975533Y-157373877D01*
X109846285Y-157666680D01*
X107622787Y-157666680D01*
X107611897Y-157608810D01*
X107528454Y-157479135D01*
X107401134Y-157392141D01*
X107250000Y-157361536D01*
X106457200Y-157361536D01*
X106457200Y-149788400D01*
X106422398Y-149613437D01*
X106323633Y-149465625D01*
X106323825Y-149244839D01*
X106213850Y-148978679D01*
X106010392Y-148774865D01*
X105744424Y-148664426D01*
X105456439Y-148664175D01*
X105190279Y-148774150D01*
X104986465Y-148977608D01*
X104876026Y-149243576D01*
X104875775Y-149531561D01*
X104985750Y-149797721D01*
X105189208Y-150001535D01*
X105455176Y-150111974D01*
X105542800Y-150112050D01*
X105542800Y-157361536D01*
X104750000Y-157361536D01*
X104608810Y-157388103D01*
X104479135Y-157471546D01*
X104392141Y-157598866D01*
X104361536Y-157750000D01*
X102070395Y-157750000D01*
X102153715Y-157666680D01*
X102024467Y-157373877D01*
X101324194Y-157105612D01*
X100574565Y-157125750D01*
X99975533Y-157373877D01*
X99846285Y-157666680D01*
X97622787Y-157666680D01*
X97611897Y-157608810D01*
X97528454Y-157479135D01*
X97401134Y-157392141D01*
X97250000Y-157361536D01*
X96457200Y-157361536D01*
X96457200Y-149966629D01*
X96513335Y-149910592D01*
X96623774Y-149644624D01*
X96624025Y-149356639D01*
X96514050Y-149090479D01*
X96310592Y-148886665D01*
X96044624Y-148776226D01*
X95756639Y-148775975D01*
X95490479Y-148885950D01*
X95286665Y-149089408D01*
X95176226Y-149355376D01*
X95175975Y-149643361D01*
X95285950Y-149909521D01*
X95489408Y-150113335D01*
X95542800Y-150135505D01*
X95542800Y-157361536D01*
X94750000Y-157361536D01*
X94608810Y-157388103D01*
X94479135Y-157471546D01*
X94392141Y-157598866D01*
X94361536Y-157750000D01*
X92070395Y-157750000D01*
X92153715Y-157666680D01*
X92024467Y-157373877D01*
X91324194Y-157105612D01*
X90574565Y-157125750D01*
X89975533Y-157373877D01*
X89846285Y-157666680D01*
X87622787Y-157666680D01*
X87611897Y-157608810D01*
X87528454Y-157479135D01*
X87401134Y-157392141D01*
X87250000Y-157361536D01*
X86457200Y-157361536D01*
X86457200Y-149966629D01*
X86513335Y-149910592D01*
X86623774Y-149644624D01*
X86624025Y-149356639D01*
X86514050Y-149090479D01*
X86310592Y-148886665D01*
X86044624Y-148776226D01*
X85756639Y-148775975D01*
X85490479Y-148885950D01*
X85286665Y-149089408D01*
X85176226Y-149355376D01*
X85175975Y-149643361D01*
X85285950Y-149909521D01*
X85489408Y-150113335D01*
X85542800Y-150135505D01*
X85542800Y-157361536D01*
X84750000Y-157361536D01*
X84608810Y-157388103D01*
X84479135Y-157471546D01*
X84392141Y-157598866D01*
X84361536Y-157750000D01*
X82070395Y-157750000D01*
X82153715Y-157666680D01*
X82024467Y-157373877D01*
X81324194Y-157105612D01*
X80574565Y-157125750D01*
X79975533Y-157373877D01*
X79846285Y-157666680D01*
X77622787Y-157666680D01*
X77611897Y-157608810D01*
X77528454Y-157479135D01*
X77401134Y-157392141D01*
X77250000Y-157361536D01*
X76457200Y-157361536D01*
X76457200Y-149788400D01*
X76422398Y-149613437D01*
X76323633Y-149465625D01*
X76323825Y-149244839D01*
X76213850Y-148978679D01*
X76010392Y-148774865D01*
X75744424Y-148664426D01*
X75456439Y-148664175D01*
X75190279Y-148774150D01*
X74986465Y-148977608D01*
X74876026Y-149243576D01*
X74875775Y-149531561D01*
X74985750Y-149797721D01*
X75189208Y-150001535D01*
X75455176Y-150111974D01*
X75542800Y-150112050D01*
X75542800Y-157361536D01*
X74750000Y-157361536D01*
X74608810Y-157388103D01*
X74479135Y-157471546D01*
X74392141Y-157598866D01*
X74361536Y-157750000D01*
X72070395Y-157750000D01*
X72153715Y-157666680D01*
X72024467Y-157373877D01*
X71324194Y-157105612D01*
X70574565Y-157125750D01*
X69975533Y-157373877D01*
X69846285Y-157666680D01*
X67622787Y-157666680D01*
X67611897Y-157608810D01*
X67528454Y-157479135D01*
X67401134Y-157392141D01*
X67250000Y-157361536D01*
X66457200Y-157361536D01*
X66457200Y-150110600D01*
X66422398Y-149935637D01*
X66323289Y-149787311D01*
X66113233Y-149577255D01*
X66113425Y-149356639D01*
X66003450Y-149090479D01*
X65799992Y-148886665D01*
X65534024Y-148776226D01*
X65246039Y-148775975D01*
X64979879Y-148885950D01*
X64776065Y-149089408D01*
X64665626Y-149355376D01*
X64665375Y-149643361D01*
X64775350Y-149909521D01*
X64978808Y-150113335D01*
X65244776Y-150223774D01*
X65466790Y-150223968D01*
X65542800Y-150299978D01*
X65542800Y-157361536D01*
X64750000Y-157361536D01*
X64608810Y-157388103D01*
X64479135Y-157471546D01*
X64392141Y-157598866D01*
X64361536Y-157750000D01*
X62070395Y-157750000D01*
X62153715Y-157666680D01*
X62024467Y-157373877D01*
X61324194Y-157105612D01*
X60574565Y-157125750D01*
X59975533Y-157373877D01*
X59846285Y-157666680D01*
X57622787Y-157666680D01*
X57611897Y-157608810D01*
X57528454Y-157479135D01*
X57401134Y-157392141D01*
X57250000Y-157361536D01*
X56457200Y-157361536D01*
X56457200Y-150003800D01*
X56422398Y-149828837D01*
X56323289Y-149680511D01*
X56220033Y-149577255D01*
X56220225Y-149356639D01*
X56110250Y-149090479D01*
X55906792Y-148886665D01*
X55640824Y-148776226D01*
X55352839Y-148775975D01*
X55086679Y-148885950D01*
X54882865Y-149089408D01*
X54772426Y-149355376D01*
X54772175Y-149643361D01*
X54882150Y-149909521D01*
X55085608Y-150113335D01*
X55351576Y-150223774D01*
X55542800Y-150223941D01*
X55542800Y-157361536D01*
X54750000Y-157361536D01*
X54608810Y-157388103D01*
X54479135Y-157471546D01*
X54392141Y-157598866D01*
X54361536Y-157750000D01*
X52070395Y-157750000D01*
X52153715Y-157666680D01*
X52024467Y-157373877D01*
X51324194Y-157105612D01*
X50574565Y-157125750D01*
X49975533Y-157373877D01*
X49846285Y-157666680D01*
X47622787Y-157666680D01*
X47611897Y-157608810D01*
X47528454Y-157479135D01*
X47401134Y-157392141D01*
X47250000Y-157361536D01*
X44750000Y-157361536D01*
X44608810Y-157388103D01*
X44479135Y-157471546D01*
X44392141Y-157598866D01*
X44361536Y-157750000D01*
X42070395Y-157750000D01*
X42153715Y-157666680D01*
X42024467Y-157373877D01*
X41324194Y-157105612D01*
X40574565Y-157125750D01*
X39975533Y-157373877D01*
X39846285Y-157666680D01*
X37622787Y-157666680D01*
X37611897Y-157608810D01*
X37528454Y-157479135D01*
X37401134Y-157392141D01*
X37250000Y-157361536D01*
X36879790Y-157361536D01*
X49353913Y-144887413D01*
X49491564Y-144681404D01*
X49539901Y-144438400D01*
X49539900Y-144438395D01*
X49539900Y-136834400D01*
X53564700Y-136834400D01*
X53807704Y-136786064D01*
X54013713Y-136648413D01*
X55072310Y-135589815D01*
X55072313Y-135589813D01*
X55087701Y-135566783D01*
X55408917Y-135781413D01*
X55880000Y-135875117D01*
X56351083Y-135781413D01*
X56672299Y-135566783D01*
X56687687Y-135589813D01*
X61411585Y-140313710D01*
X61411587Y-140313713D01*
X61505861Y-140376705D01*
X61617595Y-140451364D01*
X61860600Y-140499700D01*
X103954474Y-140499700D01*
X120580369Y-157125594D01*
X120574565Y-157125750D01*
X119975533Y-157373877D01*
X119846285Y-157666680D01*
X121000000Y-158820395D01*
X121014143Y-158806253D01*
X121193748Y-158985858D01*
X121179605Y-159000000D01*
X122333320Y-160153715D01*
X122626123Y-160024467D01*
X122862419Y-159407644D01*
X123586600Y-160131825D01*
X123586600Y-160466600D01*
X123634936Y-160709604D01*
X123772587Y-160915613D01*
X124145287Y-161288313D01*
X124351295Y-161425964D01*
X124594300Y-161474300D01*
X164160700Y-161474300D01*
X164403704Y-161425964D01*
X164609713Y-161288313D01*
X165386679Y-160511347D01*
X165674151Y-160630716D01*
X166323003Y-160631282D01*
X166613306Y-160511332D01*
X167207787Y-161105813D01*
X167413796Y-161243464D01*
X167656800Y-161291800D01*
X179343200Y-161291800D01*
X179586204Y-161243464D01*
X179792213Y-161105813D01*
X180386679Y-160511347D01*
X180674151Y-160630716D01*
X181323003Y-160631282D01*
X181613306Y-160511332D01*
X182207787Y-161105813D01*
X182413796Y-161243464D01*
X182656800Y-161291800D01*
X194343200Y-161291800D01*
X194586204Y-161243464D01*
X194792213Y-161105813D01*
X195386679Y-160511347D01*
X195674151Y-160630716D01*
X196323003Y-160631282D01*
X196922680Y-160383501D01*
X197381888Y-159925093D01*
X197567591Y-159477870D01*
X199086583Y-159477870D01*
X199453166Y-160365069D01*
X200131361Y-161044449D01*
X201017919Y-161412580D01*
X201977870Y-161413417D01*
X202865069Y-161046834D01*
X203544449Y-160368639D01*
X203912580Y-159482081D01*
X203913417Y-158522130D01*
X203546834Y-157634931D01*
X202868639Y-156955551D01*
X201982081Y-156587420D01*
X201022130Y-156586583D01*
X200134931Y-156953166D01*
X199455551Y-157631361D01*
X199087420Y-158517919D01*
X199086583Y-159477870D01*
X197567591Y-159477870D01*
X197630716Y-159325849D01*
X197631282Y-158676997D01*
X197383501Y-158077320D01*
X196925093Y-157618112D01*
X196325849Y-157369284D01*
X195676997Y-157368718D01*
X195077320Y-157616499D01*
X194618112Y-158074907D01*
X194369284Y-158674151D01*
X194368718Y-159323003D01*
X194488668Y-159613306D01*
X194080174Y-160021800D01*
X192285012Y-160021800D01*
X192381888Y-159925093D01*
X192630716Y-159325849D01*
X192631282Y-158676997D01*
X192383501Y-158077320D01*
X191925093Y-157618112D01*
X191325849Y-157369284D01*
X190676997Y-157368718D01*
X190077320Y-157616499D01*
X189618112Y-158074907D01*
X189369284Y-158674151D01*
X189368718Y-159323003D01*
X189616499Y-159922680D01*
X189715446Y-160021800D01*
X187638464Y-160021800D01*
X187638464Y-157750000D01*
X187611897Y-157608810D01*
X187528454Y-157479135D01*
X187401134Y-157392141D01*
X187250000Y-157361536D01*
X184750000Y-157361536D01*
X184608810Y-157388103D01*
X184479135Y-157471546D01*
X184392141Y-157598866D01*
X184361536Y-157750000D01*
X184361536Y-160021800D01*
X182919826Y-160021800D01*
X182511347Y-159613321D01*
X182630716Y-159325849D01*
X182631282Y-158676997D01*
X182383501Y-158077320D01*
X181925093Y-157618112D01*
X181325849Y-157369284D01*
X180676997Y-157368718D01*
X180077320Y-157616499D01*
X179618112Y-158074907D01*
X179369284Y-158674151D01*
X179368718Y-159323003D01*
X179488668Y-159613306D01*
X179080174Y-160021800D01*
X177285012Y-160021800D01*
X177381888Y-159925093D01*
X177630716Y-159325849D01*
X177631282Y-158676997D01*
X177383501Y-158077320D01*
X176925093Y-157618112D01*
X176325849Y-157369284D01*
X175676997Y-157368718D01*
X175077320Y-157616499D01*
X174618112Y-158074907D01*
X174369284Y-158674151D01*
X174368718Y-159323003D01*
X174616499Y-159922680D01*
X174715446Y-160021800D01*
X172638464Y-160021800D01*
X172638464Y-157750000D01*
X172611897Y-157608810D01*
X172528454Y-157479135D01*
X172401134Y-157392141D01*
X172250000Y-157361536D01*
X169750000Y-157361536D01*
X169608810Y-157388103D01*
X169479135Y-157471546D01*
X169392141Y-157598866D01*
X169361536Y-157750000D01*
X169361536Y-160021800D01*
X167919826Y-160021800D01*
X167511347Y-159613321D01*
X167630716Y-159325849D01*
X167631282Y-158676997D01*
X167383501Y-158077320D01*
X166925093Y-157618112D01*
X166325849Y-157369284D01*
X165676997Y-157368718D01*
X165077320Y-157616499D01*
X164618112Y-158074907D01*
X164369284Y-158674151D01*
X164368718Y-159323003D01*
X164488668Y-159613306D01*
X163897674Y-160204300D01*
X162102194Y-160204300D01*
X162381888Y-159925093D01*
X162630716Y-159325849D01*
X162631282Y-158676997D01*
X162383501Y-158077320D01*
X161925093Y-157618112D01*
X161325849Y-157369284D01*
X160676997Y-157368718D01*
X160077320Y-157616499D01*
X159618112Y-158074907D01*
X159369284Y-158674151D01*
X159368718Y-159323003D01*
X159616499Y-159922680D01*
X159897628Y-160204300D01*
X157638464Y-160204300D01*
X157638464Y-157750000D01*
X157611897Y-157608810D01*
X157528454Y-157479135D01*
X157401134Y-157392141D01*
X157250000Y-157361536D01*
X154750000Y-157361536D01*
X154608810Y-157388103D01*
X154479135Y-157471546D01*
X154392141Y-157598866D01*
X154361536Y-157750000D01*
X154361536Y-160204300D01*
X152102194Y-160204300D01*
X152381888Y-159925093D01*
X152630716Y-159325849D01*
X152631282Y-158676997D01*
X152383501Y-158077320D01*
X151925093Y-157618112D01*
X151325849Y-157369284D01*
X150676997Y-157368718D01*
X150077320Y-157616499D01*
X149618112Y-158074907D01*
X149369284Y-158674151D01*
X149368718Y-159323003D01*
X149616499Y-159922680D01*
X149897628Y-160204300D01*
X147102194Y-160204300D01*
X147381888Y-159925093D01*
X147630716Y-159325849D01*
X147631282Y-158676997D01*
X147383501Y-158077320D01*
X146925093Y-157618112D01*
X146325849Y-157369284D01*
X145676997Y-157368718D01*
X145077320Y-157616499D01*
X144618112Y-158074907D01*
X144369284Y-158674151D01*
X144368718Y-159323003D01*
X144616499Y-159922680D01*
X144897628Y-160204300D01*
X142638464Y-160204300D01*
X142638464Y-159063023D01*
X142651000Y-159000000D01*
X142651000Y-156909566D01*
X150787433Y-148773133D01*
X151145325Y-148237510D01*
X151271000Y-147605700D01*
X151271000Y-146240000D01*
X151145325Y-145608190D01*
X150787433Y-145072567D01*
X150251810Y-144714675D01*
X149620000Y-144589000D01*
X148988190Y-144714675D01*
X148452567Y-145072567D01*
X148094675Y-145608190D01*
X147969000Y-146240000D01*
X147969000Y-146921834D01*
X139832567Y-155058267D01*
X139474675Y-155593889D01*
X139474675Y-155593890D01*
X139349000Y-156225700D01*
X139349000Y-159000000D01*
X139361536Y-159063023D01*
X139361536Y-160204300D01*
X137102194Y-160204300D01*
X137381888Y-159925093D01*
X137630716Y-159325849D01*
X137631282Y-158676997D01*
X137383501Y-158077320D01*
X136925093Y-157618112D01*
X136325849Y-157369284D01*
X135676997Y-157368718D01*
X135077320Y-157616499D01*
X134618112Y-158074907D01*
X134369284Y-158674151D01*
X134368718Y-159323003D01*
X134616499Y-159922680D01*
X134897628Y-160204300D01*
X132112258Y-160204300D01*
X132167433Y-160167433D01*
X138584934Y-153749933D01*
X138942825Y-153214310D01*
X139068500Y-152582500D01*
X139068500Y-149053493D01*
X140618761Y-149053493D01*
X140828563Y-149561251D01*
X141216705Y-149950072D01*
X141724097Y-150160759D01*
X142273493Y-150161239D01*
X142781251Y-149951437D01*
X143170072Y-149563295D01*
X143380759Y-149055903D01*
X143381239Y-148506507D01*
X143171437Y-147998749D01*
X142783295Y-147609928D01*
X142275903Y-147399241D01*
X141726507Y-147398761D01*
X141218749Y-147608563D01*
X140829928Y-147996705D01*
X140619241Y-148504097D01*
X140618761Y-149053493D01*
X139068500Y-149053493D01*
X139068500Y-145035100D01*
X138942825Y-144403290D01*
X138584933Y-143867667D01*
X136150759Y-141433493D01*
X140618761Y-141433493D01*
X140828563Y-141941251D01*
X141216705Y-142330072D01*
X141724097Y-142540759D01*
X142273493Y-142541239D01*
X142781251Y-142331437D01*
X143170072Y-141943295D01*
X143380759Y-141435903D01*
X143381239Y-140886507D01*
X143171437Y-140378749D01*
X142783295Y-139989928D01*
X142275903Y-139779241D01*
X141726507Y-139778761D01*
X141218749Y-139988563D01*
X140829928Y-140376705D01*
X140619241Y-140884097D01*
X140618761Y-141433493D01*
X136150759Y-141433493D01*
X134709833Y-139992567D01*
X134174211Y-139634675D01*
X133542400Y-139509000D01*
X127000000Y-139509000D01*
X126742225Y-139560275D01*
X134229283Y-132073217D01*
X134392045Y-132140802D01*
X134845963Y-132141198D01*
X135265480Y-131967857D01*
X135586729Y-131647169D01*
X135760802Y-131227955D01*
X135760803Y-131225963D01*
X140858802Y-131225963D01*
X141032143Y-131645480D01*
X141352831Y-131966729D01*
X141772045Y-132140802D01*
X142225963Y-132141198D01*
X142645480Y-131967857D01*
X142966729Y-131647169D01*
X143140802Y-131227955D01*
X143141198Y-130774037D01*
X142967857Y-130354520D01*
X142647169Y-130033271D01*
X142227955Y-129859198D01*
X141774037Y-129858802D01*
X141354520Y-130032143D01*
X141033271Y-130352831D01*
X140859198Y-130772045D01*
X140858802Y-131225963D01*
X135760803Y-131225963D01*
X135761198Y-130774037D01*
X135693150Y-130609350D01*
X137581400Y-128721100D01*
X146658600Y-128721100D01*
X148546783Y-130609283D01*
X148479198Y-130772045D01*
X148478802Y-131225963D01*
X148652143Y-131645480D01*
X148972831Y-131966729D01*
X149392045Y-132140802D01*
X149845963Y-132141198D01*
X150265480Y-131967857D01*
X150586729Y-131647169D01*
X150655064Y-131482600D01*
X154203900Y-131482600D01*
X154388583Y-131445864D01*
X154545150Y-131341250D01*
X162793847Y-123092552D01*
X162793850Y-123092550D01*
X162873173Y-122973834D01*
X163181784Y-123282983D01*
X163634065Y-123470786D01*
X164123787Y-123471213D01*
X164521500Y-123306882D01*
X164521500Y-131250822D01*
X163593255Y-132179067D01*
X163372639Y-132178875D01*
X163106479Y-132288850D01*
X162902665Y-132492308D01*
X162792226Y-132758276D01*
X162791975Y-133046261D01*
X162901950Y-133312421D01*
X163105408Y-133516235D01*
X163371376Y-133626674D01*
X163659361Y-133626925D01*
X163925521Y-133516950D01*
X164129335Y-133313492D01*
X164239774Y-133047524D01*
X164239968Y-132825510D01*
X165301989Y-131763489D01*
X165401098Y-131615163D01*
X165435900Y-131440200D01*
X165435900Y-122996600D01*
X165721784Y-123282983D01*
X166174065Y-123470786D01*
X166663787Y-123471213D01*
X167116395Y-123284200D01*
X167462983Y-122938216D01*
X167650786Y-122485935D01*
X167651213Y-121996213D01*
X167464200Y-121543605D01*
X167118216Y-121197017D01*
X166665935Y-121009214D01*
X166176213Y-121008787D01*
X165723605Y-121195800D01*
X165435900Y-121483004D01*
X165435900Y-120456600D01*
X165721784Y-120742983D01*
X166174065Y-120930786D01*
X166663787Y-120931213D01*
X167116395Y-120744200D01*
X167451651Y-120409529D01*
X168250752Y-121208631D01*
X167917017Y-121541784D01*
X167729214Y-121994065D01*
X167728787Y-122483787D01*
X167915800Y-122936395D01*
X168261784Y-123282983D01*
X168714065Y-123470786D01*
X169203787Y-123471213D01*
X169656395Y-123284200D01*
X170002983Y-122938216D01*
X170190786Y-122485935D01*
X170191213Y-121996213D01*
X170004200Y-121543605D01*
X169809136Y-121348200D01*
X169961622Y-121348200D01*
X170368465Y-121755043D01*
X170269214Y-121994065D01*
X170268787Y-122483787D01*
X170455800Y-122936395D01*
X170801784Y-123282983D01*
X171254065Y-123470786D01*
X171743787Y-123471213D01*
X172196395Y-123284200D01*
X172542983Y-122938216D01*
X172730786Y-122485935D01*
X172731213Y-121996213D01*
X172544200Y-121543605D01*
X172237331Y-121236200D01*
X172389622Y-121236200D01*
X172908465Y-121755043D01*
X172809214Y-121994065D01*
X172808787Y-122483787D01*
X172995800Y-122936395D01*
X173341784Y-123282983D01*
X173794065Y-123470786D01*
X174283787Y-123471213D01*
X174718900Y-123291429D01*
X174718900Y-130410021D01*
X173188455Y-131940467D01*
X172967839Y-131940275D01*
X172701679Y-132050250D01*
X172497865Y-132253708D01*
X172387426Y-132519676D01*
X172387175Y-132807661D01*
X172497150Y-133073821D01*
X172696551Y-133273571D01*
X169625322Y-136344800D01*
X140531500Y-136344800D01*
X140356537Y-136379602D01*
X140208211Y-136478711D01*
X138857955Y-137828967D01*
X138637339Y-137828775D01*
X138371179Y-137938750D01*
X138167365Y-138142208D01*
X138056926Y-138408176D01*
X138056675Y-138696161D01*
X138166650Y-138962321D01*
X138370108Y-139166135D01*
X138636076Y-139276574D01*
X138924061Y-139276825D01*
X139190221Y-139166850D01*
X139394035Y-138963392D01*
X139504474Y-138697424D01*
X139504668Y-138475410D01*
X140529033Y-137451045D01*
X140528975Y-137517161D01*
X140638950Y-137783321D01*
X140842408Y-137987135D01*
X141108376Y-138097574D01*
X141396361Y-138097825D01*
X141662521Y-137987850D01*
X141819645Y-137831000D01*
X146039374Y-137831000D01*
X145867165Y-138002908D01*
X145756726Y-138268876D01*
X145756475Y-138556861D01*
X145866450Y-138823021D01*
X146069908Y-139026835D01*
X146335876Y-139137274D01*
X146623861Y-139137525D01*
X146890021Y-139027550D01*
X147047145Y-138870700D01*
X169169100Y-138870700D01*
X169344063Y-138835898D01*
X169492389Y-138736789D01*
X176095705Y-132133473D01*
X176307876Y-132221574D01*
X176595861Y-132221825D01*
X176862021Y-132111850D01*
X177065835Y-131908392D01*
X177176274Y-131642424D01*
X177176468Y-131420410D01*
X181983289Y-126613589D01*
X182082398Y-126465263D01*
X182117200Y-126290300D01*
X182117200Y-123383033D01*
X182356395Y-123284200D01*
X182588100Y-123052899D01*
X182588100Y-128708246D01*
X182431965Y-128864108D01*
X182321526Y-129130076D01*
X182321275Y-129418061D01*
X182431250Y-129684221D01*
X182627254Y-129880568D01*
X181146815Y-131361007D01*
X181136192Y-131350365D01*
X180870224Y-131239926D01*
X180582239Y-131239675D01*
X180316079Y-131349650D01*
X180112265Y-131553108D01*
X180001826Y-131819076D01*
X180001575Y-132107061D01*
X180111550Y-132373221D01*
X180315008Y-132577035D01*
X180580976Y-132687474D01*
X180868961Y-132687725D01*
X181135121Y-132577750D01*
X181317514Y-132395675D01*
X181365663Y-132386098D01*
X181513989Y-132286989D01*
X185793289Y-128007689D01*
X185892398Y-127859363D01*
X185927200Y-127684400D01*
X185927200Y-123168199D01*
X186041784Y-123282983D01*
X186494065Y-123470786D01*
X186983787Y-123471213D01*
X187436395Y-123284200D01*
X187782983Y-122938216D01*
X187970786Y-122485935D01*
X187971213Y-121996213D01*
X187784200Y-121543605D01*
X187438216Y-121197017D01*
X186985935Y-121009214D01*
X186496213Y-121008787D01*
X186043605Y-121195800D01*
X185927200Y-121312002D01*
X185927200Y-121159378D01*
X186255043Y-120831535D01*
X186494065Y-120930786D01*
X186983787Y-120931213D01*
X187436395Y-120744200D01*
X187782983Y-120398216D01*
X187970786Y-119945935D01*
X187971213Y-119456213D01*
X187784200Y-119003605D01*
X187438216Y-118657017D01*
X186985935Y-118469214D01*
X186496213Y-118468787D01*
X186043605Y-118655800D01*
X185697017Y-119001784D01*
X185509214Y-119454065D01*
X185508787Y-119943787D01*
X185608444Y-120184978D01*
X185146711Y-120646711D01*
X185047602Y-120795037D01*
X185012800Y-120970000D01*
X185012800Y-121311801D01*
X184898216Y-121197017D01*
X184445935Y-121009214D01*
X183956213Y-121008787D01*
X183503605Y-121195800D01*
X183502500Y-121196903D01*
X183502500Y-120743280D01*
X183954065Y-120930786D01*
X184443787Y-120931213D01*
X184896395Y-120744200D01*
X185242983Y-120398216D01*
X185430786Y-119945935D01*
X185431213Y-119456213D01*
X185244200Y-119003605D01*
X184898216Y-118657017D01*
X184445935Y-118469214D01*
X183956213Y-118468787D01*
X183503605Y-118655800D01*
X183502500Y-118656903D01*
X183502500Y-101767061D01*
X183667775Y-101767061D01*
X183777750Y-102033221D01*
X183981208Y-102237035D01*
X184247176Y-102347474D01*
X184535161Y-102347725D01*
X184801321Y-102237750D01*
X184933001Y-102106300D01*
X187036300Y-102106300D01*
X187220983Y-102069564D01*
X187377550Y-101964950D01*
X194364630Y-94977870D01*
X199086583Y-94977870D01*
X199453166Y-95865069D01*
X200131361Y-96544449D01*
X201017919Y-96912580D01*
X201977870Y-96913417D01*
X202865069Y-96546834D01*
X203544449Y-95868639D01*
X203912580Y-94982081D01*
X203913417Y-94022130D01*
X203546834Y-93134931D01*
X202868639Y-92455551D01*
X201982081Y-92087420D01*
X201022130Y-92086583D01*
X200134931Y-92453166D01*
X199455551Y-93131361D01*
X199087420Y-94017919D01*
X199086583Y-94977870D01*
X194364630Y-94977870D01*
X196440425Y-92902075D01*
X196654065Y-92990786D01*
X197143787Y-92991213D01*
X197596395Y-92804200D01*
X197942983Y-92458216D01*
X198130786Y-92005935D01*
X198131213Y-91516213D01*
X197944200Y-91063605D01*
X197598216Y-90717017D01*
X197382600Y-90627486D01*
X197382600Y-90352538D01*
X197596395Y-90264200D01*
X197942983Y-89918216D01*
X198130786Y-89465935D01*
X198131213Y-88976213D01*
X197944200Y-88523605D01*
X197598216Y-88177017D01*
X197145935Y-87989214D01*
X196656213Y-87988787D01*
X196203605Y-88175800D01*
X195857017Y-88521784D01*
X195773819Y-88722148D01*
X195655259Y-88435920D01*
X195403958Y-88355647D01*
X194539605Y-89220000D01*
X195403958Y-90084353D01*
X195655259Y-90004080D01*
X195765950Y-89698940D01*
X195855800Y-89916395D01*
X196201784Y-90262983D01*
X196417400Y-90352514D01*
X196417400Y-90627462D01*
X196203605Y-90715800D01*
X195857017Y-91061784D01*
X195773819Y-91262148D01*
X195655259Y-90975920D01*
X195403958Y-90895647D01*
X194539605Y-91760000D01*
X194553748Y-91774143D01*
X194374143Y-91953748D01*
X194360000Y-91939605D01*
X193495647Y-92803958D01*
X193575920Y-93055259D01*
X194131279Y-93256718D01*
X194721458Y-93230315D01*
X194765377Y-93212123D01*
X186836400Y-101141100D01*
X184932899Y-101141100D01*
X184802392Y-101010365D01*
X184536424Y-100899926D01*
X184248439Y-100899675D01*
X183982279Y-101009650D01*
X183778465Y-101213108D01*
X183668026Y-101479076D01*
X183667775Y-101767061D01*
X183502500Y-101767061D01*
X183502500Y-97222878D01*
X186309589Y-94415789D01*
X186408698Y-94267463D01*
X186443500Y-94092500D01*
X186443500Y-92003787D01*
X188048787Y-92003787D01*
X188235800Y-92456395D01*
X188581784Y-92802983D01*
X189034065Y-92990786D01*
X189523787Y-92991213D01*
X189976395Y-92804200D01*
X190322983Y-92458216D01*
X190510786Y-92005935D01*
X190510787Y-92003787D01*
X190588787Y-92003787D01*
X190775800Y-92456395D01*
X191121784Y-92802983D01*
X191574065Y-92990786D01*
X192063787Y-92991213D01*
X192516395Y-92804200D01*
X192862983Y-92458216D01*
X192946181Y-92257852D01*
X193064741Y-92544080D01*
X193316042Y-92624353D01*
X194180395Y-91760000D01*
X193316042Y-90895647D01*
X193064741Y-90975920D01*
X192954050Y-91281060D01*
X192864200Y-91063605D01*
X192518216Y-90717017D01*
X192065935Y-90529214D01*
X191576213Y-90528787D01*
X191123605Y-90715800D01*
X190777017Y-91061784D01*
X190589214Y-91514065D01*
X190588787Y-92003787D01*
X190510787Y-92003787D01*
X190511213Y-91516213D01*
X190324200Y-91063605D01*
X189978216Y-90717017D01*
X189525935Y-90529214D01*
X189036213Y-90528787D01*
X188583605Y-90715800D01*
X188237017Y-91061784D01*
X188049214Y-91514065D01*
X188048787Y-92003787D01*
X186443500Y-92003787D01*
X186443500Y-89463787D01*
X188048787Y-89463787D01*
X188235800Y-89916395D01*
X188581784Y-90262983D01*
X189034065Y-90450786D01*
X189523787Y-90451213D01*
X189976395Y-90264200D01*
X190322983Y-89918216D01*
X190510786Y-89465935D01*
X190510787Y-89463787D01*
X190588787Y-89463787D01*
X190775800Y-89916395D01*
X191121784Y-90262983D01*
X191574065Y-90450786D01*
X192063787Y-90451213D01*
X192516395Y-90264200D01*
X192516637Y-90263958D01*
X193495647Y-90263958D01*
X193567852Y-90490000D01*
X193495647Y-90716042D01*
X194360000Y-91580395D01*
X195224353Y-90716042D01*
X195152148Y-90490000D01*
X195224353Y-90263958D01*
X194360000Y-89399605D01*
X193495647Y-90263958D01*
X192516637Y-90263958D01*
X192862983Y-89918216D01*
X192946181Y-89717852D01*
X193064741Y-90004080D01*
X193316042Y-90084353D01*
X194180395Y-89220000D01*
X193316042Y-88355647D01*
X193064741Y-88435920D01*
X192954050Y-88741060D01*
X192864200Y-88523605D01*
X192518216Y-88177017D01*
X192515868Y-88176042D01*
X193495647Y-88176042D01*
X194360000Y-89040395D01*
X195224353Y-88176042D01*
X195144080Y-87924741D01*
X194588721Y-87723282D01*
X193998542Y-87749685D01*
X193575920Y-87924741D01*
X193495647Y-88176042D01*
X192515868Y-88176042D01*
X192065935Y-87989214D01*
X191576213Y-87988787D01*
X191123605Y-88175800D01*
X190777017Y-88521784D01*
X190589214Y-88974065D01*
X190588787Y-89463787D01*
X190510787Y-89463787D01*
X190511213Y-88976213D01*
X190324200Y-88523605D01*
X189978216Y-88177017D01*
X189525935Y-87989214D01*
X189036213Y-87988787D01*
X188583605Y-88175800D01*
X188237017Y-88521784D01*
X188049214Y-88974065D01*
X188048787Y-89463787D01*
X186443500Y-89463787D01*
X186443500Y-89429800D01*
X186408698Y-89254837D01*
X186309589Y-89106511D01*
X184669089Y-87466011D01*
X184520763Y-87366902D01*
X184345800Y-87332100D01*
X150070700Y-87332100D01*
X149895737Y-87366902D01*
X149747411Y-87466011D01*
X149124957Y-88088465D01*
X148885935Y-87989214D01*
X148396213Y-87988787D01*
X147943605Y-88175800D01*
X147597017Y-88521784D01*
X147409214Y-88974065D01*
X147408787Y-89463787D01*
X147595800Y-89916395D01*
X147941784Y-90262983D01*
X148182800Y-90363061D01*
X148182800Y-90616967D01*
X147943605Y-90715800D01*
X147597017Y-91061784D01*
X147409214Y-91514065D01*
X147408787Y-92003787D01*
X147595800Y-92456395D01*
X147941784Y-92802983D01*
X148320135Y-92960087D01*
X135286322Y-105993900D01*
X132540000Y-105993900D01*
X132365037Y-106028702D01*
X132296193Y-106074703D01*
X132283250Y-106043379D01*
X132079792Y-105839565D01*
X131813824Y-105729126D01*
X131525839Y-105728875D01*
X131259679Y-105838850D01*
X131157250Y-105941100D01*
X84553400Y-105941100D01*
X84378437Y-105975902D01*
X84230111Y-106075010D01*
X82376855Y-107928267D01*
X82156239Y-107928075D01*
X81890079Y-108038050D01*
X81686265Y-108241508D01*
X81575826Y-108507476D01*
X81575575Y-108795461D01*
X81685550Y-109061621D01*
X81768983Y-109145200D01*
X60581200Y-109145200D01*
X60406740Y-109179902D01*
X60406237Y-109180002D01*
X60257910Y-109279111D01*
X54876555Y-114660467D01*
X54655939Y-114660275D01*
X54496542Y-114726137D01*
X63475879Y-105746800D01*
X122194400Y-105746800D01*
X122369363Y-105711998D01*
X122517689Y-105612889D01*
X129166445Y-98964133D01*
X129387061Y-98964325D01*
X129653221Y-98854350D01*
X129857035Y-98650892D01*
X129967474Y-98384924D01*
X129967725Y-98096939D01*
X129857750Y-97830779D01*
X129654292Y-97626965D01*
X129388324Y-97516526D01*
X129100339Y-97516275D01*
X128834179Y-97626250D01*
X128630365Y-97829708D01*
X128519926Y-98095676D01*
X128519732Y-98317690D01*
X122005022Y-104832400D01*
X91548316Y-104832400D01*
X91555074Y-104816124D01*
X91555325Y-104528139D01*
X91457200Y-104290658D01*
X91457200Y-96138464D01*
X92250000Y-96138464D01*
X92391190Y-96111897D01*
X92520865Y-96028454D01*
X92607859Y-95901134D01*
X92621591Y-95833320D01*
X94846285Y-95833320D01*
X94975533Y-96126123D01*
X95675806Y-96394388D01*
X96425435Y-96374250D01*
X97024467Y-96126123D01*
X97153715Y-95833320D01*
X96000000Y-94679605D01*
X94846285Y-95833320D01*
X92621591Y-95833320D01*
X92638464Y-95750000D01*
X92638464Y-94175806D01*
X94105612Y-94175806D01*
X94125750Y-94925435D01*
X94373877Y-95524467D01*
X94666680Y-95653715D01*
X95820395Y-94500000D01*
X96179605Y-94500000D01*
X97333320Y-95653715D01*
X97626123Y-95524467D01*
X97894388Y-94824194D01*
X97874250Y-94074565D01*
X97626123Y-93475533D01*
X97333320Y-93346285D01*
X96179605Y-94500000D01*
X95820395Y-94500000D01*
X94666680Y-93346285D01*
X94373877Y-93475533D01*
X94105612Y-94175806D01*
X92638464Y-94175806D01*
X92638464Y-93250000D01*
X92622787Y-93166680D01*
X94846285Y-93166680D01*
X96000000Y-94320395D01*
X97070395Y-93250000D01*
X99361536Y-93250000D01*
X99361536Y-95750000D01*
X99388103Y-95891190D01*
X99471546Y-96020865D01*
X99598866Y-96107859D01*
X99750000Y-96138464D01*
X102250000Y-96138464D01*
X102391190Y-96111897D01*
X102520865Y-96028454D01*
X102607859Y-95901134D01*
X102638464Y-95750000D01*
X102638464Y-94925461D01*
X102653863Y-94922398D01*
X102802189Y-94823289D01*
X104147179Y-93478300D01*
X104372817Y-93478300D01*
X104105612Y-94175806D01*
X104125750Y-94925435D01*
X104373877Y-95524467D01*
X104666680Y-95653715D01*
X105820395Y-94500000D01*
X105806253Y-94485858D01*
X105985858Y-94306253D01*
X106000000Y-94320395D01*
X106014143Y-94306253D01*
X106193748Y-94485858D01*
X106179605Y-94500000D01*
X106193748Y-94514143D01*
X106014143Y-94693748D01*
X106000000Y-94679605D01*
X104846285Y-95833320D01*
X104975533Y-96126123D01*
X105675806Y-96394388D01*
X106425435Y-96374250D01*
X107024467Y-96126123D01*
X107072200Y-96017987D01*
X107072200Y-96412922D01*
X101227555Y-102257567D01*
X101006939Y-102257375D01*
X100740779Y-102367350D01*
X100536965Y-102570808D01*
X100426526Y-102836776D01*
X100426275Y-103124761D01*
X100536250Y-103390921D01*
X100739708Y-103594735D01*
X101005676Y-103705174D01*
X101293661Y-103705425D01*
X101559821Y-103595450D01*
X101763635Y-103391992D01*
X101874074Y-103126024D01*
X101874268Y-102904010D01*
X107852689Y-96925589D01*
X107951798Y-96777263D01*
X107986600Y-96602300D01*
X107986600Y-93937700D01*
X107951798Y-93762737D01*
X107852689Y-93614411D01*
X107488278Y-93250000D01*
X109361536Y-93250000D01*
X109361536Y-95750000D01*
X109388103Y-95891190D01*
X109471546Y-96020865D01*
X109598866Y-96107859D01*
X109750000Y-96138464D01*
X110574539Y-96138464D01*
X110577602Y-96153863D01*
X110676711Y-96302189D01*
X110745800Y-96371278D01*
X110745800Y-102892046D01*
X110589665Y-103047908D01*
X110479226Y-103313876D01*
X110478975Y-103601861D01*
X110588950Y-103868021D01*
X110792408Y-104071835D01*
X111058376Y-104182274D01*
X111346361Y-104182525D01*
X111612521Y-104072550D01*
X111816335Y-103869092D01*
X111910066Y-103643361D01*
X118076775Y-103643361D01*
X118186750Y-103909521D01*
X118390208Y-104113335D01*
X118656176Y-104223774D01*
X118944161Y-104224025D01*
X119210321Y-104114050D01*
X119414135Y-103910592D01*
X119524574Y-103644624D01*
X119524768Y-103422611D01*
X121323289Y-101624090D01*
X121422398Y-101475763D01*
X121447433Y-101349900D01*
X121457200Y-101300800D01*
X121457200Y-96138464D01*
X122250000Y-96138464D01*
X122391190Y-96111897D01*
X122520865Y-96028454D01*
X122607859Y-95901134D01*
X122621591Y-95833320D01*
X124846285Y-95833320D01*
X124975533Y-96126123D01*
X125675806Y-96394388D01*
X126425435Y-96374250D01*
X127024467Y-96126123D01*
X127153715Y-95833320D01*
X126000000Y-94679605D01*
X124846285Y-95833320D01*
X122621591Y-95833320D01*
X122638464Y-95750000D01*
X122638464Y-94175806D01*
X124105612Y-94175806D01*
X124125750Y-94925435D01*
X124373877Y-95524467D01*
X124666680Y-95653715D01*
X125820395Y-94500000D01*
X126179605Y-94500000D01*
X127333320Y-95653715D01*
X127626123Y-95524467D01*
X127894388Y-94824194D01*
X127874250Y-94074565D01*
X127626123Y-93475533D01*
X127333320Y-93346285D01*
X126179605Y-94500000D01*
X125820395Y-94500000D01*
X124666680Y-93346285D01*
X124373877Y-93475533D01*
X124105612Y-94175806D01*
X122638464Y-94175806D01*
X122638464Y-93250000D01*
X122622787Y-93166680D01*
X124846285Y-93166680D01*
X126000000Y-94320395D01*
X127070395Y-93250000D01*
X129361536Y-93250000D01*
X129361536Y-95750000D01*
X129388103Y-95891190D01*
X129471546Y-96020865D01*
X129598866Y-96107859D01*
X129750000Y-96138464D01*
X132250000Y-96138464D01*
X132391190Y-96111897D01*
X132520865Y-96028454D01*
X132607859Y-95901134D01*
X132638464Y-95750000D01*
X132638464Y-93250000D01*
X132611897Y-93108810D01*
X132528454Y-92979135D01*
X132401134Y-92892141D01*
X132250000Y-92861536D01*
X129750000Y-92861536D01*
X129608810Y-92888103D01*
X129479135Y-92971546D01*
X129392141Y-93098866D01*
X129361536Y-93250000D01*
X127070395Y-93250000D01*
X127153715Y-93166680D01*
X127024467Y-92873877D01*
X126324194Y-92605612D01*
X125574565Y-92625750D01*
X124975533Y-92873877D01*
X124846285Y-93166680D01*
X122622787Y-93166680D01*
X122611897Y-93108810D01*
X122528454Y-92979135D01*
X122401134Y-92892141D01*
X122250000Y-92861536D01*
X119750000Y-92861536D01*
X119608810Y-92888103D01*
X119479135Y-92971546D01*
X119392141Y-93098866D01*
X119361536Y-93250000D01*
X119361536Y-95750000D01*
X119388103Y-95891190D01*
X119471546Y-96020865D01*
X119598866Y-96107859D01*
X119750000Y-96138464D01*
X120542800Y-96138464D01*
X120542800Y-101111421D01*
X118878055Y-102776167D01*
X118657439Y-102775975D01*
X118391279Y-102885950D01*
X118187465Y-103089408D01*
X118077026Y-103355376D01*
X118076775Y-103643361D01*
X111910066Y-103643361D01*
X111926774Y-103603124D01*
X111927025Y-103315139D01*
X111817050Y-103048979D01*
X111660200Y-102891855D01*
X111660200Y-96181900D01*
X111651560Y-96138464D01*
X112250000Y-96138464D01*
X112391190Y-96111897D01*
X112520865Y-96028454D01*
X112607859Y-95901134D01*
X112621591Y-95833320D01*
X114846285Y-95833320D01*
X114975533Y-96126123D01*
X115675806Y-96394388D01*
X116425435Y-96374250D01*
X117024467Y-96126123D01*
X117153715Y-95833320D01*
X116000000Y-94679605D01*
X114846285Y-95833320D01*
X112621591Y-95833320D01*
X112638464Y-95750000D01*
X112638464Y-94175806D01*
X114105612Y-94175806D01*
X114125750Y-94925435D01*
X114373877Y-95524467D01*
X114666680Y-95653715D01*
X115820395Y-94500000D01*
X116179605Y-94500000D01*
X117333320Y-95653715D01*
X117626123Y-95524467D01*
X117894388Y-94824194D01*
X117874250Y-94074565D01*
X117626123Y-93475533D01*
X117333320Y-93346285D01*
X116179605Y-94500000D01*
X115820395Y-94500000D01*
X114666680Y-93346285D01*
X114373877Y-93475533D01*
X114105612Y-94175806D01*
X112638464Y-94175806D01*
X112638464Y-93250000D01*
X112622787Y-93166680D01*
X114846285Y-93166680D01*
X116000000Y-94320395D01*
X117153715Y-93166680D01*
X117024467Y-92873877D01*
X116324194Y-92605612D01*
X115574565Y-92625750D01*
X114975533Y-92873877D01*
X114846285Y-93166680D01*
X112622787Y-93166680D01*
X112611897Y-93108810D01*
X112528454Y-92979135D01*
X112401134Y-92892141D01*
X112250000Y-92861536D01*
X109750000Y-92861536D01*
X109608810Y-92888103D01*
X109479135Y-92971546D01*
X109392141Y-93098866D01*
X109361536Y-93250000D01*
X107488278Y-93250000D01*
X106936089Y-92697811D01*
X106787763Y-92598702D01*
X106612800Y-92563900D01*
X103957800Y-92563900D01*
X103782837Y-92598702D01*
X103634510Y-92697811D01*
X102638464Y-93693858D01*
X102638464Y-93250000D01*
X102611897Y-93108810D01*
X102528454Y-92979135D01*
X102401134Y-92892141D01*
X102250000Y-92861536D01*
X99750000Y-92861536D01*
X99608810Y-92888103D01*
X99479135Y-92971546D01*
X99392141Y-93098866D01*
X99361536Y-93250000D01*
X97070395Y-93250000D01*
X97153715Y-93166680D01*
X97024467Y-92873877D01*
X96324194Y-92605612D01*
X95574565Y-92625750D01*
X94975533Y-92873877D01*
X94846285Y-93166680D01*
X92622787Y-93166680D01*
X92611897Y-93108810D01*
X92528454Y-92979135D01*
X92401134Y-92892141D01*
X92250000Y-92861536D01*
X89750000Y-92861536D01*
X89608810Y-92888103D01*
X89479135Y-92971546D01*
X89392141Y-93098866D01*
X89361536Y-93250000D01*
X89361536Y-95750000D01*
X89388103Y-95891190D01*
X89471546Y-96020865D01*
X89598866Y-96107859D01*
X89750000Y-96138464D01*
X90542800Y-96138464D01*
X90542800Y-104007445D01*
X90421779Y-104057450D01*
X90217965Y-104260908D01*
X90107526Y-104526876D01*
X90107275Y-104814861D01*
X90114522Y-104832400D01*
X63286500Y-104832400D01*
X63111537Y-104867202D01*
X62963210Y-104966311D01*
X51928511Y-116001011D01*
X51829402Y-116149337D01*
X51824192Y-116175529D01*
X51670448Y-115945435D01*
X51271083Y-115678587D01*
X50800000Y-115584883D01*
X50328917Y-115678587D01*
X49929552Y-115945435D01*
X49662704Y-116344800D01*
X49569000Y-116815883D01*
X49569000Y-116864117D01*
X49662704Y-117335200D01*
X49929552Y-117734565D01*
X50328917Y-118001413D01*
X50800000Y-118095117D01*
X51271083Y-118001413D01*
X51628689Y-117762467D01*
X52414511Y-118548289D01*
X52562837Y-118647398D01*
X52737800Y-118682200D01*
X58564900Y-118682200D01*
X58739863Y-118647398D01*
X58888189Y-118548289D01*
X59934285Y-117502193D01*
X60089552Y-117734565D01*
X60488917Y-118001413D01*
X60960000Y-118095117D01*
X61431083Y-118001413D01*
X61830448Y-117734565D01*
X61963800Y-117534990D01*
X61963800Y-126878700D01*
X61998602Y-127053663D01*
X62097711Y-127201989D01*
X62671267Y-127775546D01*
X62671075Y-127996161D01*
X62781050Y-128262321D01*
X62972358Y-128453964D01*
X58323159Y-133103163D01*
X58245037Y-133118702D01*
X58096711Y-133217811D01*
X57997602Y-133366137D01*
X57980461Y-133452313D01*
X57948917Y-133458587D01*
X57549552Y-133725435D01*
X57348028Y-134027035D01*
X57136700Y-133985000D01*
X56923884Y-133985000D01*
X56750448Y-133725435D01*
X56351083Y-133458587D01*
X55880000Y-133364883D01*
X55408917Y-133458587D01*
X55009552Y-133725435D01*
X54836116Y-133985000D01*
X54650879Y-133985000D01*
X54535183Y-133738642D01*
X54106924Y-133348355D01*
X53696890Y-133178524D01*
X53467000Y-133299845D01*
X53467000Y-134493000D01*
X53487000Y-134493000D01*
X53487000Y-134747000D01*
X53467000Y-134747000D01*
X53467000Y-134767000D01*
X53213000Y-134767000D01*
X53213000Y-134747000D01*
X50927000Y-134747000D01*
X50927000Y-134767000D01*
X50673000Y-134767000D01*
X50673000Y-134747000D01*
X49479181Y-134747000D01*
X49358514Y-134976892D01*
X49604817Y-135501358D01*
X49673993Y-135564400D01*
X49167926Y-135564400D01*
X47866634Y-134263108D01*
X49358514Y-134263108D01*
X49479181Y-134493000D01*
X50673000Y-134493000D01*
X50673000Y-133299845D01*
X50927000Y-133299845D01*
X50927000Y-134493000D01*
X53213000Y-134493000D01*
X53213000Y-133299845D01*
X52983110Y-133178524D01*
X52573076Y-133348355D01*
X52144817Y-133738642D01*
X52070000Y-133897954D01*
X51995183Y-133738642D01*
X51566924Y-133348355D01*
X51156890Y-133178524D01*
X50927000Y-133299845D01*
X50673000Y-133299845D01*
X50443110Y-133178524D01*
X50033076Y-133348355D01*
X49604817Y-133738642D01*
X49358514Y-134263108D01*
X47866634Y-134263108D01*
X24538328Y-110934802D01*
X24853454Y-110919778D01*
X25254005Y-110753864D01*
X25328139Y-110507745D01*
X24500000Y-109679605D01*
X24485858Y-109693748D01*
X24306252Y-109514142D01*
X24320395Y-109500000D01*
X24679605Y-109500000D01*
X25507745Y-110328139D01*
X25753864Y-110254005D01*
X25811536Y-110093555D01*
X25811536Y-110300000D01*
X25838103Y-110441190D01*
X25921546Y-110570865D01*
X26048866Y-110657859D01*
X26200000Y-110688464D01*
X27800000Y-110688464D01*
X27941190Y-110661897D01*
X28070865Y-110578454D01*
X28157859Y-110451134D01*
X28188464Y-110300000D01*
X28188464Y-108700000D01*
X28161897Y-108558810D01*
X28078454Y-108429135D01*
X27951134Y-108342141D01*
X27800000Y-108311536D01*
X26200000Y-108311536D01*
X26058810Y-108338103D01*
X25929135Y-108421546D01*
X25842141Y-108548866D01*
X25811536Y-108700000D01*
X25811536Y-108885227D01*
X25753864Y-108745995D01*
X25507745Y-108671861D01*
X24679605Y-109500000D01*
X24320395Y-109500000D01*
X23492255Y-108671861D01*
X23246136Y-108745995D01*
X23053035Y-109283223D01*
X23061360Y-109457834D01*
X22095781Y-108492255D01*
X23671861Y-108492255D01*
X24500000Y-109320395D01*
X25328139Y-108492255D01*
X25254005Y-108246136D01*
X24716777Y-108053035D01*
X24146546Y-108080222D01*
X23745995Y-108246136D01*
X23671861Y-108492255D01*
X22095781Y-108492255D01*
X21635000Y-108031474D01*
X21635000Y-107331036D01*
X32252193Y-107331036D01*
X32282518Y-107821413D01*
X32411836Y-108133617D01*
X32593608Y-108173541D01*
X32542141Y-108248866D01*
X32534679Y-108285713D01*
X32521570Y-108298822D01*
X32530264Y-108307516D01*
X32511536Y-108400000D01*
X32511536Y-109600000D01*
X32538103Y-109741190D01*
X32621546Y-109870865D01*
X32748866Y-109957859D01*
X32900000Y-109988464D01*
X34100000Y-109988464D01*
X34241190Y-109961897D01*
X34370865Y-109878454D01*
X34457859Y-109751134D01*
X34488464Y-109600000D01*
X34488464Y-108400000D01*
X34470852Y-108306400D01*
X34478430Y-108298822D01*
X34467339Y-108287731D01*
X34461897Y-108258810D01*
X34406950Y-108173419D01*
X34588164Y-108133617D01*
X34747807Y-107668964D01*
X34717482Y-107178587D01*
X34588164Y-106866383D01*
X34362735Y-106816870D01*
X33679605Y-107500000D01*
X33693748Y-107514143D01*
X33514143Y-107693748D01*
X33500000Y-107679605D01*
X33485858Y-107693748D01*
X33306253Y-107514143D01*
X33320395Y-107500000D01*
X32637265Y-106816870D01*
X32411836Y-106866383D01*
X32252193Y-107331036D01*
X21635000Y-107331036D01*
X21635000Y-106637265D01*
X32816870Y-106637265D01*
X33500000Y-107320395D01*
X34183130Y-106637265D01*
X34133617Y-106411836D01*
X33668964Y-106252193D01*
X33178587Y-106282518D01*
X32866383Y-106411836D01*
X32816870Y-106637265D01*
X21635000Y-106637265D01*
X21635000Y-96138464D01*
X22250000Y-96138464D01*
X22391190Y-96111897D01*
X22520865Y-96028454D01*
X22607859Y-95901134D01*
X22638464Y-95750000D01*
X22638464Y-94977870D01*
X32086583Y-94977870D01*
X32453166Y-95865069D01*
X33131361Y-96544449D01*
X34017919Y-96912580D01*
X34977870Y-96913417D01*
X35865069Y-96546834D01*
X36544449Y-95868639D01*
X36559114Y-95833320D01*
X44846285Y-95833320D01*
X44975533Y-96126123D01*
X45675806Y-96394388D01*
X46425435Y-96374250D01*
X47024467Y-96126123D01*
X47153715Y-95833320D01*
X46000000Y-94679605D01*
X44846285Y-95833320D01*
X36559114Y-95833320D01*
X36912580Y-94982081D01*
X36913283Y-94175806D01*
X44105612Y-94175806D01*
X44125750Y-94925435D01*
X44373877Y-95524467D01*
X44666680Y-95653715D01*
X45820395Y-94500000D01*
X46179605Y-94500000D01*
X47333320Y-95653715D01*
X47626123Y-95524467D01*
X47894388Y-94824194D01*
X47874250Y-94074565D01*
X47626123Y-93475533D01*
X47333320Y-93346285D01*
X46179605Y-94500000D01*
X45820395Y-94500000D01*
X44666680Y-93346285D01*
X44373877Y-93475533D01*
X44105612Y-94175806D01*
X36913283Y-94175806D01*
X36913417Y-94022130D01*
X36559953Y-93166680D01*
X44846285Y-93166680D01*
X46000000Y-94320395D01*
X47070395Y-93250000D01*
X49361536Y-93250000D01*
X49361536Y-95750000D01*
X49388103Y-95891190D01*
X49471546Y-96020865D01*
X49598866Y-96107859D01*
X49750000Y-96138464D01*
X50542800Y-96138464D01*
X50542800Y-102564983D01*
X50536965Y-102570808D01*
X50426526Y-102836776D01*
X50426275Y-103124761D01*
X50536250Y-103390921D01*
X50739708Y-103594735D01*
X51005676Y-103705174D01*
X51293661Y-103705425D01*
X51559821Y-103595450D01*
X51763635Y-103391992D01*
X51874074Y-103126024D01*
X51874325Y-102838039D01*
X51764350Y-102571879D01*
X51560892Y-102368065D01*
X51457200Y-102325009D01*
X51457200Y-96138464D01*
X52250000Y-96138464D01*
X52391190Y-96111897D01*
X52520865Y-96028454D01*
X52607859Y-95901134D01*
X52621591Y-95833320D01*
X54846285Y-95833320D01*
X54975533Y-96126123D01*
X55675806Y-96394388D01*
X56425435Y-96374250D01*
X57024467Y-96126123D01*
X57153715Y-95833320D01*
X56000000Y-94679605D01*
X54846285Y-95833320D01*
X52621591Y-95833320D01*
X52638464Y-95750000D01*
X52638464Y-94175806D01*
X54105612Y-94175806D01*
X54125750Y-94925435D01*
X54373877Y-95524467D01*
X54666680Y-95653715D01*
X55820395Y-94500000D01*
X56179605Y-94500000D01*
X57333320Y-95653715D01*
X57626123Y-95524467D01*
X57894388Y-94824194D01*
X57874250Y-94074565D01*
X57626123Y-93475533D01*
X57333320Y-93346285D01*
X56179605Y-94500000D01*
X55820395Y-94500000D01*
X54666680Y-93346285D01*
X54373877Y-93475533D01*
X54105612Y-94175806D01*
X52638464Y-94175806D01*
X52638464Y-93250000D01*
X52622787Y-93166680D01*
X54846285Y-93166680D01*
X56000000Y-94320395D01*
X57070395Y-93250000D01*
X59361536Y-93250000D01*
X59361536Y-95750000D01*
X59388103Y-95891190D01*
X59471546Y-96020865D01*
X59598866Y-96107859D01*
X59750000Y-96138464D01*
X60542800Y-96138464D01*
X60542800Y-103182524D01*
X60471026Y-103355376D01*
X60470775Y-103643361D01*
X60580750Y-103909521D01*
X60784208Y-104113335D01*
X61050176Y-104223774D01*
X61338161Y-104224025D01*
X61604321Y-104114050D01*
X61808135Y-103910592D01*
X61918574Y-103644624D01*
X61918825Y-103356639D01*
X61808850Y-103090479D01*
X61605392Y-102886665D01*
X61457200Y-102825131D01*
X61457200Y-96138464D01*
X62250000Y-96138464D01*
X62391190Y-96111897D01*
X62520865Y-96028454D01*
X62607859Y-95901134D01*
X62638464Y-95750000D01*
X62638464Y-93725300D01*
X63742900Y-93725300D01*
X63742900Y-96723900D01*
X63777702Y-96898863D01*
X63876811Y-97047189D01*
X70652911Y-103823290D01*
X70801237Y-103922398D01*
X70976200Y-103957200D01*
X78233246Y-103957200D01*
X78389108Y-104113335D01*
X78655076Y-104223774D01*
X78943061Y-104224025D01*
X79209221Y-104114050D01*
X79413035Y-103910592D01*
X79523474Y-103644624D01*
X79523725Y-103356639D01*
X79413750Y-103090479D01*
X79210292Y-102886665D01*
X78944324Y-102776226D01*
X78656339Y-102775975D01*
X78390179Y-102885950D01*
X78233055Y-103042800D01*
X71923576Y-103042800D01*
X71923825Y-102757239D01*
X71813850Y-102491079D01*
X71610392Y-102287265D01*
X71344424Y-102176826D01*
X71122411Y-102176632D01*
X65131743Y-96185965D01*
X65675806Y-96394388D01*
X66425435Y-96374250D01*
X67024467Y-96126123D01*
X67153715Y-95833320D01*
X66000000Y-94679605D01*
X65985858Y-94693748D01*
X65806253Y-94514143D01*
X65820395Y-94500000D01*
X65806253Y-94485858D01*
X65985858Y-94306253D01*
X66000000Y-94320395D01*
X66014143Y-94306253D01*
X66193748Y-94485858D01*
X66179605Y-94500000D01*
X67333320Y-95653715D01*
X67626123Y-95524467D01*
X67894388Y-94824194D01*
X67874250Y-94074565D01*
X67627269Y-93478300D01*
X67852822Y-93478300D01*
X69197810Y-94823289D01*
X69244072Y-94854200D01*
X69346137Y-94922398D01*
X69361536Y-94925461D01*
X69361536Y-95750000D01*
X69388103Y-95891190D01*
X69471546Y-96020865D01*
X69598866Y-96107859D01*
X69750000Y-96138464D01*
X72250000Y-96138464D01*
X72391190Y-96111897D01*
X72520865Y-96028454D01*
X72607859Y-95901134D01*
X72621591Y-95833320D01*
X74846285Y-95833320D01*
X74975533Y-96126123D01*
X75675806Y-96394388D01*
X76425435Y-96374250D01*
X77024467Y-96126123D01*
X77153715Y-95833320D01*
X76000000Y-94679605D01*
X74846285Y-95833320D01*
X72621591Y-95833320D01*
X72638464Y-95750000D01*
X72638464Y-93250000D01*
X72619704Y-93150300D01*
X74635200Y-93150300D01*
X74552946Y-93232554D01*
X74666678Y-93346286D01*
X74373877Y-93475533D01*
X74105612Y-94175806D01*
X74125750Y-94925435D01*
X74373877Y-95524467D01*
X74666680Y-95653715D01*
X75820395Y-94500000D01*
X75806253Y-94485858D01*
X75985858Y-94306253D01*
X76000000Y-94320395D01*
X76014143Y-94306253D01*
X76193748Y-94485858D01*
X76179605Y-94500000D01*
X77333320Y-95653715D01*
X77626123Y-95524467D01*
X77894388Y-94824194D01*
X77874250Y-94074565D01*
X77626123Y-93475533D01*
X77333322Y-93346286D01*
X77447054Y-93232554D01*
X77364800Y-93150300D01*
X77524822Y-93150300D01*
X79197810Y-94823289D01*
X79244072Y-94854200D01*
X79346137Y-94922398D01*
X79361536Y-94925461D01*
X79361536Y-95750000D01*
X79388103Y-95891190D01*
X79471546Y-96020865D01*
X79598866Y-96107859D01*
X79750000Y-96138464D01*
X82250000Y-96138464D01*
X82391190Y-96111897D01*
X82520865Y-96028454D01*
X82607859Y-95901134D01*
X82621591Y-95833320D01*
X84846285Y-95833320D01*
X84975533Y-96126123D01*
X85675806Y-96394388D01*
X86425435Y-96374250D01*
X87024467Y-96126123D01*
X87153715Y-95833320D01*
X86000000Y-94679605D01*
X84846285Y-95833320D01*
X82621591Y-95833320D01*
X82638464Y-95750000D01*
X82638464Y-94175806D01*
X84105612Y-94175806D01*
X84125750Y-94925435D01*
X84373877Y-95524467D01*
X84666680Y-95653715D01*
X85820395Y-94500000D01*
X86179605Y-94500000D01*
X87333320Y-95653715D01*
X87626123Y-95524467D01*
X87894388Y-94824194D01*
X87874250Y-94074565D01*
X87626123Y-93475533D01*
X87333320Y-93346285D01*
X86179605Y-94500000D01*
X85820395Y-94500000D01*
X84666680Y-93346285D01*
X84373877Y-93475533D01*
X84105612Y-94175806D01*
X82638464Y-94175806D01*
X82638464Y-93250000D01*
X82622787Y-93166680D01*
X84846285Y-93166680D01*
X86000000Y-94320395D01*
X87153715Y-93166680D01*
X87024467Y-92873877D01*
X86324194Y-92605612D01*
X85574565Y-92625750D01*
X84975533Y-92873877D01*
X84846285Y-93166680D01*
X82622787Y-93166680D01*
X82611897Y-93108810D01*
X82528454Y-92979135D01*
X82401134Y-92892141D01*
X82250000Y-92861536D01*
X79750000Y-92861536D01*
X79608810Y-92888103D01*
X79479135Y-92971546D01*
X79392141Y-93098866D01*
X79361536Y-93250000D01*
X79361536Y-93693857D01*
X78037489Y-92369811D01*
X77889163Y-92270702D01*
X77714200Y-92235900D01*
X65232300Y-92235900D01*
X65057337Y-92270702D01*
X64909011Y-92369811D01*
X63876811Y-93402011D01*
X63777702Y-93550337D01*
X63742900Y-93725300D01*
X62638464Y-93725300D01*
X62638464Y-93250000D01*
X62611897Y-93108810D01*
X62528454Y-92979135D01*
X62401134Y-92892141D01*
X62250000Y-92861536D01*
X59750000Y-92861536D01*
X59608810Y-92888103D01*
X59479135Y-92971546D01*
X59392141Y-93098866D01*
X59361536Y-93250000D01*
X57070395Y-93250000D01*
X57153715Y-93166680D01*
X57024467Y-92873877D01*
X56324194Y-92605612D01*
X55574565Y-92625750D01*
X54975533Y-92873877D01*
X54846285Y-93166680D01*
X52622787Y-93166680D01*
X52611897Y-93108810D01*
X52528454Y-92979135D01*
X52401134Y-92892141D01*
X52250000Y-92861536D01*
X49750000Y-92861536D01*
X49608810Y-92888103D01*
X49479135Y-92971546D01*
X49392141Y-93098866D01*
X49361536Y-93250000D01*
X47070395Y-93250000D01*
X47153715Y-93166680D01*
X47024467Y-92873877D01*
X46324194Y-92605612D01*
X45574565Y-92625750D01*
X44975533Y-92873877D01*
X44846285Y-93166680D01*
X36559953Y-93166680D01*
X36546834Y-93134931D01*
X35868639Y-92455551D01*
X34982081Y-92087420D01*
X34022130Y-92086583D01*
X33134931Y-92453166D01*
X32455551Y-93131361D01*
X32087420Y-94017919D01*
X32086583Y-94977870D01*
X22638464Y-94977870D01*
X22638464Y-93250000D01*
X22611897Y-93108810D01*
X22528454Y-92979135D01*
X22401134Y-92892141D01*
X22250000Y-92861536D01*
X19750000Y-92861536D01*
X19608810Y-92888103D01*
X19479135Y-92971546D01*
X19392141Y-93098866D01*
X19361536Y-93250000D01*
X17070395Y-93250000D01*
X17153715Y-93166680D01*
X17024467Y-92873877D01*
X16324194Y-92605612D01*
X15574565Y-92625750D01*
X14975533Y-92873877D01*
X14846285Y-93166680D01*
X12456000Y-93166680D01*
X12456000Y-92003787D01*
X144868787Y-92003787D01*
X145055800Y-92456395D01*
X145401784Y-92802983D01*
X145854065Y-92990786D01*
X146343787Y-92991213D01*
X146796395Y-92804200D01*
X147142983Y-92458216D01*
X147330786Y-92005935D01*
X147331213Y-91516213D01*
X147144200Y-91063605D01*
X146798216Y-90717017D01*
X146345935Y-90529214D01*
X145856213Y-90528787D01*
X145403605Y-90715800D01*
X145057017Y-91061784D01*
X144869214Y-91514065D01*
X144868787Y-92003787D01*
X12456000Y-92003787D01*
X12456000Y-89463787D01*
X144868787Y-89463787D01*
X145055800Y-89916395D01*
X145401784Y-90262983D01*
X145854065Y-90450786D01*
X146343787Y-90451213D01*
X146796395Y-90264200D01*
X147142983Y-89918216D01*
X147330786Y-89465935D01*
X147331213Y-88976213D01*
X147144200Y-88523605D01*
X146798216Y-88177017D01*
X146345935Y-87989214D01*
X145856213Y-87988787D01*
X145403605Y-88175800D01*
X145057017Y-88521784D01*
X144869214Y-88974065D01*
X144868787Y-89463787D01*
X12456000Y-89463787D01*
X12456000Y-86956000D01*
X205544000Y-86956000D01*
X205544000Y-167044000D01*
X205544000Y-167044000D01*
G37*
X205544000Y-167044000D02*
X12456000Y-167044000D01*
X12456000Y-157750000D01*
X14361536Y-157750000D01*
X14361536Y-160250000D01*
X14388103Y-160391190D01*
X14471546Y-160520865D01*
X14598866Y-160607859D01*
X14750000Y-160638464D01*
X17250000Y-160638464D01*
X17391190Y-160611897D01*
X17520865Y-160528454D01*
X17607859Y-160401134D01*
X17621591Y-160333320D01*
X19846285Y-160333320D01*
X19975533Y-160626123D01*
X20675806Y-160894388D01*
X21425435Y-160874250D01*
X22024467Y-160626123D01*
X22153715Y-160333320D01*
X21000000Y-159179605D01*
X19846285Y-160333320D01*
X17621591Y-160333320D01*
X17638464Y-160250000D01*
X17638464Y-158675806D01*
X19105612Y-158675806D01*
X19125750Y-159425435D01*
X19373877Y-160024467D01*
X19666680Y-160153715D01*
X20820395Y-159000000D01*
X21179605Y-159000000D01*
X22333320Y-160153715D01*
X22626123Y-160024467D01*
X22894388Y-159324194D01*
X22874250Y-158574565D01*
X22626123Y-157975533D01*
X22333320Y-157846285D01*
X21179605Y-159000000D01*
X20820395Y-159000000D01*
X19666680Y-157846285D01*
X19373877Y-157975533D01*
X19105612Y-158675806D01*
X17638464Y-158675806D01*
X17638464Y-157750000D01*
X17622787Y-157666680D01*
X19846285Y-157666680D01*
X21000000Y-158820395D01*
X22070395Y-157750000D01*
X24361536Y-157750000D01*
X24361536Y-160250000D01*
X24388103Y-160391190D01*
X24471546Y-160520865D01*
X24598866Y-160607859D01*
X24750000Y-160638464D01*
X27250000Y-160638464D01*
X27391190Y-160611897D01*
X27520865Y-160528454D01*
X27607859Y-160401134D01*
X27638464Y-160250000D01*
X27638464Y-159323003D01*
X29368718Y-159323003D01*
X29616499Y-159922680D01*
X30074907Y-160381888D01*
X30674151Y-160630716D01*
X31323003Y-160631282D01*
X31922680Y-160383501D01*
X32381888Y-159925093D01*
X32630716Y-159325849D01*
X32631282Y-158676997D01*
X32383501Y-158077320D01*
X31925093Y-157618112D01*
X31614800Y-157489267D01*
X31614800Y-150313754D01*
X31770935Y-150157892D01*
X31881374Y-149891924D01*
X31881625Y-149603939D01*
X31771650Y-149337779D01*
X31568192Y-149133965D01*
X31302224Y-149023526D01*
X31014239Y-149023275D01*
X30748079Y-149133250D01*
X30544265Y-149336708D01*
X30433826Y-149602676D01*
X30433575Y-149890661D01*
X30543550Y-150156821D01*
X30700400Y-150313945D01*
X30700400Y-157368738D01*
X30676997Y-157368718D01*
X30077320Y-157616499D01*
X29618112Y-158074907D01*
X29369284Y-158674151D01*
X29368718Y-159323003D01*
X27638464Y-159323003D01*
X27638464Y-157750000D01*
X27611897Y-157608810D01*
X27528454Y-157479135D01*
X27401134Y-157392141D01*
X27250000Y-157361536D01*
X26806142Y-157361536D01*
X29139689Y-155027989D01*
X29238798Y-154879663D01*
X29273600Y-154704700D01*
X29273600Y-147990654D01*
X29429735Y-147834792D01*
X29540174Y-147568824D01*
X29540425Y-147280839D01*
X29430450Y-147014679D01*
X29226992Y-146810865D01*
X28961024Y-146700426D01*
X28673039Y-146700175D01*
X28406879Y-146810150D01*
X28203065Y-147013608D01*
X28092626Y-147279576D01*
X28092375Y-147567561D01*
X28202350Y-147833721D01*
X28359200Y-147990845D01*
X28359200Y-154515322D01*
X25676711Y-157197811D01*
X25577602Y-157346137D01*
X25574539Y-157361536D01*
X24750000Y-157361536D01*
X24608810Y-157388103D01*
X24479135Y-157471546D01*
X24392141Y-157598866D01*
X24361536Y-157750000D01*
X22070395Y-157750000D01*
X22153715Y-157666680D01*
X22024467Y-157373877D01*
X21324194Y-157105612D01*
X20574565Y-157125750D01*
X19975533Y-157373877D01*
X19846285Y-157666680D01*
X17622787Y-157666680D01*
X17611897Y-157608810D01*
X17528454Y-157479135D01*
X17401134Y-157392141D01*
X17250000Y-157361536D01*
X14750000Y-157361536D01*
X14608810Y-157388103D01*
X14479135Y-157471546D01*
X14392141Y-157598866D01*
X14361536Y-157750000D01*
X12456000Y-157750000D01*
X12456000Y-147977870D01*
X16086583Y-147977870D01*
X16453166Y-148865069D01*
X17131361Y-149544449D01*
X18017919Y-149912580D01*
X18977870Y-149913417D01*
X19865069Y-149546834D01*
X20544449Y-148868639D01*
X20912580Y-147982081D01*
X20913417Y-147022130D01*
X20546834Y-146134931D01*
X19868639Y-145455551D01*
X18982081Y-145087420D01*
X18022130Y-145086583D01*
X17134931Y-145453166D01*
X16455551Y-146131361D01*
X16087420Y-147017919D01*
X16086583Y-147977870D01*
X12456000Y-147977870D01*
X12456000Y-136103983D01*
X38868804Y-136103983D01*
X39040625Y-136519823D01*
X39358503Y-136838256D01*
X39774043Y-137010804D01*
X40223983Y-137011196D01*
X40639823Y-136839375D01*
X40958256Y-136521497D01*
X41130804Y-136105957D01*
X41131196Y-135656017D01*
X40959375Y-135240177D01*
X40641497Y-134921744D01*
X40225957Y-134749196D01*
X39776017Y-134748804D01*
X39360177Y-134920625D01*
X39041744Y-135238503D01*
X38869196Y-135654043D01*
X38868804Y-136103983D01*
X12456000Y-136103983D01*
X12456000Y-131223983D01*
X38868804Y-131223983D01*
X39040625Y-131639823D01*
X39358503Y-131958256D01*
X39774043Y-132130804D01*
X40223983Y-132131196D01*
X40639823Y-131959375D01*
X40958256Y-131641497D01*
X41130804Y-131225957D01*
X41131196Y-130776017D01*
X40959375Y-130360177D01*
X40641497Y-130041744D01*
X40225957Y-129869196D01*
X39776017Y-129868804D01*
X39360177Y-130040625D01*
X39041744Y-130358503D01*
X38869196Y-130774043D01*
X38868804Y-131223983D01*
X12456000Y-131223983D01*
X12456000Y-110507745D01*
X14671861Y-110507745D01*
X14745995Y-110753864D01*
X15283223Y-110946965D01*
X15853454Y-110919778D01*
X16254005Y-110753864D01*
X16328139Y-110507745D01*
X15500000Y-109679605D01*
X14671861Y-110507745D01*
X12456000Y-110507745D01*
X12456000Y-109283223D01*
X14053035Y-109283223D01*
X14080222Y-109853454D01*
X14246136Y-110254005D01*
X14492255Y-110328139D01*
X15320395Y-109500000D01*
X15679605Y-109500000D01*
X16507745Y-110328139D01*
X16753864Y-110254005D01*
X16811536Y-110093555D01*
X16811536Y-110300000D01*
X16838103Y-110441190D01*
X16921546Y-110570865D01*
X17048866Y-110657859D01*
X17200000Y-110688464D01*
X18800000Y-110688464D01*
X18941190Y-110661897D01*
X19070865Y-110578454D01*
X19157859Y-110451134D01*
X19188464Y-110300000D01*
X19188464Y-108700000D01*
X19161897Y-108558810D01*
X19078454Y-108429135D01*
X18951134Y-108342141D01*
X18800000Y-108311536D01*
X17200000Y-108311536D01*
X17058810Y-108338103D01*
X16929135Y-108421546D01*
X16842141Y-108548866D01*
X16811536Y-108700000D01*
X16811536Y-108885227D01*
X16753864Y-108745995D01*
X16507745Y-108671861D01*
X15679605Y-109500000D01*
X15320395Y-109500000D01*
X14492255Y-108671861D01*
X14246136Y-108745995D01*
X14053035Y-109283223D01*
X12456000Y-109283223D01*
X12456000Y-108492255D01*
X14671861Y-108492255D01*
X15500000Y-109320395D01*
X16328139Y-108492255D01*
X16254005Y-108246136D01*
X15716777Y-108053035D01*
X15146546Y-108080222D01*
X14745995Y-108246136D01*
X14671861Y-108492255D01*
X12456000Y-108492255D01*
X12456000Y-95833320D01*
X14846285Y-95833320D01*
X14975533Y-96126123D01*
X15675806Y-96394388D01*
X16425435Y-96374250D01*
X17024467Y-96126123D01*
X17153715Y-95833320D01*
X16000000Y-94679605D01*
X14846285Y-95833320D01*
X12456000Y-95833320D01*
X12456000Y-94175806D01*
X14105612Y-94175806D01*
X14125750Y-94925435D01*
X14373877Y-95524467D01*
X14666680Y-95653715D01*
X15820395Y-94500000D01*
X16179605Y-94500000D01*
X17333320Y-95653715D01*
X17626123Y-95524467D01*
X17894388Y-94824194D01*
X17874250Y-94074565D01*
X17626123Y-93475533D01*
X17333320Y-93346285D01*
X16179605Y-94500000D01*
X15820395Y-94500000D01*
X14666680Y-93346285D01*
X14373877Y-93475533D01*
X14105612Y-94175806D01*
X12456000Y-94175806D01*
X12456000Y-93166680D01*
X14846285Y-93166680D01*
X16000000Y-94320395D01*
X17070395Y-93250000D01*
X19361536Y-93250000D01*
X19361536Y-95750000D01*
X19388103Y-95891190D01*
X19471546Y-96020865D01*
X19598866Y-96107859D01*
X19750000Y-96138464D01*
X20365000Y-96138464D01*
X20365000Y-108294500D01*
X20413336Y-108537504D01*
X20550987Y-108743513D01*
X48269900Y-136462426D01*
X48269900Y-144175374D01*
X35550987Y-156894287D01*
X35413336Y-157100296D01*
X35365000Y-157343300D01*
X35365000Y-157361536D01*
X34750000Y-157361536D01*
X34608810Y-157388103D01*
X34479135Y-157471546D01*
X34392141Y-157598866D01*
X34361536Y-157750000D01*
X34361536Y-160250000D01*
X34388103Y-160391190D01*
X34471546Y-160520865D01*
X34598866Y-160607859D01*
X34750000Y-160638464D01*
X37250000Y-160638464D01*
X37391190Y-160611897D01*
X37520865Y-160528454D01*
X37607859Y-160401134D01*
X37621591Y-160333320D01*
X39846285Y-160333320D01*
X39975533Y-160626123D01*
X40675806Y-160894388D01*
X41425435Y-160874250D01*
X42024467Y-160626123D01*
X42153715Y-160333320D01*
X41000000Y-159179605D01*
X39846285Y-160333320D01*
X37621591Y-160333320D01*
X37638464Y-160250000D01*
X37638464Y-158675806D01*
X39105612Y-158675806D01*
X39125750Y-159425435D01*
X39373877Y-160024467D01*
X39666680Y-160153715D01*
X40820395Y-159000000D01*
X41179605Y-159000000D01*
X42333320Y-160153715D01*
X42626123Y-160024467D01*
X42894388Y-159324194D01*
X42874250Y-158574565D01*
X42626123Y-157975533D01*
X42333320Y-157846285D01*
X41179605Y-159000000D01*
X40820395Y-159000000D01*
X39666680Y-157846285D01*
X39373877Y-157975533D01*
X39105612Y-158675806D01*
X37638464Y-158675806D01*
X37638464Y-157750000D01*
X37622787Y-157666680D01*
X39846285Y-157666680D01*
X41000000Y-158820395D01*
X42070395Y-157750000D01*
X44361536Y-157750000D01*
X44361536Y-160250000D01*
X44388103Y-160391190D01*
X44471546Y-160520865D01*
X44598866Y-160607859D01*
X44750000Y-160638464D01*
X47250000Y-160638464D01*
X47391190Y-160611897D01*
X47520865Y-160528454D01*
X47607859Y-160401134D01*
X47621591Y-160333320D01*
X49846285Y-160333320D01*
X49975533Y-160626123D01*
X50675806Y-160894388D01*
X51425435Y-160874250D01*
X52024467Y-160626123D01*
X52153715Y-160333320D01*
X51000000Y-159179605D01*
X49846285Y-160333320D01*
X47621591Y-160333320D01*
X47638464Y-160250000D01*
X47638464Y-158675806D01*
X49105612Y-158675806D01*
X49125750Y-159425435D01*
X49373877Y-160024467D01*
X49666680Y-160153715D01*
X50820395Y-159000000D01*
X51179605Y-159000000D01*
X52333320Y-160153715D01*
X52626123Y-160024467D01*
X52894388Y-159324194D01*
X52874250Y-158574565D01*
X52626123Y-157975533D01*
X52333320Y-157846285D01*
X51179605Y-159000000D01*
X50820395Y-159000000D01*
X49666680Y-157846285D01*
X49373877Y-157975533D01*
X49105612Y-158675806D01*
X47638464Y-158675806D01*
X47638464Y-157750000D01*
X47622787Y-157666680D01*
X49846285Y-157666680D01*
X51000000Y-158820395D01*
X52070395Y-157750000D01*
X54361536Y-157750000D01*
X54361536Y-160250000D01*
X54388103Y-160391190D01*
X54471546Y-160520865D01*
X54598866Y-160607859D01*
X54750000Y-160638464D01*
X57250000Y-160638464D01*
X57391190Y-160611897D01*
X57520865Y-160528454D01*
X57607859Y-160401134D01*
X57621591Y-160333320D01*
X59846285Y-160333320D01*
X59975533Y-160626123D01*
X60675806Y-160894388D01*
X61425435Y-160874250D01*
X62024467Y-160626123D01*
X62153715Y-160333320D01*
X61000000Y-159179605D01*
X59846285Y-160333320D01*
X57621591Y-160333320D01*
X57638464Y-160250000D01*
X57638464Y-158675806D01*
X59105612Y-158675806D01*
X59125750Y-159425435D01*
X59373877Y-160024467D01*
X59666680Y-160153715D01*
X60820395Y-159000000D01*
X61179605Y-159000000D01*
X62333320Y-160153715D01*
X62626123Y-160024467D01*
X62894388Y-159324194D01*
X62874250Y-158574565D01*
X62626123Y-157975533D01*
X62333320Y-157846285D01*
X61179605Y-159000000D01*
X60820395Y-159000000D01*
X59666680Y-157846285D01*
X59373877Y-157975533D01*
X59105612Y-158675806D01*
X57638464Y-158675806D01*
X57638464Y-157750000D01*
X57622787Y-157666680D01*
X59846285Y-157666680D01*
X61000000Y-158820395D01*
X62070395Y-157750000D01*
X64361536Y-157750000D01*
X64361536Y-160250000D01*
X64388103Y-160391190D01*
X64471546Y-160520865D01*
X64598866Y-160607859D01*
X64750000Y-160638464D01*
X67250000Y-160638464D01*
X67391190Y-160611897D01*
X67520865Y-160528454D01*
X67607859Y-160401134D01*
X67621591Y-160333320D01*
X69846285Y-160333320D01*
X69975533Y-160626123D01*
X70675806Y-160894388D01*
X71425435Y-160874250D01*
X72024467Y-160626123D01*
X72153715Y-160333320D01*
X71000000Y-159179605D01*
X69846285Y-160333320D01*
X67621591Y-160333320D01*
X67638464Y-160250000D01*
X67638464Y-158675806D01*
X69105612Y-158675806D01*
X69125750Y-159425435D01*
X69373877Y-160024467D01*
X69666680Y-160153715D01*
X70820395Y-159000000D01*
X71179605Y-159000000D01*
X72333320Y-160153715D01*
X72626123Y-160024467D01*
X72894388Y-159324194D01*
X72874250Y-158574565D01*
X72626123Y-157975533D01*
X72333320Y-157846285D01*
X71179605Y-159000000D01*
X70820395Y-159000000D01*
X69666680Y-157846285D01*
X69373877Y-157975533D01*
X69105612Y-158675806D01*
X67638464Y-158675806D01*
X67638464Y-157750000D01*
X67622787Y-157666680D01*
X69846285Y-157666680D01*
X71000000Y-158820395D01*
X72070395Y-157750000D01*
X74361536Y-157750000D01*
X74361536Y-160250000D01*
X74388103Y-160391190D01*
X74471546Y-160520865D01*
X74598866Y-160607859D01*
X74750000Y-160638464D01*
X77250000Y-160638464D01*
X77391190Y-160611897D01*
X77520865Y-160528454D01*
X77607859Y-160401134D01*
X77621591Y-160333320D01*
X79846285Y-160333320D01*
X79975533Y-160626123D01*
X80675806Y-160894388D01*
X81425435Y-160874250D01*
X82024467Y-160626123D01*
X82153715Y-160333320D01*
X81000000Y-159179605D01*
X79846285Y-160333320D01*
X77621591Y-160333320D01*
X77638464Y-160250000D01*
X77638464Y-158675806D01*
X79105612Y-158675806D01*
X79125750Y-159425435D01*
X79373877Y-160024467D01*
X79666680Y-160153715D01*
X80820395Y-159000000D01*
X81179605Y-159000000D01*
X82333320Y-160153715D01*
X82626123Y-160024467D01*
X82894388Y-159324194D01*
X82874250Y-158574565D01*
X82626123Y-157975533D01*
X82333320Y-157846285D01*
X81179605Y-159000000D01*
X80820395Y-159000000D01*
X79666680Y-157846285D01*
X79373877Y-157975533D01*
X79105612Y-158675806D01*
X77638464Y-158675806D01*
X77638464Y-157750000D01*
X77622787Y-157666680D01*
X79846285Y-157666680D01*
X81000000Y-158820395D01*
X82070395Y-157750000D01*
X84361536Y-157750000D01*
X84361536Y-160250000D01*
X84388103Y-160391190D01*
X84471546Y-160520865D01*
X84598866Y-160607859D01*
X84750000Y-160638464D01*
X87250000Y-160638464D01*
X87391190Y-160611897D01*
X87520865Y-160528454D01*
X87607859Y-160401134D01*
X87621591Y-160333320D01*
X89846285Y-160333320D01*
X89975533Y-160626123D01*
X90675806Y-160894388D01*
X91425435Y-160874250D01*
X92024467Y-160626123D01*
X92153715Y-160333320D01*
X91000000Y-159179605D01*
X89846285Y-160333320D01*
X87621591Y-160333320D01*
X87638464Y-160250000D01*
X87638464Y-158675806D01*
X89105612Y-158675806D01*
X89125750Y-159425435D01*
X89373877Y-160024467D01*
X89666680Y-160153715D01*
X90820395Y-159000000D01*
X91179605Y-159000000D01*
X92333320Y-160153715D01*
X92626123Y-160024467D01*
X92894388Y-159324194D01*
X92874250Y-158574565D01*
X92626123Y-157975533D01*
X92333320Y-157846285D01*
X91179605Y-159000000D01*
X90820395Y-159000000D01*
X89666680Y-157846285D01*
X89373877Y-157975533D01*
X89105612Y-158675806D01*
X87638464Y-158675806D01*
X87638464Y-157750000D01*
X87622787Y-157666680D01*
X89846285Y-157666680D01*
X91000000Y-158820395D01*
X92070395Y-157750000D01*
X94361536Y-157750000D01*
X94361536Y-160250000D01*
X94388103Y-160391190D01*
X94471546Y-160520865D01*
X94598866Y-160607859D01*
X94750000Y-160638464D01*
X97250000Y-160638464D01*
X97391190Y-160611897D01*
X97520865Y-160528454D01*
X97607859Y-160401134D01*
X97621591Y-160333320D01*
X99846285Y-160333320D01*
X99975533Y-160626123D01*
X100675806Y-160894388D01*
X101425435Y-160874250D01*
X102024467Y-160626123D01*
X102153715Y-160333320D01*
X101000000Y-159179605D01*
X99846285Y-160333320D01*
X97621591Y-160333320D01*
X97638464Y-160250000D01*
X97638464Y-158675806D01*
X99105612Y-158675806D01*
X99125750Y-159425435D01*
X99373877Y-160024467D01*
X99666680Y-160153715D01*
X100820395Y-159000000D01*
X101179605Y-159000000D01*
X102333320Y-160153715D01*
X102626123Y-160024467D01*
X102894388Y-159324194D01*
X102874250Y-158574565D01*
X102626123Y-157975533D01*
X102333320Y-157846285D01*
X101179605Y-159000000D01*
X100820395Y-159000000D01*
X99666680Y-157846285D01*
X99373877Y-157975533D01*
X99105612Y-158675806D01*
X97638464Y-158675806D01*
X97638464Y-157750000D01*
X97622787Y-157666680D01*
X99846285Y-157666680D01*
X101000000Y-158820395D01*
X102070395Y-157750000D01*
X104361536Y-157750000D01*
X104361536Y-160250000D01*
X104388103Y-160391190D01*
X104471546Y-160520865D01*
X104598866Y-160607859D01*
X104750000Y-160638464D01*
X107250000Y-160638464D01*
X107391190Y-160611897D01*
X107520865Y-160528454D01*
X107607859Y-160401134D01*
X107621591Y-160333320D01*
X109846285Y-160333320D01*
X109975533Y-160626123D01*
X110675806Y-160894388D01*
X111425435Y-160874250D01*
X112024467Y-160626123D01*
X112153715Y-160333320D01*
X111000000Y-159179605D01*
X109846285Y-160333320D01*
X107621591Y-160333320D01*
X107638464Y-160250000D01*
X107638464Y-158675806D01*
X109105612Y-158675806D01*
X109125750Y-159425435D01*
X109373877Y-160024467D01*
X109666680Y-160153715D01*
X110820395Y-159000000D01*
X111179605Y-159000000D01*
X112333320Y-160153715D01*
X112626123Y-160024467D01*
X112894388Y-159324194D01*
X112874250Y-158574565D01*
X112626123Y-157975533D01*
X112333320Y-157846285D01*
X111179605Y-159000000D01*
X110820395Y-159000000D01*
X109666680Y-157846285D01*
X109373877Y-157975533D01*
X109105612Y-158675806D01*
X107638464Y-158675806D01*
X107638464Y-157750000D01*
X107622787Y-157666680D01*
X109846285Y-157666680D01*
X111000000Y-158820395D01*
X112070395Y-157750000D01*
X114361536Y-157750000D01*
X114361536Y-160250000D01*
X114388103Y-160391190D01*
X114471546Y-160520865D01*
X114598866Y-160607859D01*
X114750000Y-160638464D01*
X117250000Y-160638464D01*
X117391190Y-160611897D01*
X117520865Y-160528454D01*
X117607859Y-160401134D01*
X117621591Y-160333320D01*
X119846285Y-160333320D01*
X119975533Y-160626123D01*
X120675806Y-160894388D01*
X121425435Y-160874250D01*
X122024467Y-160626123D01*
X122153715Y-160333320D01*
X121000000Y-159179605D01*
X119846285Y-160333320D01*
X117621591Y-160333320D01*
X117638464Y-160250000D01*
X117638464Y-158675806D01*
X119105612Y-158675806D01*
X119125750Y-159425435D01*
X119373877Y-160024467D01*
X119666680Y-160153715D01*
X120820395Y-159000000D01*
X119666680Y-157846285D01*
X119373877Y-157975533D01*
X119105612Y-158675806D01*
X117638464Y-158675806D01*
X117638464Y-157750000D01*
X117611897Y-157608810D01*
X117528454Y-157479135D01*
X117401134Y-157392141D01*
X117250000Y-157361536D01*
X114750000Y-157361536D01*
X114608810Y-157388103D01*
X114479135Y-157471546D01*
X114392141Y-157598866D01*
X114361536Y-157750000D01*
X112070395Y-157750000D01*
X112153715Y-157666680D01*
X112024467Y-157373877D01*
X111324194Y-157105612D01*
X110574565Y-157125750D01*
X109975533Y-157373877D01*
X109846285Y-157666680D01*
X107622787Y-157666680D01*
X107611897Y-157608810D01*
X107528454Y-157479135D01*
X107401134Y-157392141D01*
X107250000Y-157361536D01*
X106457200Y-157361536D01*
X106457200Y-149788400D01*
X106422398Y-149613437D01*
X106323633Y-149465625D01*
X106323825Y-149244839D01*
X106213850Y-148978679D01*
X106010392Y-148774865D01*
X105744424Y-148664426D01*
X105456439Y-148664175D01*
X105190279Y-148774150D01*
X104986465Y-148977608D01*
X104876026Y-149243576D01*
X104875775Y-149531561D01*
X104985750Y-149797721D01*
X105189208Y-150001535D01*
X105455176Y-150111974D01*
X105542800Y-150112050D01*
X105542800Y-157361536D01*
X104750000Y-157361536D01*
X104608810Y-157388103D01*
X104479135Y-157471546D01*
X104392141Y-157598866D01*
X104361536Y-157750000D01*
X102070395Y-157750000D01*
X102153715Y-157666680D01*
X102024467Y-157373877D01*
X101324194Y-157105612D01*
X100574565Y-157125750D01*
X99975533Y-157373877D01*
X99846285Y-157666680D01*
X97622787Y-157666680D01*
X97611897Y-157608810D01*
X97528454Y-157479135D01*
X97401134Y-157392141D01*
X97250000Y-157361536D01*
X96457200Y-157361536D01*
X96457200Y-149966629D01*
X96513335Y-149910592D01*
X96623774Y-149644624D01*
X96624025Y-149356639D01*
X96514050Y-149090479D01*
X96310592Y-148886665D01*
X96044624Y-148776226D01*
X95756639Y-148775975D01*
X95490479Y-148885950D01*
X95286665Y-149089408D01*
X95176226Y-149355376D01*
X95175975Y-149643361D01*
X95285950Y-149909521D01*
X95489408Y-150113335D01*
X95542800Y-150135505D01*
X95542800Y-157361536D01*
X94750000Y-157361536D01*
X94608810Y-157388103D01*
X94479135Y-157471546D01*
X94392141Y-157598866D01*
X94361536Y-157750000D01*
X92070395Y-157750000D01*
X92153715Y-157666680D01*
X92024467Y-157373877D01*
X91324194Y-157105612D01*
X90574565Y-157125750D01*
X89975533Y-157373877D01*
X89846285Y-157666680D01*
X87622787Y-157666680D01*
X87611897Y-157608810D01*
X87528454Y-157479135D01*
X87401134Y-157392141D01*
X87250000Y-157361536D01*
X86457200Y-157361536D01*
X86457200Y-149966629D01*
X86513335Y-149910592D01*
X86623774Y-149644624D01*
X86624025Y-149356639D01*
X86514050Y-149090479D01*
X86310592Y-148886665D01*
X86044624Y-148776226D01*
X85756639Y-148775975D01*
X85490479Y-148885950D01*
X85286665Y-149089408D01*
X85176226Y-149355376D01*
X85175975Y-149643361D01*
X85285950Y-149909521D01*
X85489408Y-150113335D01*
X85542800Y-150135505D01*
X85542800Y-157361536D01*
X84750000Y-157361536D01*
X84608810Y-157388103D01*
X84479135Y-157471546D01*
X84392141Y-157598866D01*
X84361536Y-157750000D01*
X82070395Y-157750000D01*
X82153715Y-157666680D01*
X82024467Y-157373877D01*
X81324194Y-157105612D01*
X80574565Y-157125750D01*
X79975533Y-157373877D01*
X79846285Y-157666680D01*
X77622787Y-157666680D01*
X77611897Y-157608810D01*
X77528454Y-157479135D01*
X77401134Y-157392141D01*
X77250000Y-157361536D01*
X76457200Y-157361536D01*
X76457200Y-149788400D01*
X76422398Y-149613437D01*
X76323633Y-149465625D01*
X76323825Y-149244839D01*
X76213850Y-148978679D01*
X76010392Y-148774865D01*
X75744424Y-148664426D01*
X75456439Y-148664175D01*
X75190279Y-148774150D01*
X74986465Y-148977608D01*
X74876026Y-149243576D01*
X74875775Y-149531561D01*
X74985750Y-149797721D01*
X75189208Y-150001535D01*
X75455176Y-150111974D01*
X75542800Y-150112050D01*
X75542800Y-157361536D01*
X74750000Y-157361536D01*
X74608810Y-157388103D01*
X74479135Y-157471546D01*
X74392141Y-157598866D01*
X74361536Y-157750000D01*
X72070395Y-157750000D01*
X72153715Y-157666680D01*
X72024467Y-157373877D01*
X71324194Y-157105612D01*
X70574565Y-157125750D01*
X69975533Y-157373877D01*
X69846285Y-157666680D01*
X67622787Y-157666680D01*
X67611897Y-157608810D01*
X67528454Y-157479135D01*
X67401134Y-157392141D01*
X67250000Y-157361536D01*
X66457200Y-157361536D01*
X66457200Y-150110600D01*
X66422398Y-149935637D01*
X66323289Y-149787311D01*
X66113233Y-149577255D01*
X66113425Y-149356639D01*
X66003450Y-149090479D01*
X65799992Y-148886665D01*
X65534024Y-148776226D01*
X65246039Y-148775975D01*
X64979879Y-148885950D01*
X64776065Y-149089408D01*
X64665626Y-149355376D01*
X64665375Y-149643361D01*
X64775350Y-149909521D01*
X64978808Y-150113335D01*
X65244776Y-150223774D01*
X65466790Y-150223968D01*
X65542800Y-150299978D01*
X65542800Y-157361536D01*
X64750000Y-157361536D01*
X64608810Y-157388103D01*
X64479135Y-157471546D01*
X64392141Y-157598866D01*
X64361536Y-157750000D01*
X62070395Y-157750000D01*
X62153715Y-157666680D01*
X62024467Y-157373877D01*
X61324194Y-157105612D01*
X60574565Y-157125750D01*
X59975533Y-157373877D01*
X59846285Y-157666680D01*
X57622787Y-157666680D01*
X57611897Y-157608810D01*
X57528454Y-157479135D01*
X57401134Y-157392141D01*
X57250000Y-157361536D01*
X56457200Y-157361536D01*
X56457200Y-150003800D01*
X56422398Y-149828837D01*
X56323289Y-149680511D01*
X56220033Y-149577255D01*
X56220225Y-149356639D01*
X56110250Y-149090479D01*
X55906792Y-148886665D01*
X55640824Y-148776226D01*
X55352839Y-148775975D01*
X55086679Y-148885950D01*
X54882865Y-149089408D01*
X54772426Y-149355376D01*
X54772175Y-149643361D01*
X54882150Y-149909521D01*
X55085608Y-150113335D01*
X55351576Y-150223774D01*
X55542800Y-150223941D01*
X55542800Y-157361536D01*
X54750000Y-157361536D01*
X54608810Y-157388103D01*
X54479135Y-157471546D01*
X54392141Y-157598866D01*
X54361536Y-157750000D01*
X52070395Y-157750000D01*
X52153715Y-157666680D01*
X52024467Y-157373877D01*
X51324194Y-157105612D01*
X50574565Y-157125750D01*
X49975533Y-157373877D01*
X49846285Y-157666680D01*
X47622787Y-157666680D01*
X47611897Y-157608810D01*
X47528454Y-157479135D01*
X47401134Y-157392141D01*
X47250000Y-157361536D01*
X44750000Y-157361536D01*
X44608810Y-157388103D01*
X44479135Y-157471546D01*
X44392141Y-157598866D01*
X44361536Y-157750000D01*
X42070395Y-157750000D01*
X42153715Y-157666680D01*
X42024467Y-157373877D01*
X41324194Y-157105612D01*
X40574565Y-157125750D01*
X39975533Y-157373877D01*
X39846285Y-157666680D01*
X37622787Y-157666680D01*
X37611897Y-157608810D01*
X37528454Y-157479135D01*
X37401134Y-157392141D01*
X37250000Y-157361536D01*
X36879790Y-157361536D01*
X49353913Y-144887413D01*
X49491564Y-144681404D01*
X49539901Y-144438400D01*
X49539900Y-144438395D01*
X49539900Y-136834400D01*
X53564700Y-136834400D01*
X53807704Y-136786064D01*
X54013713Y-136648413D01*
X55072310Y-135589815D01*
X55072313Y-135589813D01*
X55087701Y-135566783D01*
X55408917Y-135781413D01*
X55880000Y-135875117D01*
X56351083Y-135781413D01*
X56672299Y-135566783D01*
X56687687Y-135589813D01*
X61411585Y-140313710D01*
X61411587Y-140313713D01*
X61505861Y-140376705D01*
X61617595Y-140451364D01*
X61860600Y-140499700D01*
X103954474Y-140499700D01*
X120580369Y-157125594D01*
X120574565Y-157125750D01*
X119975533Y-157373877D01*
X119846285Y-157666680D01*
X121000000Y-158820395D01*
X121014143Y-158806253D01*
X121193748Y-158985858D01*
X121179605Y-159000000D01*
X122333320Y-160153715D01*
X122626123Y-160024467D01*
X122862419Y-159407644D01*
X123586600Y-160131825D01*
X123586600Y-160466600D01*
X123634936Y-160709604D01*
X123772587Y-160915613D01*
X124145287Y-161288313D01*
X124351295Y-161425964D01*
X124594300Y-161474300D01*
X164160700Y-161474300D01*
X164403704Y-161425964D01*
X164609713Y-161288313D01*
X165386679Y-160511347D01*
X165674151Y-160630716D01*
X166323003Y-160631282D01*
X166613306Y-160511332D01*
X167207787Y-161105813D01*
X167413796Y-161243464D01*
X167656800Y-161291800D01*
X179343200Y-161291800D01*
X179586204Y-161243464D01*
X179792213Y-161105813D01*
X180386679Y-160511347D01*
X180674151Y-160630716D01*
X181323003Y-160631282D01*
X181613306Y-160511332D01*
X182207787Y-161105813D01*
X182413796Y-161243464D01*
X182656800Y-161291800D01*
X194343200Y-161291800D01*
X194586204Y-161243464D01*
X194792213Y-161105813D01*
X195386679Y-160511347D01*
X195674151Y-160630716D01*
X196323003Y-160631282D01*
X196922680Y-160383501D01*
X197381888Y-159925093D01*
X197567591Y-159477870D01*
X199086583Y-159477870D01*
X199453166Y-160365069D01*
X200131361Y-161044449D01*
X201017919Y-161412580D01*
X201977870Y-161413417D01*
X202865069Y-161046834D01*
X203544449Y-160368639D01*
X203912580Y-159482081D01*
X203913417Y-158522130D01*
X203546834Y-157634931D01*
X202868639Y-156955551D01*
X201982081Y-156587420D01*
X201022130Y-156586583D01*
X200134931Y-156953166D01*
X199455551Y-157631361D01*
X199087420Y-158517919D01*
X199086583Y-159477870D01*
X197567591Y-159477870D01*
X197630716Y-159325849D01*
X197631282Y-158676997D01*
X197383501Y-158077320D01*
X196925093Y-157618112D01*
X196325849Y-157369284D01*
X195676997Y-157368718D01*
X195077320Y-157616499D01*
X194618112Y-158074907D01*
X194369284Y-158674151D01*
X194368718Y-159323003D01*
X194488668Y-159613306D01*
X194080174Y-160021800D01*
X192285012Y-160021800D01*
X192381888Y-159925093D01*
X192630716Y-159325849D01*
X192631282Y-158676997D01*
X192383501Y-158077320D01*
X191925093Y-157618112D01*
X191325849Y-157369284D01*
X190676997Y-157368718D01*
X190077320Y-157616499D01*
X189618112Y-158074907D01*
X189369284Y-158674151D01*
X189368718Y-159323003D01*
X189616499Y-159922680D01*
X189715446Y-160021800D01*
X187638464Y-160021800D01*
X187638464Y-157750000D01*
X187611897Y-157608810D01*
X187528454Y-157479135D01*
X187401134Y-157392141D01*
X187250000Y-157361536D01*
X184750000Y-157361536D01*
X184608810Y-157388103D01*
X184479135Y-157471546D01*
X184392141Y-157598866D01*
X184361536Y-157750000D01*
X184361536Y-160021800D01*
X182919826Y-160021800D01*
X182511347Y-159613321D01*
X182630716Y-159325849D01*
X182631282Y-158676997D01*
X182383501Y-158077320D01*
X181925093Y-157618112D01*
X181325849Y-157369284D01*
X180676997Y-157368718D01*
X180077320Y-157616499D01*
X179618112Y-158074907D01*
X179369284Y-158674151D01*
X179368718Y-159323003D01*
X179488668Y-159613306D01*
X179080174Y-160021800D01*
X177285012Y-160021800D01*
X177381888Y-159925093D01*
X177630716Y-159325849D01*
X177631282Y-158676997D01*
X177383501Y-158077320D01*
X176925093Y-157618112D01*
X176325849Y-157369284D01*
X175676997Y-157368718D01*
X175077320Y-157616499D01*
X174618112Y-158074907D01*
X174369284Y-158674151D01*
X174368718Y-159323003D01*
X174616499Y-159922680D01*
X174715446Y-160021800D01*
X172638464Y-160021800D01*
X172638464Y-157750000D01*
X172611897Y-157608810D01*
X172528454Y-157479135D01*
X172401134Y-157392141D01*
X172250000Y-157361536D01*
X169750000Y-157361536D01*
X169608810Y-157388103D01*
X169479135Y-157471546D01*
X169392141Y-157598866D01*
X169361536Y-157750000D01*
X169361536Y-160021800D01*
X167919826Y-160021800D01*
X167511347Y-159613321D01*
X167630716Y-159325849D01*
X167631282Y-158676997D01*
X167383501Y-158077320D01*
X166925093Y-157618112D01*
X166325849Y-157369284D01*
X165676997Y-157368718D01*
X165077320Y-157616499D01*
X164618112Y-158074907D01*
X164369284Y-158674151D01*
X164368718Y-159323003D01*
X164488668Y-159613306D01*
X163897674Y-160204300D01*
X162102194Y-160204300D01*
X162381888Y-159925093D01*
X162630716Y-159325849D01*
X162631282Y-158676997D01*
X162383501Y-158077320D01*
X161925093Y-157618112D01*
X161325849Y-157369284D01*
X160676997Y-157368718D01*
X160077320Y-157616499D01*
X159618112Y-158074907D01*
X159369284Y-158674151D01*
X159368718Y-159323003D01*
X159616499Y-159922680D01*
X159897628Y-160204300D01*
X157638464Y-160204300D01*
X157638464Y-157750000D01*
X157611897Y-157608810D01*
X157528454Y-157479135D01*
X157401134Y-157392141D01*
X157250000Y-157361536D01*
X154750000Y-157361536D01*
X154608810Y-157388103D01*
X154479135Y-157471546D01*
X154392141Y-157598866D01*
X154361536Y-157750000D01*
X154361536Y-160204300D01*
X152102194Y-160204300D01*
X152381888Y-159925093D01*
X152630716Y-159325849D01*
X152631282Y-158676997D01*
X152383501Y-158077320D01*
X151925093Y-157618112D01*
X151325849Y-157369284D01*
X150676997Y-157368718D01*
X150077320Y-157616499D01*
X149618112Y-158074907D01*
X149369284Y-158674151D01*
X149368718Y-159323003D01*
X149616499Y-159922680D01*
X149897628Y-160204300D01*
X147102194Y-160204300D01*
X147381888Y-159925093D01*
X147630716Y-159325849D01*
X147631282Y-158676997D01*
X147383501Y-158077320D01*
X146925093Y-157618112D01*
X146325849Y-157369284D01*
X145676997Y-157368718D01*
X145077320Y-157616499D01*
X144618112Y-158074907D01*
X144369284Y-158674151D01*
X144368718Y-159323003D01*
X144616499Y-159922680D01*
X144897628Y-160204300D01*
X142638464Y-160204300D01*
X142638464Y-159063023D01*
X142651000Y-159000000D01*
X142651000Y-156909566D01*
X150787433Y-148773133D01*
X151145325Y-148237510D01*
X151271000Y-147605700D01*
X151271000Y-146240000D01*
X151145325Y-145608190D01*
X150787433Y-145072567D01*
X150251810Y-144714675D01*
X149620000Y-144589000D01*
X148988190Y-144714675D01*
X148452567Y-145072567D01*
X148094675Y-145608190D01*
X147969000Y-146240000D01*
X147969000Y-146921834D01*
X139832567Y-155058267D01*
X139474675Y-155593889D01*
X139474675Y-155593890D01*
X139349000Y-156225700D01*
X139349000Y-159000000D01*
X139361536Y-159063023D01*
X139361536Y-160204300D01*
X137102194Y-160204300D01*
X137381888Y-159925093D01*
X137630716Y-159325849D01*
X137631282Y-158676997D01*
X137383501Y-158077320D01*
X136925093Y-157618112D01*
X136325849Y-157369284D01*
X135676997Y-157368718D01*
X135077320Y-157616499D01*
X134618112Y-158074907D01*
X134369284Y-158674151D01*
X134368718Y-159323003D01*
X134616499Y-159922680D01*
X134897628Y-160204300D01*
X132112258Y-160204300D01*
X132167433Y-160167433D01*
X138584934Y-153749933D01*
X138942825Y-153214310D01*
X139068500Y-152582500D01*
X139068500Y-149053493D01*
X140618761Y-149053493D01*
X140828563Y-149561251D01*
X141216705Y-149950072D01*
X141724097Y-150160759D01*
X142273493Y-150161239D01*
X142781251Y-149951437D01*
X143170072Y-149563295D01*
X143380759Y-149055903D01*
X143381239Y-148506507D01*
X143171437Y-147998749D01*
X142783295Y-147609928D01*
X142275903Y-147399241D01*
X141726507Y-147398761D01*
X141218749Y-147608563D01*
X140829928Y-147996705D01*
X140619241Y-148504097D01*
X140618761Y-149053493D01*
X139068500Y-149053493D01*
X139068500Y-145035100D01*
X138942825Y-144403290D01*
X138584933Y-143867667D01*
X136150759Y-141433493D01*
X140618761Y-141433493D01*
X140828563Y-141941251D01*
X141216705Y-142330072D01*
X141724097Y-142540759D01*
X142273493Y-142541239D01*
X142781251Y-142331437D01*
X143170072Y-141943295D01*
X143380759Y-141435903D01*
X143381239Y-140886507D01*
X143171437Y-140378749D01*
X142783295Y-139989928D01*
X142275903Y-139779241D01*
X141726507Y-139778761D01*
X141218749Y-139988563D01*
X140829928Y-140376705D01*
X140619241Y-140884097D01*
X140618761Y-141433493D01*
X136150759Y-141433493D01*
X134709833Y-139992567D01*
X134174211Y-139634675D01*
X133542400Y-139509000D01*
X127000000Y-139509000D01*
X126742225Y-139560275D01*
X134229283Y-132073217D01*
X134392045Y-132140802D01*
X134845963Y-132141198D01*
X135265480Y-131967857D01*
X135586729Y-131647169D01*
X135760802Y-131227955D01*
X135760803Y-131225963D01*
X140858802Y-131225963D01*
X141032143Y-131645480D01*
X141352831Y-131966729D01*
X141772045Y-132140802D01*
X142225963Y-132141198D01*
X142645480Y-131967857D01*
X142966729Y-131647169D01*
X143140802Y-131227955D01*
X143141198Y-130774037D01*
X142967857Y-130354520D01*
X142647169Y-130033271D01*
X142227955Y-129859198D01*
X141774037Y-129858802D01*
X141354520Y-130032143D01*
X141033271Y-130352831D01*
X140859198Y-130772045D01*
X140858802Y-131225963D01*
X135760803Y-131225963D01*
X135761198Y-130774037D01*
X135693150Y-130609350D01*
X137581400Y-128721100D01*
X146658600Y-128721100D01*
X148546783Y-130609283D01*
X148479198Y-130772045D01*
X148478802Y-131225963D01*
X148652143Y-131645480D01*
X148972831Y-131966729D01*
X149392045Y-132140802D01*
X149845963Y-132141198D01*
X150265480Y-131967857D01*
X150586729Y-131647169D01*
X150655064Y-131482600D01*
X154203900Y-131482600D01*
X154388583Y-131445864D01*
X154545150Y-131341250D01*
X162793847Y-123092552D01*
X162793850Y-123092550D01*
X162873173Y-122973834D01*
X163181784Y-123282983D01*
X163634065Y-123470786D01*
X164123787Y-123471213D01*
X164521500Y-123306882D01*
X164521500Y-131250822D01*
X163593255Y-132179067D01*
X163372639Y-132178875D01*
X163106479Y-132288850D01*
X162902665Y-132492308D01*
X162792226Y-132758276D01*
X162791975Y-133046261D01*
X162901950Y-133312421D01*
X163105408Y-133516235D01*
X163371376Y-133626674D01*
X163659361Y-133626925D01*
X163925521Y-133516950D01*
X164129335Y-133313492D01*
X164239774Y-133047524D01*
X164239968Y-132825510D01*
X165301989Y-131763489D01*
X165401098Y-131615163D01*
X165435900Y-131440200D01*
X165435900Y-122996600D01*
X165721784Y-123282983D01*
X166174065Y-123470786D01*
X166663787Y-123471213D01*
X167116395Y-123284200D01*
X167462983Y-122938216D01*
X167650786Y-122485935D01*
X167651213Y-121996213D01*
X167464200Y-121543605D01*
X167118216Y-121197017D01*
X166665935Y-121009214D01*
X166176213Y-121008787D01*
X165723605Y-121195800D01*
X165435900Y-121483004D01*
X165435900Y-120456600D01*
X165721784Y-120742983D01*
X166174065Y-120930786D01*
X166663787Y-120931213D01*
X167116395Y-120744200D01*
X167451651Y-120409529D01*
X168250752Y-121208631D01*
X167917017Y-121541784D01*
X167729214Y-121994065D01*
X167728787Y-122483787D01*
X167915800Y-122936395D01*
X168261784Y-123282983D01*
X168714065Y-123470786D01*
X169203787Y-123471213D01*
X169656395Y-123284200D01*
X170002983Y-122938216D01*
X170190786Y-122485935D01*
X170191213Y-121996213D01*
X170004200Y-121543605D01*
X169809136Y-121348200D01*
X169961622Y-121348200D01*
X170368465Y-121755043D01*
X170269214Y-121994065D01*
X170268787Y-122483787D01*
X170455800Y-122936395D01*
X170801784Y-123282983D01*
X171254065Y-123470786D01*
X171743787Y-123471213D01*
X172196395Y-123284200D01*
X172542983Y-122938216D01*
X172730786Y-122485935D01*
X172731213Y-121996213D01*
X172544200Y-121543605D01*
X172237331Y-121236200D01*
X172389622Y-121236200D01*
X172908465Y-121755043D01*
X172809214Y-121994065D01*
X172808787Y-122483787D01*
X172995800Y-122936395D01*
X173341784Y-123282983D01*
X173794065Y-123470786D01*
X174283787Y-123471213D01*
X174718900Y-123291429D01*
X174718900Y-130410021D01*
X173188455Y-131940467D01*
X172967839Y-131940275D01*
X172701679Y-132050250D01*
X172497865Y-132253708D01*
X172387426Y-132519676D01*
X172387175Y-132807661D01*
X172497150Y-133073821D01*
X172696551Y-133273571D01*
X169625322Y-136344800D01*
X140531500Y-136344800D01*
X140356537Y-136379602D01*
X140208211Y-136478711D01*
X138857955Y-137828967D01*
X138637339Y-137828775D01*
X138371179Y-137938750D01*
X138167365Y-138142208D01*
X138056926Y-138408176D01*
X138056675Y-138696161D01*
X138166650Y-138962321D01*
X138370108Y-139166135D01*
X138636076Y-139276574D01*
X138924061Y-139276825D01*
X139190221Y-139166850D01*
X139394035Y-138963392D01*
X139504474Y-138697424D01*
X139504668Y-138475410D01*
X140529033Y-137451045D01*
X140528975Y-137517161D01*
X140638950Y-137783321D01*
X140842408Y-137987135D01*
X141108376Y-138097574D01*
X141396361Y-138097825D01*
X141662521Y-137987850D01*
X141819645Y-137831000D01*
X146039374Y-137831000D01*
X145867165Y-138002908D01*
X145756726Y-138268876D01*
X145756475Y-138556861D01*
X145866450Y-138823021D01*
X146069908Y-139026835D01*
X146335876Y-139137274D01*
X146623861Y-139137525D01*
X146890021Y-139027550D01*
X147047145Y-138870700D01*
X169169100Y-138870700D01*
X169344063Y-138835898D01*
X169492389Y-138736789D01*
X176095705Y-132133473D01*
X176307876Y-132221574D01*
X176595861Y-132221825D01*
X176862021Y-132111850D01*
X177065835Y-131908392D01*
X177176274Y-131642424D01*
X177176468Y-131420410D01*
X181983289Y-126613589D01*
X182082398Y-126465263D01*
X182117200Y-126290300D01*
X182117200Y-123383033D01*
X182356395Y-123284200D01*
X182588100Y-123052899D01*
X182588100Y-128708246D01*
X182431965Y-128864108D01*
X182321526Y-129130076D01*
X182321275Y-129418061D01*
X182431250Y-129684221D01*
X182627254Y-129880568D01*
X181146815Y-131361007D01*
X181136192Y-131350365D01*
X180870224Y-131239926D01*
X180582239Y-131239675D01*
X180316079Y-131349650D01*
X180112265Y-131553108D01*
X180001826Y-131819076D01*
X180001575Y-132107061D01*
X180111550Y-132373221D01*
X180315008Y-132577035D01*
X180580976Y-132687474D01*
X180868961Y-132687725D01*
X181135121Y-132577750D01*
X181317514Y-132395675D01*
X181365663Y-132386098D01*
X181513989Y-132286989D01*
X185793289Y-128007689D01*
X185892398Y-127859363D01*
X185927200Y-127684400D01*
X185927200Y-123168199D01*
X186041784Y-123282983D01*
X186494065Y-123470786D01*
X186983787Y-123471213D01*
X187436395Y-123284200D01*
X187782983Y-122938216D01*
X187970786Y-122485935D01*
X187971213Y-121996213D01*
X187784200Y-121543605D01*
X187438216Y-121197017D01*
X186985935Y-121009214D01*
X186496213Y-121008787D01*
X186043605Y-121195800D01*
X185927200Y-121312002D01*
X185927200Y-121159378D01*
X186255043Y-120831535D01*
X186494065Y-120930786D01*
X186983787Y-120931213D01*
X187436395Y-120744200D01*
X187782983Y-120398216D01*
X187970786Y-119945935D01*
X187971213Y-119456213D01*
X187784200Y-119003605D01*
X187438216Y-118657017D01*
X186985935Y-118469214D01*
X186496213Y-118468787D01*
X186043605Y-118655800D01*
X185697017Y-119001784D01*
X185509214Y-119454065D01*
X185508787Y-119943787D01*
X185608444Y-120184978D01*
X185146711Y-120646711D01*
X185047602Y-120795037D01*
X185012800Y-120970000D01*
X185012800Y-121311801D01*
X184898216Y-121197017D01*
X184445935Y-121009214D01*
X183956213Y-121008787D01*
X183503605Y-121195800D01*
X183502500Y-121196903D01*
X183502500Y-120743280D01*
X183954065Y-120930786D01*
X184443787Y-120931213D01*
X184896395Y-120744200D01*
X185242983Y-120398216D01*
X185430786Y-119945935D01*
X185431213Y-119456213D01*
X185244200Y-119003605D01*
X184898216Y-118657017D01*
X184445935Y-118469214D01*
X183956213Y-118468787D01*
X183503605Y-118655800D01*
X183502500Y-118656903D01*
X183502500Y-101767061D01*
X183667775Y-101767061D01*
X183777750Y-102033221D01*
X183981208Y-102237035D01*
X184247176Y-102347474D01*
X184535161Y-102347725D01*
X184801321Y-102237750D01*
X184933001Y-102106300D01*
X187036300Y-102106300D01*
X187220983Y-102069564D01*
X187377550Y-101964950D01*
X194364630Y-94977870D01*
X199086583Y-94977870D01*
X199453166Y-95865069D01*
X200131361Y-96544449D01*
X201017919Y-96912580D01*
X201977870Y-96913417D01*
X202865069Y-96546834D01*
X203544449Y-95868639D01*
X203912580Y-94982081D01*
X203913417Y-94022130D01*
X203546834Y-93134931D01*
X202868639Y-92455551D01*
X201982081Y-92087420D01*
X201022130Y-92086583D01*
X200134931Y-92453166D01*
X199455551Y-93131361D01*
X199087420Y-94017919D01*
X199086583Y-94977870D01*
X194364630Y-94977870D01*
X196440425Y-92902075D01*
X196654065Y-92990786D01*
X197143787Y-92991213D01*
X197596395Y-92804200D01*
X197942983Y-92458216D01*
X198130786Y-92005935D01*
X198131213Y-91516213D01*
X197944200Y-91063605D01*
X197598216Y-90717017D01*
X197382600Y-90627486D01*
X197382600Y-90352538D01*
X197596395Y-90264200D01*
X197942983Y-89918216D01*
X198130786Y-89465935D01*
X198131213Y-88976213D01*
X197944200Y-88523605D01*
X197598216Y-88177017D01*
X197145935Y-87989214D01*
X196656213Y-87988787D01*
X196203605Y-88175800D01*
X195857017Y-88521784D01*
X195773819Y-88722148D01*
X195655259Y-88435920D01*
X195403958Y-88355647D01*
X194539605Y-89220000D01*
X195403958Y-90084353D01*
X195655259Y-90004080D01*
X195765950Y-89698940D01*
X195855800Y-89916395D01*
X196201784Y-90262983D01*
X196417400Y-90352514D01*
X196417400Y-90627462D01*
X196203605Y-90715800D01*
X195857017Y-91061784D01*
X195773819Y-91262148D01*
X195655259Y-90975920D01*
X195403958Y-90895647D01*
X194539605Y-91760000D01*
X194553748Y-91774143D01*
X194374143Y-91953748D01*
X194360000Y-91939605D01*
X193495647Y-92803958D01*
X193575920Y-93055259D01*
X194131279Y-93256718D01*
X194721458Y-93230315D01*
X194765377Y-93212123D01*
X186836400Y-101141100D01*
X184932899Y-101141100D01*
X184802392Y-101010365D01*
X184536424Y-100899926D01*
X184248439Y-100899675D01*
X183982279Y-101009650D01*
X183778465Y-101213108D01*
X183668026Y-101479076D01*
X183667775Y-101767061D01*
X183502500Y-101767061D01*
X183502500Y-97222878D01*
X186309589Y-94415789D01*
X186408698Y-94267463D01*
X186443500Y-94092500D01*
X186443500Y-92003787D01*
X188048787Y-92003787D01*
X188235800Y-92456395D01*
X188581784Y-92802983D01*
X189034065Y-92990786D01*
X189523787Y-92991213D01*
X189976395Y-92804200D01*
X190322983Y-92458216D01*
X190510786Y-92005935D01*
X190510787Y-92003787D01*
X190588787Y-92003787D01*
X190775800Y-92456395D01*
X191121784Y-92802983D01*
X191574065Y-92990786D01*
X192063787Y-92991213D01*
X192516395Y-92804200D01*
X192862983Y-92458216D01*
X192946181Y-92257852D01*
X193064741Y-92544080D01*
X193316042Y-92624353D01*
X194180395Y-91760000D01*
X193316042Y-90895647D01*
X193064741Y-90975920D01*
X192954050Y-91281060D01*
X192864200Y-91063605D01*
X192518216Y-90717017D01*
X192065935Y-90529214D01*
X191576213Y-90528787D01*
X191123605Y-90715800D01*
X190777017Y-91061784D01*
X190589214Y-91514065D01*
X190588787Y-92003787D01*
X190510787Y-92003787D01*
X190511213Y-91516213D01*
X190324200Y-91063605D01*
X189978216Y-90717017D01*
X189525935Y-90529214D01*
X189036213Y-90528787D01*
X188583605Y-90715800D01*
X188237017Y-91061784D01*
X188049214Y-91514065D01*
X188048787Y-92003787D01*
X186443500Y-92003787D01*
X186443500Y-89463787D01*
X188048787Y-89463787D01*
X188235800Y-89916395D01*
X188581784Y-90262983D01*
X189034065Y-90450786D01*
X189523787Y-90451213D01*
X189976395Y-90264200D01*
X190322983Y-89918216D01*
X190510786Y-89465935D01*
X190510787Y-89463787D01*
X190588787Y-89463787D01*
X190775800Y-89916395D01*
X191121784Y-90262983D01*
X191574065Y-90450786D01*
X192063787Y-90451213D01*
X192516395Y-90264200D01*
X192516637Y-90263958D01*
X193495647Y-90263958D01*
X193567852Y-90490000D01*
X193495647Y-90716042D01*
X194360000Y-91580395D01*
X195224353Y-90716042D01*
X195152148Y-90490000D01*
X195224353Y-90263958D01*
X194360000Y-89399605D01*
X193495647Y-90263958D01*
X192516637Y-90263958D01*
X192862983Y-89918216D01*
X192946181Y-89717852D01*
X193064741Y-90004080D01*
X193316042Y-90084353D01*
X194180395Y-89220000D01*
X193316042Y-88355647D01*
X193064741Y-88435920D01*
X192954050Y-88741060D01*
X192864200Y-88523605D01*
X192518216Y-88177017D01*
X192515868Y-88176042D01*
X193495647Y-88176042D01*
X194360000Y-89040395D01*
X195224353Y-88176042D01*
X195144080Y-87924741D01*
X194588721Y-87723282D01*
X193998542Y-87749685D01*
X193575920Y-87924741D01*
X193495647Y-88176042D01*
X192515868Y-88176042D01*
X192065935Y-87989214D01*
X191576213Y-87988787D01*
X191123605Y-88175800D01*
X190777017Y-88521784D01*
X190589214Y-88974065D01*
X190588787Y-89463787D01*
X190510787Y-89463787D01*
X190511213Y-88976213D01*
X190324200Y-88523605D01*
X189978216Y-88177017D01*
X189525935Y-87989214D01*
X189036213Y-87988787D01*
X188583605Y-88175800D01*
X188237017Y-88521784D01*
X188049214Y-88974065D01*
X188048787Y-89463787D01*
X186443500Y-89463787D01*
X186443500Y-89429800D01*
X186408698Y-89254837D01*
X186309589Y-89106511D01*
X184669089Y-87466011D01*
X184520763Y-87366902D01*
X184345800Y-87332100D01*
X150070700Y-87332100D01*
X149895737Y-87366902D01*
X149747411Y-87466011D01*
X149124957Y-88088465D01*
X148885935Y-87989214D01*
X148396213Y-87988787D01*
X147943605Y-88175800D01*
X147597017Y-88521784D01*
X147409214Y-88974065D01*
X147408787Y-89463787D01*
X147595800Y-89916395D01*
X147941784Y-90262983D01*
X148182800Y-90363061D01*
X148182800Y-90616967D01*
X147943605Y-90715800D01*
X147597017Y-91061784D01*
X147409214Y-91514065D01*
X147408787Y-92003787D01*
X147595800Y-92456395D01*
X147941784Y-92802983D01*
X148320135Y-92960087D01*
X135286322Y-105993900D01*
X132540000Y-105993900D01*
X132365037Y-106028702D01*
X132296193Y-106074703D01*
X132283250Y-106043379D01*
X132079792Y-105839565D01*
X131813824Y-105729126D01*
X131525839Y-105728875D01*
X131259679Y-105838850D01*
X131157250Y-105941100D01*
X84553400Y-105941100D01*
X84378437Y-105975902D01*
X84230111Y-106075010D01*
X82376855Y-107928267D01*
X82156239Y-107928075D01*
X81890079Y-108038050D01*
X81686265Y-108241508D01*
X81575826Y-108507476D01*
X81575575Y-108795461D01*
X81685550Y-109061621D01*
X81768983Y-109145200D01*
X60581200Y-109145200D01*
X60406740Y-109179902D01*
X60406237Y-109180002D01*
X60257910Y-109279111D01*
X54876555Y-114660467D01*
X54655939Y-114660275D01*
X54496542Y-114726137D01*
X63475879Y-105746800D01*
X122194400Y-105746800D01*
X122369363Y-105711998D01*
X122517689Y-105612889D01*
X129166445Y-98964133D01*
X129387061Y-98964325D01*
X129653221Y-98854350D01*
X129857035Y-98650892D01*
X129967474Y-98384924D01*
X129967725Y-98096939D01*
X129857750Y-97830779D01*
X129654292Y-97626965D01*
X129388324Y-97516526D01*
X129100339Y-97516275D01*
X128834179Y-97626250D01*
X128630365Y-97829708D01*
X128519926Y-98095676D01*
X128519732Y-98317690D01*
X122005022Y-104832400D01*
X91548316Y-104832400D01*
X91555074Y-104816124D01*
X91555325Y-104528139D01*
X91457200Y-104290658D01*
X91457200Y-96138464D01*
X92250000Y-96138464D01*
X92391190Y-96111897D01*
X92520865Y-96028454D01*
X92607859Y-95901134D01*
X92621591Y-95833320D01*
X94846285Y-95833320D01*
X94975533Y-96126123D01*
X95675806Y-96394388D01*
X96425435Y-96374250D01*
X97024467Y-96126123D01*
X97153715Y-95833320D01*
X96000000Y-94679605D01*
X94846285Y-95833320D01*
X92621591Y-95833320D01*
X92638464Y-95750000D01*
X92638464Y-94175806D01*
X94105612Y-94175806D01*
X94125750Y-94925435D01*
X94373877Y-95524467D01*
X94666680Y-95653715D01*
X95820395Y-94500000D01*
X96179605Y-94500000D01*
X97333320Y-95653715D01*
X97626123Y-95524467D01*
X97894388Y-94824194D01*
X97874250Y-94074565D01*
X97626123Y-93475533D01*
X97333320Y-93346285D01*
X96179605Y-94500000D01*
X95820395Y-94500000D01*
X94666680Y-93346285D01*
X94373877Y-93475533D01*
X94105612Y-94175806D01*
X92638464Y-94175806D01*
X92638464Y-93250000D01*
X92622787Y-93166680D01*
X94846285Y-93166680D01*
X96000000Y-94320395D01*
X97070395Y-93250000D01*
X99361536Y-93250000D01*
X99361536Y-95750000D01*
X99388103Y-95891190D01*
X99471546Y-96020865D01*
X99598866Y-96107859D01*
X99750000Y-96138464D01*
X102250000Y-96138464D01*
X102391190Y-96111897D01*
X102520865Y-96028454D01*
X102607859Y-95901134D01*
X102638464Y-95750000D01*
X102638464Y-94925461D01*
X102653863Y-94922398D01*
X102802189Y-94823289D01*
X104147179Y-93478300D01*
X104372817Y-93478300D01*
X104105612Y-94175806D01*
X104125750Y-94925435D01*
X104373877Y-95524467D01*
X104666680Y-95653715D01*
X105820395Y-94500000D01*
X105806253Y-94485858D01*
X105985858Y-94306253D01*
X106000000Y-94320395D01*
X106014143Y-94306253D01*
X106193748Y-94485858D01*
X106179605Y-94500000D01*
X106193748Y-94514143D01*
X106014143Y-94693748D01*
X106000000Y-94679605D01*
X104846285Y-95833320D01*
X104975533Y-96126123D01*
X105675806Y-96394388D01*
X106425435Y-96374250D01*
X107024467Y-96126123D01*
X107072200Y-96017987D01*
X107072200Y-96412922D01*
X101227555Y-102257567D01*
X101006939Y-102257375D01*
X100740779Y-102367350D01*
X100536965Y-102570808D01*
X100426526Y-102836776D01*
X100426275Y-103124761D01*
X100536250Y-103390921D01*
X100739708Y-103594735D01*
X101005676Y-103705174D01*
X101293661Y-103705425D01*
X101559821Y-103595450D01*
X101763635Y-103391992D01*
X101874074Y-103126024D01*
X101874268Y-102904010D01*
X107852689Y-96925589D01*
X107951798Y-96777263D01*
X107986600Y-96602300D01*
X107986600Y-93937700D01*
X107951798Y-93762737D01*
X107852689Y-93614411D01*
X107488278Y-93250000D01*
X109361536Y-93250000D01*
X109361536Y-95750000D01*
X109388103Y-95891190D01*
X109471546Y-96020865D01*
X109598866Y-96107859D01*
X109750000Y-96138464D01*
X110574539Y-96138464D01*
X110577602Y-96153863D01*
X110676711Y-96302189D01*
X110745800Y-96371278D01*
X110745800Y-102892046D01*
X110589665Y-103047908D01*
X110479226Y-103313876D01*
X110478975Y-103601861D01*
X110588950Y-103868021D01*
X110792408Y-104071835D01*
X111058376Y-104182274D01*
X111346361Y-104182525D01*
X111612521Y-104072550D01*
X111816335Y-103869092D01*
X111910066Y-103643361D01*
X118076775Y-103643361D01*
X118186750Y-103909521D01*
X118390208Y-104113335D01*
X118656176Y-104223774D01*
X118944161Y-104224025D01*
X119210321Y-104114050D01*
X119414135Y-103910592D01*
X119524574Y-103644624D01*
X119524768Y-103422611D01*
X121323289Y-101624090D01*
X121422398Y-101475763D01*
X121447433Y-101349900D01*
X121457200Y-101300800D01*
X121457200Y-96138464D01*
X122250000Y-96138464D01*
X122391190Y-96111897D01*
X122520865Y-96028454D01*
X122607859Y-95901134D01*
X122621591Y-95833320D01*
X124846285Y-95833320D01*
X124975533Y-96126123D01*
X125675806Y-96394388D01*
X126425435Y-96374250D01*
X127024467Y-96126123D01*
X127153715Y-95833320D01*
X126000000Y-94679605D01*
X124846285Y-95833320D01*
X122621591Y-95833320D01*
X122638464Y-95750000D01*
X122638464Y-94175806D01*
X124105612Y-94175806D01*
X124125750Y-94925435D01*
X124373877Y-95524467D01*
X124666680Y-95653715D01*
X125820395Y-94500000D01*
X126179605Y-94500000D01*
X127333320Y-95653715D01*
X127626123Y-95524467D01*
X127894388Y-94824194D01*
X127874250Y-94074565D01*
X127626123Y-93475533D01*
X127333320Y-93346285D01*
X126179605Y-94500000D01*
X125820395Y-94500000D01*
X124666680Y-93346285D01*
X124373877Y-93475533D01*
X124105612Y-94175806D01*
X122638464Y-94175806D01*
X122638464Y-93250000D01*
X122622787Y-93166680D01*
X124846285Y-93166680D01*
X126000000Y-94320395D01*
X127070395Y-93250000D01*
X129361536Y-93250000D01*
X129361536Y-95750000D01*
X129388103Y-95891190D01*
X129471546Y-96020865D01*
X129598866Y-96107859D01*
X129750000Y-96138464D01*
X132250000Y-96138464D01*
X132391190Y-96111897D01*
X132520865Y-96028454D01*
X132607859Y-95901134D01*
X132638464Y-95750000D01*
X132638464Y-93250000D01*
X132611897Y-93108810D01*
X132528454Y-92979135D01*
X132401134Y-92892141D01*
X132250000Y-92861536D01*
X129750000Y-92861536D01*
X129608810Y-92888103D01*
X129479135Y-92971546D01*
X129392141Y-93098866D01*
X129361536Y-93250000D01*
X127070395Y-93250000D01*
X127153715Y-93166680D01*
X127024467Y-92873877D01*
X126324194Y-92605612D01*
X125574565Y-92625750D01*
X124975533Y-92873877D01*
X124846285Y-93166680D01*
X122622787Y-93166680D01*
X122611897Y-93108810D01*
X122528454Y-92979135D01*
X122401134Y-92892141D01*
X122250000Y-92861536D01*
X119750000Y-92861536D01*
X119608810Y-92888103D01*
X119479135Y-92971546D01*
X119392141Y-93098866D01*
X119361536Y-93250000D01*
X119361536Y-95750000D01*
X119388103Y-95891190D01*
X119471546Y-96020865D01*
X119598866Y-96107859D01*
X119750000Y-96138464D01*
X120542800Y-96138464D01*
X120542800Y-101111421D01*
X118878055Y-102776167D01*
X118657439Y-102775975D01*
X118391279Y-102885950D01*
X118187465Y-103089408D01*
X118077026Y-103355376D01*
X118076775Y-103643361D01*
X111910066Y-103643361D01*
X111926774Y-103603124D01*
X111927025Y-103315139D01*
X111817050Y-103048979D01*
X111660200Y-102891855D01*
X111660200Y-96181900D01*
X111651560Y-96138464D01*
X112250000Y-96138464D01*
X112391190Y-96111897D01*
X112520865Y-96028454D01*
X112607859Y-95901134D01*
X112621591Y-95833320D01*
X114846285Y-95833320D01*
X114975533Y-96126123D01*
X115675806Y-96394388D01*
X116425435Y-96374250D01*
X117024467Y-96126123D01*
X117153715Y-95833320D01*
X116000000Y-94679605D01*
X114846285Y-95833320D01*
X112621591Y-95833320D01*
X112638464Y-95750000D01*
X112638464Y-94175806D01*
X114105612Y-94175806D01*
X114125750Y-94925435D01*
X114373877Y-95524467D01*
X114666680Y-95653715D01*
X115820395Y-94500000D01*
X116179605Y-94500000D01*
X117333320Y-95653715D01*
X117626123Y-95524467D01*
X117894388Y-94824194D01*
X117874250Y-94074565D01*
X117626123Y-93475533D01*
X117333320Y-93346285D01*
X116179605Y-94500000D01*
X115820395Y-94500000D01*
X114666680Y-93346285D01*
X114373877Y-93475533D01*
X114105612Y-94175806D01*
X112638464Y-94175806D01*
X112638464Y-93250000D01*
X112622787Y-93166680D01*
X114846285Y-93166680D01*
X116000000Y-94320395D01*
X117153715Y-93166680D01*
X117024467Y-92873877D01*
X116324194Y-92605612D01*
X115574565Y-92625750D01*
X114975533Y-92873877D01*
X114846285Y-93166680D01*
X112622787Y-93166680D01*
X112611897Y-93108810D01*
X112528454Y-92979135D01*
X112401134Y-92892141D01*
X112250000Y-92861536D01*
X109750000Y-92861536D01*
X109608810Y-92888103D01*
X109479135Y-92971546D01*
X109392141Y-93098866D01*
X109361536Y-93250000D01*
X107488278Y-93250000D01*
X106936089Y-92697811D01*
X106787763Y-92598702D01*
X106612800Y-92563900D01*
X103957800Y-92563900D01*
X103782837Y-92598702D01*
X103634510Y-92697811D01*
X102638464Y-93693858D01*
X102638464Y-93250000D01*
X102611897Y-93108810D01*
X102528454Y-92979135D01*
X102401134Y-92892141D01*
X102250000Y-92861536D01*
X99750000Y-92861536D01*
X99608810Y-92888103D01*
X99479135Y-92971546D01*
X99392141Y-93098866D01*
X99361536Y-93250000D01*
X97070395Y-93250000D01*
X97153715Y-93166680D01*
X97024467Y-92873877D01*
X96324194Y-92605612D01*
X95574565Y-92625750D01*
X94975533Y-92873877D01*
X94846285Y-93166680D01*
X92622787Y-93166680D01*
X92611897Y-93108810D01*
X92528454Y-92979135D01*
X92401134Y-92892141D01*
X92250000Y-92861536D01*
X89750000Y-92861536D01*
X89608810Y-92888103D01*
X89479135Y-92971546D01*
X89392141Y-93098866D01*
X89361536Y-93250000D01*
X89361536Y-95750000D01*
X89388103Y-95891190D01*
X89471546Y-96020865D01*
X89598866Y-96107859D01*
X89750000Y-96138464D01*
X90542800Y-96138464D01*
X90542800Y-104007445D01*
X90421779Y-104057450D01*
X90217965Y-104260908D01*
X90107526Y-104526876D01*
X90107275Y-104814861D01*
X90114522Y-104832400D01*
X63286500Y-104832400D01*
X63111537Y-104867202D01*
X62963210Y-104966311D01*
X51928511Y-116001011D01*
X51829402Y-116149337D01*
X51824192Y-116175529D01*
X51670448Y-115945435D01*
X51271083Y-115678587D01*
X50800000Y-115584883D01*
X50328917Y-115678587D01*
X49929552Y-115945435D01*
X49662704Y-116344800D01*
X49569000Y-116815883D01*
X49569000Y-116864117D01*
X49662704Y-117335200D01*
X49929552Y-117734565D01*
X50328917Y-118001413D01*
X50800000Y-118095117D01*
X51271083Y-118001413D01*
X51628689Y-117762467D01*
X52414511Y-118548289D01*
X52562837Y-118647398D01*
X52737800Y-118682200D01*
X58564900Y-118682200D01*
X58739863Y-118647398D01*
X58888189Y-118548289D01*
X59934285Y-117502193D01*
X60089552Y-117734565D01*
X60488917Y-118001413D01*
X60960000Y-118095117D01*
X61431083Y-118001413D01*
X61830448Y-117734565D01*
X61963800Y-117534990D01*
X61963800Y-126878700D01*
X61998602Y-127053663D01*
X62097711Y-127201989D01*
X62671267Y-127775546D01*
X62671075Y-127996161D01*
X62781050Y-128262321D01*
X62972358Y-128453964D01*
X58323159Y-133103163D01*
X58245037Y-133118702D01*
X58096711Y-133217811D01*
X57997602Y-133366137D01*
X57980461Y-133452313D01*
X57948917Y-133458587D01*
X57549552Y-133725435D01*
X57348028Y-134027035D01*
X57136700Y-133985000D01*
X56923884Y-133985000D01*
X56750448Y-133725435D01*
X56351083Y-133458587D01*
X55880000Y-133364883D01*
X55408917Y-133458587D01*
X55009552Y-133725435D01*
X54836116Y-133985000D01*
X54650879Y-133985000D01*
X54535183Y-133738642D01*
X54106924Y-133348355D01*
X53696890Y-133178524D01*
X53467000Y-133299845D01*
X53467000Y-134493000D01*
X53487000Y-134493000D01*
X53487000Y-134747000D01*
X53467000Y-134747000D01*
X53467000Y-134767000D01*
X53213000Y-134767000D01*
X53213000Y-134747000D01*
X50927000Y-134747000D01*
X50927000Y-134767000D01*
X50673000Y-134767000D01*
X50673000Y-134747000D01*
X49479181Y-134747000D01*
X49358514Y-134976892D01*
X49604817Y-135501358D01*
X49673993Y-135564400D01*
X49167926Y-135564400D01*
X47866634Y-134263108D01*
X49358514Y-134263108D01*
X49479181Y-134493000D01*
X50673000Y-134493000D01*
X50673000Y-133299845D01*
X50927000Y-133299845D01*
X50927000Y-134493000D01*
X53213000Y-134493000D01*
X53213000Y-133299845D01*
X52983110Y-133178524D01*
X52573076Y-133348355D01*
X52144817Y-133738642D01*
X52070000Y-133897954D01*
X51995183Y-133738642D01*
X51566924Y-133348355D01*
X51156890Y-133178524D01*
X50927000Y-133299845D01*
X50673000Y-133299845D01*
X50443110Y-133178524D01*
X50033076Y-133348355D01*
X49604817Y-133738642D01*
X49358514Y-134263108D01*
X47866634Y-134263108D01*
X24538328Y-110934802D01*
X24853454Y-110919778D01*
X25254005Y-110753864D01*
X25328139Y-110507745D01*
X24500000Y-109679605D01*
X24485858Y-109693748D01*
X24306252Y-109514142D01*
X24320395Y-109500000D01*
X24679605Y-109500000D01*
X25507745Y-110328139D01*
X25753864Y-110254005D01*
X25811536Y-110093555D01*
X25811536Y-110300000D01*
X25838103Y-110441190D01*
X25921546Y-110570865D01*
X26048866Y-110657859D01*
X26200000Y-110688464D01*
X27800000Y-110688464D01*
X27941190Y-110661897D01*
X28070865Y-110578454D01*
X28157859Y-110451134D01*
X28188464Y-110300000D01*
X28188464Y-108700000D01*
X28161897Y-108558810D01*
X28078454Y-108429135D01*
X27951134Y-108342141D01*
X27800000Y-108311536D01*
X26200000Y-108311536D01*
X26058810Y-108338103D01*
X25929135Y-108421546D01*
X25842141Y-108548866D01*
X25811536Y-108700000D01*
X25811536Y-108885227D01*
X25753864Y-108745995D01*
X25507745Y-108671861D01*
X24679605Y-109500000D01*
X24320395Y-109500000D01*
X23492255Y-108671861D01*
X23246136Y-108745995D01*
X23053035Y-109283223D01*
X23061360Y-109457834D01*
X22095781Y-108492255D01*
X23671861Y-108492255D01*
X24500000Y-109320395D01*
X25328139Y-108492255D01*
X25254005Y-108246136D01*
X24716777Y-108053035D01*
X24146546Y-108080222D01*
X23745995Y-108246136D01*
X23671861Y-108492255D01*
X22095781Y-108492255D01*
X21635000Y-108031474D01*
X21635000Y-107331036D01*
X32252193Y-107331036D01*
X32282518Y-107821413D01*
X32411836Y-108133617D01*
X32593608Y-108173541D01*
X32542141Y-108248866D01*
X32534679Y-108285713D01*
X32521570Y-108298822D01*
X32530264Y-108307516D01*
X32511536Y-108400000D01*
X32511536Y-109600000D01*
X32538103Y-109741190D01*
X32621546Y-109870865D01*
X32748866Y-109957859D01*
X32900000Y-109988464D01*
X34100000Y-109988464D01*
X34241190Y-109961897D01*
X34370865Y-109878454D01*
X34457859Y-109751134D01*
X34488464Y-109600000D01*
X34488464Y-108400000D01*
X34470852Y-108306400D01*
X34478430Y-108298822D01*
X34467339Y-108287731D01*
X34461897Y-108258810D01*
X34406950Y-108173419D01*
X34588164Y-108133617D01*
X34747807Y-107668964D01*
X34717482Y-107178587D01*
X34588164Y-106866383D01*
X34362735Y-106816870D01*
X33679605Y-107500000D01*
X33693748Y-107514143D01*
X33514143Y-107693748D01*
X33500000Y-107679605D01*
X33485858Y-107693748D01*
X33306253Y-107514143D01*
X33320395Y-107500000D01*
X32637265Y-106816870D01*
X32411836Y-106866383D01*
X32252193Y-107331036D01*
X21635000Y-107331036D01*
X21635000Y-106637265D01*
X32816870Y-106637265D01*
X33500000Y-107320395D01*
X34183130Y-106637265D01*
X34133617Y-106411836D01*
X33668964Y-106252193D01*
X33178587Y-106282518D01*
X32866383Y-106411836D01*
X32816870Y-106637265D01*
X21635000Y-106637265D01*
X21635000Y-96138464D01*
X22250000Y-96138464D01*
X22391190Y-96111897D01*
X22520865Y-96028454D01*
X22607859Y-95901134D01*
X22638464Y-95750000D01*
X22638464Y-94977870D01*
X32086583Y-94977870D01*
X32453166Y-95865069D01*
X33131361Y-96544449D01*
X34017919Y-96912580D01*
X34977870Y-96913417D01*
X35865069Y-96546834D01*
X36544449Y-95868639D01*
X36559114Y-95833320D01*
X44846285Y-95833320D01*
X44975533Y-96126123D01*
X45675806Y-96394388D01*
X46425435Y-96374250D01*
X47024467Y-96126123D01*
X47153715Y-95833320D01*
X46000000Y-94679605D01*
X44846285Y-95833320D01*
X36559114Y-95833320D01*
X36912580Y-94982081D01*
X36913283Y-94175806D01*
X44105612Y-94175806D01*
X44125750Y-94925435D01*
X44373877Y-95524467D01*
X44666680Y-95653715D01*
X45820395Y-94500000D01*
X46179605Y-94500000D01*
X47333320Y-95653715D01*
X47626123Y-95524467D01*
X47894388Y-94824194D01*
X47874250Y-94074565D01*
X47626123Y-93475533D01*
X47333320Y-93346285D01*
X46179605Y-94500000D01*
X45820395Y-94500000D01*
X44666680Y-93346285D01*
X44373877Y-93475533D01*
X44105612Y-94175806D01*
X36913283Y-94175806D01*
X36913417Y-94022130D01*
X36559953Y-93166680D01*
X44846285Y-93166680D01*
X46000000Y-94320395D01*
X47070395Y-93250000D01*
X49361536Y-93250000D01*
X49361536Y-95750000D01*
X49388103Y-95891190D01*
X49471546Y-96020865D01*
X49598866Y-96107859D01*
X49750000Y-96138464D01*
X50542800Y-96138464D01*
X50542800Y-102564983D01*
X50536965Y-102570808D01*
X50426526Y-102836776D01*
X50426275Y-103124761D01*
X50536250Y-103390921D01*
X50739708Y-103594735D01*
X51005676Y-103705174D01*
X51293661Y-103705425D01*
X51559821Y-103595450D01*
X51763635Y-103391992D01*
X51874074Y-103126024D01*
X51874325Y-102838039D01*
X51764350Y-102571879D01*
X51560892Y-102368065D01*
X51457200Y-102325009D01*
X51457200Y-96138464D01*
X52250000Y-96138464D01*
X52391190Y-96111897D01*
X52520865Y-96028454D01*
X52607859Y-95901134D01*
X52621591Y-95833320D01*
X54846285Y-95833320D01*
X54975533Y-96126123D01*
X55675806Y-96394388D01*
X56425435Y-96374250D01*
X57024467Y-96126123D01*
X57153715Y-95833320D01*
X56000000Y-94679605D01*
X54846285Y-95833320D01*
X52621591Y-95833320D01*
X52638464Y-95750000D01*
X52638464Y-94175806D01*
X54105612Y-94175806D01*
X54125750Y-94925435D01*
X54373877Y-95524467D01*
X54666680Y-95653715D01*
X55820395Y-94500000D01*
X56179605Y-94500000D01*
X57333320Y-95653715D01*
X57626123Y-95524467D01*
X57894388Y-94824194D01*
X57874250Y-94074565D01*
X57626123Y-93475533D01*
X57333320Y-93346285D01*
X56179605Y-94500000D01*
X55820395Y-94500000D01*
X54666680Y-93346285D01*
X54373877Y-93475533D01*
X54105612Y-94175806D01*
X52638464Y-94175806D01*
X52638464Y-93250000D01*
X52622787Y-93166680D01*
X54846285Y-93166680D01*
X56000000Y-94320395D01*
X57070395Y-93250000D01*
X59361536Y-93250000D01*
X59361536Y-95750000D01*
X59388103Y-95891190D01*
X59471546Y-96020865D01*
X59598866Y-96107859D01*
X59750000Y-96138464D01*
X60542800Y-96138464D01*
X60542800Y-103182524D01*
X60471026Y-103355376D01*
X60470775Y-103643361D01*
X60580750Y-103909521D01*
X60784208Y-104113335D01*
X61050176Y-104223774D01*
X61338161Y-104224025D01*
X61604321Y-104114050D01*
X61808135Y-103910592D01*
X61918574Y-103644624D01*
X61918825Y-103356639D01*
X61808850Y-103090479D01*
X61605392Y-102886665D01*
X61457200Y-102825131D01*
X61457200Y-96138464D01*
X62250000Y-96138464D01*
X62391190Y-96111897D01*
X62520865Y-96028454D01*
X62607859Y-95901134D01*
X62638464Y-95750000D01*
X62638464Y-93725300D01*
X63742900Y-93725300D01*
X63742900Y-96723900D01*
X63777702Y-96898863D01*
X63876811Y-97047189D01*
X70652911Y-103823290D01*
X70801237Y-103922398D01*
X70976200Y-103957200D01*
X78233246Y-103957200D01*
X78389108Y-104113335D01*
X78655076Y-104223774D01*
X78943061Y-104224025D01*
X79209221Y-104114050D01*
X79413035Y-103910592D01*
X79523474Y-103644624D01*
X79523725Y-103356639D01*
X79413750Y-103090479D01*
X79210292Y-102886665D01*
X78944324Y-102776226D01*
X78656339Y-102775975D01*
X78390179Y-102885950D01*
X78233055Y-103042800D01*
X71923576Y-103042800D01*
X71923825Y-102757239D01*
X71813850Y-102491079D01*
X71610392Y-102287265D01*
X71344424Y-102176826D01*
X71122411Y-102176632D01*
X65131743Y-96185965D01*
X65675806Y-96394388D01*
X66425435Y-96374250D01*
X67024467Y-96126123D01*
X67153715Y-95833320D01*
X66000000Y-94679605D01*
X65985858Y-94693748D01*
X65806253Y-94514143D01*
X65820395Y-94500000D01*
X65806253Y-94485858D01*
X65985858Y-94306253D01*
X66000000Y-94320395D01*
X66014143Y-94306253D01*
X66193748Y-94485858D01*
X66179605Y-94500000D01*
X67333320Y-95653715D01*
X67626123Y-95524467D01*
X67894388Y-94824194D01*
X67874250Y-94074565D01*
X67627269Y-93478300D01*
X67852822Y-93478300D01*
X69197810Y-94823289D01*
X69244072Y-94854200D01*
X69346137Y-94922398D01*
X69361536Y-94925461D01*
X69361536Y-95750000D01*
X69388103Y-95891190D01*
X69471546Y-96020865D01*
X69598866Y-96107859D01*
X69750000Y-96138464D01*
X72250000Y-96138464D01*
X72391190Y-96111897D01*
X72520865Y-96028454D01*
X72607859Y-95901134D01*
X72621591Y-95833320D01*
X74846285Y-95833320D01*
X74975533Y-96126123D01*
X75675806Y-96394388D01*
X76425435Y-96374250D01*
X77024467Y-96126123D01*
X77153715Y-95833320D01*
X76000000Y-94679605D01*
X74846285Y-95833320D01*
X72621591Y-95833320D01*
X72638464Y-95750000D01*
X72638464Y-93250000D01*
X72619704Y-93150300D01*
X74635200Y-93150300D01*
X74552946Y-93232554D01*
X74666678Y-93346286D01*
X74373877Y-93475533D01*
X74105612Y-94175806D01*
X74125750Y-94925435D01*
X74373877Y-95524467D01*
X74666680Y-95653715D01*
X75820395Y-94500000D01*
X75806253Y-94485858D01*
X75985858Y-94306253D01*
X76000000Y-94320395D01*
X76014143Y-94306253D01*
X76193748Y-94485858D01*
X76179605Y-94500000D01*
X77333320Y-95653715D01*
X77626123Y-95524467D01*
X77894388Y-94824194D01*
X77874250Y-94074565D01*
X77626123Y-93475533D01*
X77333322Y-93346286D01*
X77447054Y-93232554D01*
X77364800Y-93150300D01*
X77524822Y-93150300D01*
X79197810Y-94823289D01*
X79244072Y-94854200D01*
X79346137Y-94922398D01*
X79361536Y-94925461D01*
X79361536Y-95750000D01*
X79388103Y-95891190D01*
X79471546Y-96020865D01*
X79598866Y-96107859D01*
X79750000Y-96138464D01*
X82250000Y-96138464D01*
X82391190Y-96111897D01*
X82520865Y-96028454D01*
X82607859Y-95901134D01*
X82621591Y-95833320D01*
X84846285Y-95833320D01*
X84975533Y-96126123D01*
X85675806Y-96394388D01*
X86425435Y-96374250D01*
X87024467Y-96126123D01*
X87153715Y-95833320D01*
X86000000Y-94679605D01*
X84846285Y-95833320D01*
X82621591Y-95833320D01*
X82638464Y-95750000D01*
X82638464Y-94175806D01*
X84105612Y-94175806D01*
X84125750Y-94925435D01*
X84373877Y-95524467D01*
X84666680Y-95653715D01*
X85820395Y-94500000D01*
X86179605Y-94500000D01*
X87333320Y-95653715D01*
X87626123Y-95524467D01*
X87894388Y-94824194D01*
X87874250Y-94074565D01*
X87626123Y-93475533D01*
X87333320Y-93346285D01*
X86179605Y-94500000D01*
X85820395Y-94500000D01*
X84666680Y-93346285D01*
X84373877Y-93475533D01*
X84105612Y-94175806D01*
X82638464Y-94175806D01*
X82638464Y-93250000D01*
X82622787Y-93166680D01*
X84846285Y-93166680D01*
X86000000Y-94320395D01*
X87153715Y-93166680D01*
X87024467Y-92873877D01*
X86324194Y-92605612D01*
X85574565Y-92625750D01*
X84975533Y-92873877D01*
X84846285Y-93166680D01*
X82622787Y-93166680D01*
X82611897Y-93108810D01*
X82528454Y-92979135D01*
X82401134Y-92892141D01*
X82250000Y-92861536D01*
X79750000Y-92861536D01*
X79608810Y-92888103D01*
X79479135Y-92971546D01*
X79392141Y-93098866D01*
X79361536Y-93250000D01*
X79361536Y-93693857D01*
X78037489Y-92369811D01*
X77889163Y-92270702D01*
X77714200Y-92235900D01*
X65232300Y-92235900D01*
X65057337Y-92270702D01*
X64909011Y-92369811D01*
X63876811Y-93402011D01*
X63777702Y-93550337D01*
X63742900Y-93725300D01*
X62638464Y-93725300D01*
X62638464Y-93250000D01*
X62611897Y-93108810D01*
X62528454Y-92979135D01*
X62401134Y-92892141D01*
X62250000Y-92861536D01*
X59750000Y-92861536D01*
X59608810Y-92888103D01*
X59479135Y-92971546D01*
X59392141Y-93098866D01*
X59361536Y-93250000D01*
X57070395Y-93250000D01*
X57153715Y-93166680D01*
X57024467Y-92873877D01*
X56324194Y-92605612D01*
X55574565Y-92625750D01*
X54975533Y-92873877D01*
X54846285Y-93166680D01*
X52622787Y-93166680D01*
X52611897Y-93108810D01*
X52528454Y-92979135D01*
X52401134Y-92892141D01*
X52250000Y-92861536D01*
X49750000Y-92861536D01*
X49608810Y-92888103D01*
X49479135Y-92971546D01*
X49392141Y-93098866D01*
X49361536Y-93250000D01*
X47070395Y-93250000D01*
X47153715Y-93166680D01*
X47024467Y-92873877D01*
X46324194Y-92605612D01*
X45574565Y-92625750D01*
X44975533Y-92873877D01*
X44846285Y-93166680D01*
X36559953Y-93166680D01*
X36546834Y-93134931D01*
X35868639Y-92455551D01*
X34982081Y-92087420D01*
X34022130Y-92086583D01*
X33134931Y-92453166D01*
X32455551Y-93131361D01*
X32087420Y-94017919D01*
X32086583Y-94977870D01*
X22638464Y-94977870D01*
X22638464Y-93250000D01*
X22611897Y-93108810D01*
X22528454Y-92979135D01*
X22401134Y-92892141D01*
X22250000Y-92861536D01*
X19750000Y-92861536D01*
X19608810Y-92888103D01*
X19479135Y-92971546D01*
X19392141Y-93098866D01*
X19361536Y-93250000D01*
X17070395Y-93250000D01*
X17153715Y-93166680D01*
X17024467Y-92873877D01*
X16324194Y-92605612D01*
X15574565Y-92625750D01*
X14975533Y-92873877D01*
X14846285Y-93166680D01*
X12456000Y-93166680D01*
X12456000Y-92003787D01*
X144868787Y-92003787D01*
X145055800Y-92456395D01*
X145401784Y-92802983D01*
X145854065Y-92990786D01*
X146343787Y-92991213D01*
X146796395Y-92804200D01*
X147142983Y-92458216D01*
X147330786Y-92005935D01*
X147331213Y-91516213D01*
X147144200Y-91063605D01*
X146798216Y-90717017D01*
X146345935Y-90529214D01*
X145856213Y-90528787D01*
X145403605Y-90715800D01*
X145057017Y-91061784D01*
X144869214Y-91514065D01*
X144868787Y-92003787D01*
X12456000Y-92003787D01*
X12456000Y-89463787D01*
X144868787Y-89463787D01*
X145055800Y-89916395D01*
X145401784Y-90262983D01*
X145854065Y-90450786D01*
X146343787Y-90451213D01*
X146796395Y-90264200D01*
X147142983Y-89918216D01*
X147330786Y-89465935D01*
X147331213Y-88976213D01*
X147144200Y-88523605D01*
X146798216Y-88177017D01*
X146345935Y-87989214D01*
X145856213Y-87988787D01*
X145403605Y-88175800D01*
X145057017Y-88521784D01*
X144869214Y-88974065D01*
X144868787Y-89463787D01*
X12456000Y-89463787D01*
X12456000Y-86956000D01*
X205544000Y-86956000D01*
X205544000Y-167044000D01*
G36*
X128565000Y-115214250D02*
X128723750Y-115373000D01*
X129873000Y-115373000D01*
X129873000Y-115353000D01*
X130127000Y-115353000D01*
X130127000Y-115373000D01*
X132413000Y-115373000D01*
X132413000Y-115353000D01*
X132667000Y-115353000D01*
X132667000Y-115373000D01*
X134953000Y-115373000D01*
X134953000Y-115353000D01*
X135207000Y-115353000D01*
X135207000Y-115373000D01*
X137493000Y-115373000D01*
X137493000Y-115353000D01*
X137747000Y-115353000D01*
X137747000Y-115373000D01*
X139055000Y-115373000D01*
X139055000Y-114973000D01*
X138897166Y-114433517D01*
X138887421Y-114421400D01*
X140231622Y-114421400D01*
X139026022Y-115627000D01*
X137747000Y-115627000D01*
X137747000Y-115647000D01*
X137493000Y-115647000D01*
X137493000Y-115627000D01*
X135207000Y-115627000D01*
X135207000Y-115647000D01*
X134953000Y-115647000D01*
X134953000Y-115627000D01*
X132667000Y-115627000D01*
X132667000Y-115647000D01*
X132413000Y-115647000D01*
X132413000Y-115627000D01*
X130127000Y-115627000D01*
X130127000Y-115647000D01*
X129873000Y-115647000D01*
X129873000Y-115627000D01*
X128723750Y-115627000D01*
X128565000Y-115785750D01*
X128565000Y-116471800D01*
X120578378Y-116471800D01*
X118920289Y-114813711D01*
X118771963Y-114714602D01*
X118597000Y-114679800D01*
X89719578Y-114679800D01*
X89977978Y-114421400D01*
X128565000Y-114421400D01*
X128565000Y-115214250D01*
X128565000Y-115214250D01*
G37*
X128565000Y-115214250D02*
X128723750Y-115373000D01*
X129873000Y-115373000D01*
X129873000Y-115353000D01*
X130127000Y-115353000D01*
X130127000Y-115373000D01*
X132413000Y-115373000D01*
X132413000Y-115353000D01*
X132667000Y-115353000D01*
X132667000Y-115373000D01*
X134953000Y-115373000D01*
X134953000Y-115353000D01*
X135207000Y-115353000D01*
X135207000Y-115373000D01*
X137493000Y-115373000D01*
X137493000Y-115353000D01*
X137747000Y-115353000D01*
X137747000Y-115373000D01*
X139055000Y-115373000D01*
X139055000Y-114973000D01*
X138897166Y-114433517D01*
X138887421Y-114421400D01*
X140231622Y-114421400D01*
X139026022Y-115627000D01*
X137747000Y-115627000D01*
X137747000Y-115647000D01*
X137493000Y-115647000D01*
X137493000Y-115627000D01*
X135207000Y-115627000D01*
X135207000Y-115647000D01*
X134953000Y-115647000D01*
X134953000Y-115627000D01*
X132667000Y-115627000D01*
X132667000Y-115647000D01*
X132413000Y-115647000D01*
X132413000Y-115627000D01*
X130127000Y-115627000D01*
X130127000Y-115647000D01*
X129873000Y-115647000D01*
X129873000Y-115627000D01*
X128723750Y-115627000D01*
X128565000Y-115785750D01*
X128565000Y-116471800D01*
X120578378Y-116471800D01*
X118920289Y-114813711D01*
X118771963Y-114714602D01*
X118597000Y-114679800D01*
X89719578Y-114679800D01*
X89977978Y-114421400D01*
X128565000Y-114421400D01*
X128565000Y-115214250D01*
M02*
