G04 #@! TF.FileFunction,Soldermask,Bot*
%FSLAX46Y46*%
G04 Gerber Fmt 4.6, Leading zero omitted, Abs format (unit mm)*
G04 Created by KiCad (PCBNEW 4.0.7) date Thu Oct 12 07:51:30 2017*
%MOMM*%
%LPD*%
G01*
G04 APERTURE LIST*
%ADD10C,0.100000*%
%ADD11R,2.000000X2.000000*%
%ADD12C,2.000000*%
%ADD13R,1.600000X1.600000*%
%ADD14C,1.600000*%
%ADD15R,2.100000X2.100000*%
%ADD16O,2.100000X2.100000*%
%ADD17R,2.900000X2.900000*%
%ADD18C,2.900000*%
%ADD19C,1.920000*%
%ADD20C,2.400000*%
%ADD21R,2.000000X2.800000*%
%ADD22O,2.000000X2.800000*%
%ADD23C,2.100000*%
%ADD24C,1.900000*%
%ADD25C,4.464000*%
G04 APERTURE END LIST*
D10*
D11*
X18000000Y-109500000D03*
D12*
X15500000Y-109500000D03*
D11*
X27000000Y-109500000D03*
D12*
X24500000Y-109500000D03*
D13*
X33500000Y-109000000D03*
D14*
X33500000Y-107500000D03*
D15*
X99060000Y-116840000D03*
D16*
X96520000Y-116840000D03*
X93980000Y-116840000D03*
X91440000Y-116840000D03*
X88900000Y-116840000D03*
X86360000Y-116840000D03*
X83820000Y-116840000D03*
X81280000Y-116840000D03*
X78740000Y-116840000D03*
X76200000Y-116840000D03*
X73660000Y-116840000D03*
X71120000Y-116840000D03*
X68580000Y-116840000D03*
X66040000Y-116840000D03*
X63500000Y-116840000D03*
X60960000Y-116840000D03*
X58420000Y-116840000D03*
X55880000Y-116840000D03*
X53340000Y-116840000D03*
X50800000Y-116840000D03*
D15*
X99060000Y-134620000D03*
D16*
X96520000Y-134620000D03*
X93980000Y-134620000D03*
X91440000Y-134620000D03*
X88900000Y-134620000D03*
X86360000Y-134620000D03*
X83820000Y-134620000D03*
X81280000Y-134620000D03*
X78740000Y-134620000D03*
X76200000Y-134620000D03*
X73660000Y-134620000D03*
X71120000Y-134620000D03*
X68580000Y-134620000D03*
X66040000Y-134620000D03*
X63500000Y-134620000D03*
X60960000Y-134620000D03*
X58420000Y-134620000D03*
X55880000Y-134620000D03*
X53340000Y-134620000D03*
X50800000Y-134620000D03*
D17*
X16000000Y-159000000D03*
D18*
X21000000Y-159000000D03*
D17*
X36000000Y-159000000D03*
D18*
X41000000Y-159000000D03*
D17*
X21000000Y-94500000D03*
D18*
X16000000Y-94500000D03*
D17*
X131000000Y-94500000D03*
D18*
X126000000Y-94500000D03*
D17*
X46000000Y-159000000D03*
D18*
X51000000Y-159000000D03*
D17*
X86000000Y-159000000D03*
D18*
X91000000Y-159000000D03*
D17*
X121000000Y-94500000D03*
D18*
X116000000Y-94500000D03*
D17*
X81000000Y-94500000D03*
D18*
X76000000Y-94500000D03*
D17*
X56000000Y-159000000D03*
D18*
X61000000Y-159000000D03*
D17*
X96000000Y-159000000D03*
D18*
X101000000Y-159000000D03*
D17*
X111000000Y-94500000D03*
D18*
X106000000Y-94500000D03*
D17*
X71000000Y-94500000D03*
D18*
X66000000Y-94500000D03*
D17*
X66000000Y-159000000D03*
D18*
X71000000Y-159000000D03*
D17*
X106000000Y-159000000D03*
D18*
X111000000Y-159000000D03*
D17*
X101000000Y-94500000D03*
D18*
X96000000Y-94500000D03*
D17*
X61000000Y-94500000D03*
D18*
X56000000Y-94500000D03*
D17*
X76000000Y-159000000D03*
D18*
X81000000Y-159000000D03*
D17*
X116000000Y-159000000D03*
D18*
X121000000Y-159000000D03*
D17*
X91000000Y-94500000D03*
D18*
X86000000Y-94500000D03*
D17*
X51000000Y-94500000D03*
D18*
X46000000Y-94500000D03*
D17*
X26000000Y-159000000D03*
D18*
X31000000Y-159000000D03*
X166000000Y-159000000D03*
D17*
X156000000Y-159000000D03*
D18*
X161000000Y-159000000D03*
X181000000Y-159000000D03*
D17*
X171000000Y-159000000D03*
D18*
X176000000Y-159000000D03*
X196000000Y-159000000D03*
D17*
X186000000Y-159000000D03*
D18*
X191000000Y-159000000D03*
X136000000Y-159000000D03*
D17*
X126000000Y-159000000D03*
D18*
X131000000Y-159000000D03*
X151000000Y-159000000D03*
D17*
X141000000Y-159000000D03*
D18*
X146000000Y-159000000D03*
D19*
X127000000Y-131000000D03*
D20*
X127000000Y-141160000D03*
X127000000Y-148780000D03*
X134620000Y-146240000D03*
D19*
X134620000Y-131000000D03*
X142000000Y-131000000D03*
D20*
X142000000Y-141160000D03*
X142000000Y-148780000D03*
X149620000Y-146240000D03*
D19*
X149620000Y-131000000D03*
D21*
X130000000Y-115500000D03*
D22*
X137620000Y-107880000D03*
X132540000Y-115500000D03*
X135080000Y-107880000D03*
X135080000Y-115500000D03*
X132540000Y-107880000D03*
X137620000Y-115500000D03*
X130000000Y-107880000D03*
D23*
X184200000Y-91760000D03*
X184200000Y-89220000D03*
X181660000Y-91760000D03*
X181660000Y-89220000D03*
X179120000Y-91760000D03*
X179120000Y-89220000D03*
X176580000Y-91760000D03*
X176580000Y-89220000D03*
X174040000Y-91760000D03*
X174040000Y-89220000D03*
X171500000Y-91760000D03*
X171500000Y-89220000D03*
X168960000Y-91760000D03*
X168960000Y-89220000D03*
X166420000Y-91760000D03*
X166420000Y-89220000D03*
X163880000Y-91760000D03*
X163880000Y-89220000D03*
X161340000Y-91760000D03*
X161340000Y-89220000D03*
X158800000Y-91760000D03*
X158800000Y-89220000D03*
X156260000Y-91760000D03*
X156260000Y-89220000D03*
X153720000Y-91760000D03*
X153720000Y-89220000D03*
X151180000Y-91760000D03*
X151180000Y-89220000D03*
X148640000Y-91760000D03*
X148640000Y-89220000D03*
X146100000Y-91760000D03*
X146100000Y-89220000D03*
X189280000Y-91760000D03*
X189280000Y-89220000D03*
X191820000Y-89220000D03*
X191820000Y-91760000D03*
X194360000Y-91760000D03*
X194360000Y-89220000D03*
X196900000Y-89220000D03*
X196900000Y-91760000D03*
X146100000Y-109540000D03*
X148640000Y-109540000D03*
X148640000Y-112080000D03*
X146100000Y-112080000D03*
X146100000Y-114620000D03*
X148640000Y-114620000D03*
X148640000Y-117160000D03*
X146100000Y-117160000D03*
X146100000Y-119700000D03*
X148640000Y-119700000D03*
X151180000Y-119700000D03*
X153720000Y-119700000D03*
X156260000Y-119700000D03*
X158800000Y-119700000D03*
X161340000Y-119700000D03*
X163880000Y-119700000D03*
X166420000Y-119700000D03*
X168960000Y-119700000D03*
X171500000Y-119700000D03*
X174040000Y-119700000D03*
X176580000Y-119700000D03*
X179120000Y-119700000D03*
X181660000Y-119700000D03*
X184200000Y-119700000D03*
X186740000Y-119700000D03*
X186740000Y-122240000D03*
X184200000Y-122240000D03*
X181660000Y-122240000D03*
X179120000Y-122240000D03*
X176580000Y-122240000D03*
X174040000Y-122240000D03*
X171500000Y-122240000D03*
X168960000Y-122240000D03*
X166420000Y-122240000D03*
X163880000Y-122240000D03*
X161340000Y-122240000D03*
X158800000Y-122240000D03*
X156260000Y-122240000D03*
X153720000Y-122240000D03*
X151180000Y-122240000D03*
X148640000Y-122240000D03*
X146100000Y-122240000D03*
D24*
X40000000Y-131000000D03*
X40000000Y-135880000D03*
D25*
X18500000Y-147500000D03*
X201500000Y-159000000D03*
X34500000Y-94500000D03*
X108000000Y-127500000D03*
X201500000Y-94500000D03*
M02*
