M48
;DRILL file {KiCad 4.0.7} date Thu Oct 12 07:51:24 2017
;FORMAT={3:3/ absolute / metric / suppress leading zeros}
FMAT,2
METRIC,TZ
T1C0.330
T2C0.600
T3C0.760
T4C0.800
T5C1.000
T6C1.300
T7C3.960
%
G90
G05
M71
T1
X14000Y-135498
X28816Y-147424
X31158Y-149747
X51150Y-102981
X54799Y-115384
X55496Y-149500
X61195Y-103500
X63395Y-127853
X64938Y-114145
X65389Y-149500
X71200Y-102901
X75056Y-115153
X75600Y-149388
X78800Y-103500
X82300Y-108652
X84227Y-119232
X85900Y-149500
X90127Y-115713
X90831Y-104672
X91585Y-121395
X95900Y-149500
X101150Y-102981
X105600Y-149388
X108478Y-108904
X111203Y-103459
X116468Y-147420
X118801Y-103500
X121073Y-109358
X123222Y-109118
X129244Y-98240
X131669Y-106453
X136230Y-139257
X136671Y-132074
X138781Y-138553
X141000Y-91750
X141253Y-137374
X143956Y-113953
X146481Y-138414
X146518Y-126255
X149787Y-113833
X151455Y-113196
X154436Y-116287
X156815Y-116000
X163516Y-132903
X165119Y-112578
X166763Y-110248
X167399Y-105036
X167823Y-113541
X167854Y-93138
X167944Y-103818
X168056Y-111163
X168299Y-94969
X168318Y-103006
X170330Y-104125
X173111Y-132664
X176453Y-131498
X180726Y-131964
X183045Y-129275
X184392Y-101624
T2
X33500Y-107500
X33500Y-109000
T3
X127000Y-131000
X134620Y-131000
X142000Y-131000
X149620Y-131000
T4
X15500Y-109500
X18000Y-109500
X24500Y-109500
X27000Y-109500
X40000Y-131000
X40000Y-135880
X130000Y-107880
X130000Y-115500
X132540Y-107880
X132540Y-115500
X135080Y-107880
X135080Y-115500
X137620Y-107880
X137620Y-115500
T5
X50800Y-116840
X50800Y-134620
X53340Y-116840
X53340Y-134620
X55880Y-116840
X55880Y-134620
X58420Y-116840
X58420Y-134620
X60960Y-116840
X60960Y-134620
X63500Y-116840
X63500Y-134620
X66040Y-116840
X66040Y-134620
X68580Y-116840
X68580Y-134620
X71120Y-116840
X71120Y-134620
X73660Y-116840
X73660Y-134620
X76200Y-116840
X76200Y-134620
X78740Y-116840
X78740Y-134620
X81280Y-116840
X81280Y-134620
X83820Y-116840
X83820Y-134620
X86360Y-116840
X86360Y-134620
X88900Y-116840
X88900Y-134620
X91440Y-116840
X91440Y-134620
X93980Y-116840
X93980Y-134620
X96520Y-116840
X96520Y-134620
X99060Y-116840
X99060Y-134620
X127000Y-141160
X127000Y-148780
X134620Y-146240
X142000Y-141160
X142000Y-148780
X146100Y-89220
X146100Y-91760
X146100Y-109540
X146100Y-112080
X146100Y-114620
X146100Y-117160
X146100Y-119700
X146100Y-122240
X148640Y-89220
X148640Y-91760
X148640Y-109540
X148640Y-112080
X148640Y-114620
X148640Y-117160
X148640Y-119700
X148640Y-122240
X149620Y-146240
X151180Y-89220
X151180Y-91760
X151180Y-119700
X151180Y-122240
X153720Y-89220
X153720Y-91760
X153720Y-119700
X153720Y-122240
X156260Y-89220
X156260Y-91760
X156260Y-119700
X156260Y-122240
X158800Y-89220
X158800Y-91760
X158800Y-119700
X158800Y-122240
X161340Y-89220
X161340Y-91760
X161340Y-119700
X161340Y-122240
X163880Y-89220
X163880Y-91760
X163880Y-119700
X163880Y-122240
X166420Y-89220
X166420Y-91760
X166420Y-119700
X166420Y-122240
X168960Y-89220
X168960Y-91760
X168960Y-119700
X168960Y-122240
X171500Y-89220
X171500Y-91760
X171500Y-119700
X171500Y-122240
X174040Y-89220
X174040Y-91760
X174040Y-119700
X174040Y-122240
X176580Y-89220
X176580Y-91760
X176580Y-119700
X176580Y-122240
X179120Y-89220
X179120Y-91760
X179120Y-119700
X179120Y-122240
X181660Y-89220
X181660Y-91760
X181660Y-119700
X181660Y-122240
X184200Y-89220
X184200Y-91760
X184200Y-119700
X184200Y-122240
X186740Y-119700
X186740Y-122240
X189280Y-89220
X189280Y-91760
X191820Y-89220
X191820Y-91760
X194360Y-89220
X194360Y-91760
X196900Y-89220
X196900Y-91760
T6
X16000Y-94500
X16000Y-159000
X21000Y-94500
X21000Y-159000
X26000Y-159000
X31000Y-159000
X36000Y-159000
X41000Y-159000
X46000Y-94500
X46000Y-159000
X51000Y-94500
X51000Y-159000
X56000Y-94500
X56000Y-159000
X61000Y-94500
X61000Y-159000
X66000Y-94500
X66000Y-159000
X71000Y-94500
X71000Y-159000
X76000Y-94500
X76000Y-159000
X81000Y-94500
X81000Y-159000
X86000Y-94500
X86000Y-159000
X91000Y-94500
X91000Y-159000
X96000Y-94500
X96000Y-159000
X101000Y-94500
X101000Y-159000
X106000Y-94500
X106000Y-159000
X111000Y-94500
X111000Y-159000
X116000Y-94500
X116000Y-159000
X121000Y-94500
X121000Y-159000
X126000Y-94500
X126000Y-159000
X131000Y-94500
X131000Y-159000
X136000Y-159000
X141000Y-159000
X146000Y-159000
X151000Y-159000
X156000Y-159000
X161000Y-159000
X166000Y-159000
X171000Y-159000
X176000Y-159000
X181000Y-159000
X186000Y-159000
X191000Y-159000
X196000Y-159000
T7
X18500Y-147500
X34500Y-94500
X108000Y-127500
X201500Y-94500
X201500Y-159000
T0
M30
