G04 #@! TF.FileFunction,Soldermask,Top*
%FSLAX46Y46*%
G04 Gerber Fmt 4.6, Leading zero omitted, Abs format (unit mm)*
G04 Created by KiCad (PCBNEW 4.0.7) date Thu Oct 12 07:51:30 2017*
%MOMM*%
%LPD*%
G01*
G04 APERTURE LIST*
%ADD10C,0.100000*%
%ADD11R,2.000000X2.000000*%
%ADD12C,2.000000*%
%ADD13R,1.600000X1.600000*%
%ADD14C,1.600000*%
%ADD15R,1.898600X1.898600*%
%ADD16R,2.701240X2.398980*%
%ADD17R,1.700480X1.799540*%
%ADD18R,1.799540X1.700480*%
%ADD19R,2.398980X2.701240*%
%ADD20R,3.597860X2.398980*%
%ADD21R,2.430000X2.050000*%
%ADD22R,2.100000X2.100000*%
%ADD23O,2.100000X2.100000*%
%ADD24R,2.900000X2.900000*%
%ADD25C,2.900000*%
%ADD26C,1.920000*%
%ADD27C,2.400000*%
%ADD28R,1.300000X1.200000*%
%ADD29R,1.200000X1.300000*%
%ADD30R,2.000000X2.800000*%
%ADD31O,2.000000X2.800000*%
%ADD32C,2.100000*%
%ADD33R,4.200000X2.400000*%
%ADD34R,1.900000X2.400000*%
%ADD35R,1.000000X1.950000*%
%ADD36R,1.000000X2.400000*%
%ADD37C,1.900000*%
%ADD38R,1.400000X2.000000*%
%ADD39R,2.000000X1.400000*%
%ADD40R,1.100000X1.700000*%
%ADD41R,1.700000X1.100000*%
%ADD42C,4.464000*%
G04 APERTURE END LIST*
D10*
D11*
X18000000Y-109500000D03*
D12*
X15500000Y-109500000D03*
D11*
X27000000Y-109500000D03*
D12*
X24500000Y-109500000D03*
D13*
X33500000Y-109000000D03*
D14*
X33500000Y-107500000D03*
D15*
X203747520Y-100500000D03*
X200252480Y-100500000D03*
D16*
X32500000Y-103509140D03*
X32500000Y-99490860D03*
D17*
X19950340Y-152000000D03*
X17049660Y-152000000D03*
X39950340Y-149500000D03*
X37049660Y-149500000D03*
X127049660Y-103500000D03*
X129950340Y-103500000D03*
D18*
X27000000Y-102950340D03*
X27000000Y-100049660D03*
D19*
X50509140Y-139500000D03*
X46490860Y-139500000D03*
X90509140Y-139500000D03*
X86490860Y-139500000D03*
X116490860Y-112000000D03*
X120509140Y-112000000D03*
X76490860Y-112000000D03*
X80509140Y-112000000D03*
D17*
X49950340Y-149500000D03*
X47049660Y-149500000D03*
X89950340Y-149500000D03*
X87049660Y-149500000D03*
X117049660Y-103500000D03*
X119950340Y-103500000D03*
X77049660Y-103500000D03*
X79950340Y-103500000D03*
D19*
X60509140Y-139500000D03*
X56490860Y-139500000D03*
X100509140Y-139500000D03*
X96490860Y-139500000D03*
X106490860Y-112000000D03*
X110509140Y-112000000D03*
X66490860Y-112000000D03*
X70509140Y-112000000D03*
D17*
X59950340Y-149500000D03*
X57049660Y-149500000D03*
X99950340Y-149500000D03*
X97049660Y-149500000D03*
X107049660Y-103500000D03*
X109950340Y-103500000D03*
X67049660Y-103500000D03*
X69950340Y-103500000D03*
D19*
X70009140Y-139500000D03*
X65990860Y-139500000D03*
X110509140Y-139500000D03*
X106490860Y-139500000D03*
X96490860Y-112000000D03*
X100509140Y-112000000D03*
X55990860Y-112000000D03*
X60009140Y-112000000D03*
D17*
X69450340Y-149500000D03*
X66549660Y-149500000D03*
X109950340Y-149500000D03*
X107049660Y-149500000D03*
X97049660Y-103500000D03*
X99950340Y-103500000D03*
X56549660Y-103500000D03*
X59450340Y-103500000D03*
D19*
X80509140Y-139500000D03*
X76490860Y-139500000D03*
X120509140Y-139500000D03*
X116490860Y-139500000D03*
X85990860Y-112000000D03*
X90009140Y-112000000D03*
X46490860Y-112000000D03*
X50509140Y-112000000D03*
D17*
X79950340Y-149500000D03*
X77049660Y-149500000D03*
X119950340Y-149500000D03*
X117049660Y-149500000D03*
X86549660Y-103500000D03*
X89450340Y-103500000D03*
X47049660Y-103500000D03*
X49950340Y-103500000D03*
D15*
X14000000Y-134252480D03*
X14000000Y-137747520D03*
X14000000Y-131247520D03*
X14000000Y-127752480D03*
X18500000Y-131247520D03*
X18500000Y-127752480D03*
X18500000Y-134252480D03*
X18500000Y-137747520D03*
D19*
X125990860Y-126000000D03*
X130009140Y-126000000D03*
D20*
X157500000Y-143601480D03*
X157500000Y-150398520D03*
X179500000Y-143601480D03*
X179500000Y-150398520D03*
X164500000Y-143601480D03*
X164500000Y-150398520D03*
X187500000Y-143601480D03*
X187500000Y-150398520D03*
D19*
X140990860Y-126000000D03*
X145009140Y-126000000D03*
D20*
X172500000Y-143601480D03*
X172500000Y-150398520D03*
X194500000Y-143601480D03*
X194500000Y-150398520D03*
D21*
X27000000Y-96080000D03*
X27000000Y-92920000D03*
D22*
X99060000Y-116840000D03*
D23*
X96520000Y-116840000D03*
X93980000Y-116840000D03*
X91440000Y-116840000D03*
X88900000Y-116840000D03*
X86360000Y-116840000D03*
X83820000Y-116840000D03*
X81280000Y-116840000D03*
X78740000Y-116840000D03*
X76200000Y-116840000D03*
X73660000Y-116840000D03*
X71120000Y-116840000D03*
X68580000Y-116840000D03*
X66040000Y-116840000D03*
X63500000Y-116840000D03*
X60960000Y-116840000D03*
X58420000Y-116840000D03*
X55880000Y-116840000D03*
X53340000Y-116840000D03*
X50800000Y-116840000D03*
D22*
X99060000Y-134620000D03*
D23*
X96520000Y-134620000D03*
X93980000Y-134620000D03*
X91440000Y-134620000D03*
X88900000Y-134620000D03*
X86360000Y-134620000D03*
X83820000Y-134620000D03*
X81280000Y-134620000D03*
X78740000Y-134620000D03*
X76200000Y-134620000D03*
X73660000Y-134620000D03*
X71120000Y-134620000D03*
X68580000Y-134620000D03*
X66040000Y-134620000D03*
X63500000Y-134620000D03*
X60960000Y-134620000D03*
X58420000Y-134620000D03*
X55880000Y-134620000D03*
X53340000Y-134620000D03*
X50800000Y-134620000D03*
D24*
X16000000Y-159000000D03*
D25*
X21000000Y-159000000D03*
D24*
X36000000Y-159000000D03*
D25*
X41000000Y-159000000D03*
D24*
X21000000Y-94500000D03*
D25*
X16000000Y-94500000D03*
D24*
X131000000Y-94500000D03*
D25*
X126000000Y-94500000D03*
D24*
X46000000Y-159000000D03*
D25*
X51000000Y-159000000D03*
D24*
X86000000Y-159000000D03*
D25*
X91000000Y-159000000D03*
D24*
X121000000Y-94500000D03*
D25*
X116000000Y-94500000D03*
D24*
X81000000Y-94500000D03*
D25*
X76000000Y-94500000D03*
D24*
X56000000Y-159000000D03*
D25*
X61000000Y-159000000D03*
D24*
X96000000Y-159000000D03*
D25*
X101000000Y-159000000D03*
D24*
X111000000Y-94500000D03*
D25*
X106000000Y-94500000D03*
D24*
X71000000Y-94500000D03*
D25*
X66000000Y-94500000D03*
D24*
X66000000Y-159000000D03*
D25*
X71000000Y-159000000D03*
D24*
X106000000Y-159000000D03*
D25*
X111000000Y-159000000D03*
D24*
X101000000Y-94500000D03*
D25*
X96000000Y-94500000D03*
D24*
X61000000Y-94500000D03*
D25*
X56000000Y-94500000D03*
D24*
X76000000Y-159000000D03*
D25*
X81000000Y-159000000D03*
D24*
X116000000Y-159000000D03*
D25*
X121000000Y-159000000D03*
D24*
X91000000Y-94500000D03*
D25*
X86000000Y-94500000D03*
D24*
X51000000Y-94500000D03*
D25*
X46000000Y-94500000D03*
D24*
X26000000Y-159000000D03*
D25*
X31000000Y-159000000D03*
X166000000Y-159000000D03*
D24*
X156000000Y-159000000D03*
D25*
X161000000Y-159000000D03*
X181000000Y-159000000D03*
D24*
X171000000Y-159000000D03*
D25*
X176000000Y-159000000D03*
X196000000Y-159000000D03*
D24*
X186000000Y-159000000D03*
D25*
X191000000Y-159000000D03*
X136000000Y-159000000D03*
D24*
X126000000Y-159000000D03*
D25*
X131000000Y-159000000D03*
X151000000Y-159000000D03*
D24*
X141000000Y-159000000D03*
D25*
X146000000Y-159000000D03*
D26*
X127000000Y-131000000D03*
D27*
X127000000Y-141160000D03*
X127000000Y-148780000D03*
X134620000Y-146240000D03*
D26*
X134620000Y-131000000D03*
X142000000Y-131000000D03*
D27*
X142000000Y-141160000D03*
X142000000Y-148780000D03*
X149620000Y-146240000D03*
D26*
X149620000Y-131000000D03*
D28*
X156500000Y-138050000D03*
X156500000Y-139950000D03*
X158500000Y-139000000D03*
X178500000Y-138050000D03*
X178500000Y-139950000D03*
X180500000Y-139000000D03*
D29*
X135450000Y-125000000D03*
X133550000Y-125000000D03*
X134500000Y-127000000D03*
D28*
X163500000Y-138050000D03*
X163500000Y-139950000D03*
X165500000Y-139000000D03*
X186500000Y-138050000D03*
X186500000Y-139950000D03*
X188500000Y-139000000D03*
D29*
X150450000Y-125500000D03*
X148550000Y-125500000D03*
X149500000Y-127500000D03*
D28*
X171500000Y-138050000D03*
X171500000Y-139950000D03*
X173500000Y-139000000D03*
X193500000Y-138050000D03*
X193500000Y-139950000D03*
X195500000Y-139000000D03*
D30*
X130000000Y-115500000D03*
D31*
X137620000Y-107880000D03*
X132540000Y-115500000D03*
X135080000Y-107880000D03*
X135080000Y-115500000D03*
X132540000Y-107880000D03*
X137620000Y-115500000D03*
X130000000Y-107880000D03*
D32*
X184200000Y-91760000D03*
X184200000Y-89220000D03*
X181660000Y-91760000D03*
X181660000Y-89220000D03*
X179120000Y-91760000D03*
X179120000Y-89220000D03*
X176580000Y-91760000D03*
X176580000Y-89220000D03*
X174040000Y-91760000D03*
X174040000Y-89220000D03*
X171500000Y-91760000D03*
X171500000Y-89220000D03*
X168960000Y-91760000D03*
X168960000Y-89220000D03*
X166420000Y-91760000D03*
X166420000Y-89220000D03*
X163880000Y-91760000D03*
X163880000Y-89220000D03*
X161340000Y-91760000D03*
X161340000Y-89220000D03*
X158800000Y-91760000D03*
X158800000Y-89220000D03*
X156260000Y-91760000D03*
X156260000Y-89220000D03*
X153720000Y-91760000D03*
X153720000Y-89220000D03*
X151180000Y-91760000D03*
X151180000Y-89220000D03*
X148640000Y-91760000D03*
X148640000Y-89220000D03*
X146100000Y-91760000D03*
X146100000Y-89220000D03*
X189280000Y-91760000D03*
X189280000Y-89220000D03*
X191820000Y-89220000D03*
X191820000Y-91760000D03*
X194360000Y-91760000D03*
X194360000Y-89220000D03*
X196900000Y-89220000D03*
X196900000Y-91760000D03*
X146100000Y-109540000D03*
X148640000Y-109540000D03*
X148640000Y-112080000D03*
X146100000Y-112080000D03*
X146100000Y-114620000D03*
X148640000Y-114620000D03*
X148640000Y-117160000D03*
X146100000Y-117160000D03*
X146100000Y-119700000D03*
X148640000Y-119700000D03*
X151180000Y-119700000D03*
X153720000Y-119700000D03*
X156260000Y-119700000D03*
X158800000Y-119700000D03*
X161340000Y-119700000D03*
X163880000Y-119700000D03*
X166420000Y-119700000D03*
X168960000Y-119700000D03*
X171500000Y-119700000D03*
X174040000Y-119700000D03*
X176580000Y-119700000D03*
X179120000Y-119700000D03*
X181660000Y-119700000D03*
X184200000Y-119700000D03*
X186740000Y-119700000D03*
X186740000Y-122240000D03*
X184200000Y-122240000D03*
X181660000Y-122240000D03*
X179120000Y-122240000D03*
X176580000Y-122240000D03*
X174040000Y-122240000D03*
X171500000Y-122240000D03*
X168960000Y-122240000D03*
X166420000Y-122240000D03*
X163880000Y-122240000D03*
X161340000Y-122240000D03*
X158800000Y-122240000D03*
X156260000Y-122240000D03*
X153720000Y-122240000D03*
X151180000Y-122240000D03*
X148640000Y-122240000D03*
X146100000Y-122240000D03*
D33*
X31000000Y-123650000D03*
D34*
X31000000Y-117350000D03*
X28700000Y-117350000D03*
X33300000Y-117350000D03*
D35*
X30405000Y-143300000D03*
X29135000Y-143300000D03*
X27865000Y-143300000D03*
X26595000Y-143300000D03*
X26595000Y-148700000D03*
X27865000Y-148700000D03*
X29135000Y-148700000D03*
X30405000Y-148700000D03*
D36*
X22920000Y-138200000D03*
X24190000Y-138200000D03*
X25460000Y-138200000D03*
X26730000Y-138200000D03*
X28000000Y-138200000D03*
X29270000Y-138200000D03*
X30540000Y-138200000D03*
X31810000Y-138200000D03*
X33080000Y-138200000D03*
X33080000Y-128800000D03*
X31810000Y-128800000D03*
X30540000Y-128800000D03*
X29270000Y-128800000D03*
X28000000Y-128800000D03*
X26730000Y-128800000D03*
X25460000Y-128800000D03*
X24190000Y-128800000D03*
X22920000Y-128800000D03*
D37*
X40000000Y-131000000D03*
X40000000Y-135880000D03*
D38*
X33500000Y-114000000D03*
X30500000Y-114000000D03*
D39*
X23000000Y-120000000D03*
X23000000Y-117000000D03*
X195500000Y-125500000D03*
X195500000Y-128500000D03*
X188500000Y-125500000D03*
X188500000Y-128500000D03*
X178000000Y-125500000D03*
X178000000Y-128500000D03*
X170500000Y-125500000D03*
X170500000Y-128500000D03*
X187500000Y-116000000D03*
X187500000Y-113000000D03*
X180500000Y-116000000D03*
X180500000Y-113000000D03*
X177000000Y-116000000D03*
X177000000Y-113000000D03*
X170000000Y-116000000D03*
X170000000Y-113000000D03*
X192000000Y-125500000D03*
X192000000Y-128500000D03*
X185000000Y-125500000D03*
X185000000Y-128500000D03*
X174000000Y-125500000D03*
X174000000Y-128500000D03*
X167000000Y-125500000D03*
X167000000Y-128500000D03*
X184000000Y-116000000D03*
X184000000Y-113000000D03*
X181500000Y-125500000D03*
X181500000Y-128500000D03*
X173500000Y-116000000D03*
X173500000Y-113000000D03*
X166500000Y-116000000D03*
X166500000Y-113000000D03*
D38*
X38500000Y-125500000D03*
X41500000Y-125500000D03*
X38500000Y-141500000D03*
X41500000Y-141500000D03*
D40*
X201050000Y-105000000D03*
X202950000Y-105000000D03*
X42550000Y-149500000D03*
X44450000Y-149500000D03*
D41*
X46500000Y-145950000D03*
X46500000Y-144050000D03*
X50500000Y-144050000D03*
X50500000Y-145950000D03*
D40*
X82550000Y-149500000D03*
X84450000Y-149500000D03*
D41*
X86500000Y-145950000D03*
X86500000Y-144050000D03*
X90500000Y-144050000D03*
X90500000Y-145950000D03*
D40*
X123950000Y-103500000D03*
X122050000Y-103500000D03*
D41*
X120500000Y-106550000D03*
X120500000Y-108450000D03*
X116500000Y-108450000D03*
X116500000Y-106550000D03*
D40*
X83950000Y-103500000D03*
X82050000Y-103500000D03*
D41*
X80500000Y-106550000D03*
X80500000Y-108450000D03*
X76500000Y-108450000D03*
X76500000Y-106550000D03*
D40*
X52550000Y-149500000D03*
X54450000Y-149500000D03*
D41*
X56500000Y-145950000D03*
X56500000Y-144050000D03*
X60500000Y-144050000D03*
X60500000Y-145950000D03*
D40*
X92550000Y-149500000D03*
X94450000Y-149500000D03*
D41*
X96500000Y-145950000D03*
X96500000Y-144050000D03*
X100500000Y-144050000D03*
X100500000Y-145950000D03*
D40*
X113950000Y-103500000D03*
X112050000Y-103500000D03*
D41*
X110500000Y-106550000D03*
X110500000Y-108450000D03*
X106500000Y-108450000D03*
X106500000Y-106550000D03*
D40*
X73950000Y-103500000D03*
X72050000Y-103500000D03*
D41*
X70500000Y-106550000D03*
X70500000Y-108450000D03*
X66500000Y-108450000D03*
X66500000Y-106550000D03*
D40*
X62550000Y-149500000D03*
X64450000Y-149500000D03*
D41*
X66000000Y-145950000D03*
X66000000Y-144050000D03*
X70000000Y-144050000D03*
X70000000Y-145950000D03*
D40*
X102550000Y-149500000D03*
X104450000Y-149500000D03*
D41*
X106500000Y-145950000D03*
X106500000Y-144050000D03*
X110500000Y-144050000D03*
X110500000Y-145950000D03*
D40*
X103950000Y-103500000D03*
X102050000Y-103500000D03*
D41*
X100500000Y-106550000D03*
X100500000Y-108450000D03*
X96500000Y-108450000D03*
X96500000Y-106550000D03*
D40*
X63950000Y-103500000D03*
X62050000Y-103500000D03*
D41*
X60000000Y-106550000D03*
X60000000Y-108450000D03*
X56000000Y-108450000D03*
X56000000Y-106550000D03*
D40*
X72550000Y-149500000D03*
X74450000Y-149500000D03*
D41*
X76500000Y-145950000D03*
X76500000Y-144050000D03*
X80500000Y-144050000D03*
X80500000Y-145950000D03*
D40*
X112550000Y-149500000D03*
X114450000Y-149500000D03*
D41*
X116500000Y-145950000D03*
X116500000Y-144050000D03*
X120500000Y-144050000D03*
X120500000Y-145950000D03*
D40*
X93450000Y-103500000D03*
X91550000Y-103500000D03*
D41*
X90000000Y-106550000D03*
X90000000Y-108450000D03*
X86000000Y-108450000D03*
X86000000Y-106550000D03*
D40*
X53950000Y-103500000D03*
X52050000Y-103500000D03*
D41*
X50500000Y-106550000D03*
X50500000Y-108450000D03*
X46500000Y-108450000D03*
X46500000Y-106550000D03*
X14000000Y-142950000D03*
X14000000Y-141050000D03*
X14000000Y-122550000D03*
X14000000Y-124450000D03*
X18500000Y-122550000D03*
X18500000Y-124450000D03*
X18500000Y-142950000D03*
X18500000Y-141050000D03*
X35000000Y-146950000D03*
X35000000Y-145050000D03*
X23000000Y-122550000D03*
X23000000Y-124450000D03*
D40*
X156550000Y-134500000D03*
X158450000Y-134500000D03*
X178550000Y-134500000D03*
X180450000Y-134500000D03*
D41*
X163500000Y-127950000D03*
X163500000Y-126050000D03*
D40*
X163550000Y-134500000D03*
X165450000Y-134500000D03*
X186550000Y-134500000D03*
X188450000Y-134500000D03*
D41*
X163000000Y-113550000D03*
X163000000Y-115450000D03*
D40*
X171550000Y-134500000D03*
X173450000Y-134500000D03*
X193550000Y-134500000D03*
X195450000Y-134500000D03*
D42*
X18500000Y-147500000D03*
X201500000Y-159000000D03*
X34500000Y-94500000D03*
X108000000Y-127500000D03*
X201500000Y-94500000D03*
M02*
