G04 #@! TF.FileFunction,Paste,Top*
%FSLAX46Y46*%
G04 Gerber Fmt 4.6, Leading zero omitted, Abs format (unit mm)*
G04 Created by KiCad (PCBNEW 4.0.7) date Thu Oct 12 07:51:30 2017*
%MOMM*%
%LPD*%
G01*
G04 APERTURE LIST*
%ADD10C,0.100000*%
%ADD11R,1.498600X1.498600*%
%ADD12R,2.301240X1.998980*%
%ADD13R,1.300480X1.399540*%
%ADD14R,1.399540X1.300480*%
%ADD15R,1.998980X2.301240*%
%ADD16R,3.197860X1.998980*%
%ADD17R,2.030000X1.650000*%
%ADD18R,0.900000X0.800000*%
%ADD19R,0.800000X0.900000*%
%ADD20R,3.800000X2.000000*%
%ADD21R,1.500000X2.000000*%
%ADD22R,0.600000X1.550000*%
%ADD23R,0.600000X2.000000*%
%ADD24R,1.000000X1.600000*%
%ADD25R,1.600000X1.000000*%
%ADD26R,0.700000X1.300000*%
%ADD27R,1.300000X0.700000*%
G04 APERTURE END LIST*
D10*
D11*
X203747520Y-100500000D03*
X200252480Y-100500000D03*
D12*
X32500000Y-103509140D03*
X32500000Y-99490860D03*
D13*
X19950340Y-152000000D03*
X17049660Y-152000000D03*
X39950340Y-149500000D03*
X37049660Y-149500000D03*
X127049660Y-103500000D03*
X129950340Y-103500000D03*
D14*
X27000000Y-102950340D03*
X27000000Y-100049660D03*
D15*
X50509140Y-139500000D03*
X46490860Y-139500000D03*
X90509140Y-139500000D03*
X86490860Y-139500000D03*
X116490860Y-112000000D03*
X120509140Y-112000000D03*
X76490860Y-112000000D03*
X80509140Y-112000000D03*
D13*
X49950340Y-149500000D03*
X47049660Y-149500000D03*
X89950340Y-149500000D03*
X87049660Y-149500000D03*
X117049660Y-103500000D03*
X119950340Y-103500000D03*
X77049660Y-103500000D03*
X79950340Y-103500000D03*
D15*
X60509140Y-139500000D03*
X56490860Y-139500000D03*
X100509140Y-139500000D03*
X96490860Y-139500000D03*
X106490860Y-112000000D03*
X110509140Y-112000000D03*
X66490860Y-112000000D03*
X70509140Y-112000000D03*
D13*
X59950340Y-149500000D03*
X57049660Y-149500000D03*
X99950340Y-149500000D03*
X97049660Y-149500000D03*
X107049660Y-103500000D03*
X109950340Y-103500000D03*
X67049660Y-103500000D03*
X69950340Y-103500000D03*
D15*
X70009140Y-139500000D03*
X65990860Y-139500000D03*
X110509140Y-139500000D03*
X106490860Y-139500000D03*
X96490860Y-112000000D03*
X100509140Y-112000000D03*
X55990860Y-112000000D03*
X60009140Y-112000000D03*
D13*
X69450340Y-149500000D03*
X66549660Y-149500000D03*
X109950340Y-149500000D03*
X107049660Y-149500000D03*
X97049660Y-103500000D03*
X99950340Y-103500000D03*
X56549660Y-103500000D03*
X59450340Y-103500000D03*
D15*
X80509140Y-139500000D03*
X76490860Y-139500000D03*
X120509140Y-139500000D03*
X116490860Y-139500000D03*
X85990860Y-112000000D03*
X90009140Y-112000000D03*
X46490860Y-112000000D03*
X50509140Y-112000000D03*
D13*
X79950340Y-149500000D03*
X77049660Y-149500000D03*
X119950340Y-149500000D03*
X117049660Y-149500000D03*
X86549660Y-103500000D03*
X89450340Y-103500000D03*
X47049660Y-103500000D03*
X49950340Y-103500000D03*
D11*
X14000000Y-134252480D03*
X14000000Y-137747520D03*
X14000000Y-131247520D03*
X14000000Y-127752480D03*
X18500000Y-131247520D03*
X18500000Y-127752480D03*
X18500000Y-134252480D03*
X18500000Y-137747520D03*
D15*
X125990860Y-126000000D03*
X130009140Y-126000000D03*
D16*
X157500000Y-143601480D03*
X157500000Y-150398520D03*
X179500000Y-143601480D03*
X179500000Y-150398520D03*
X164500000Y-143601480D03*
X164500000Y-150398520D03*
X187500000Y-143601480D03*
X187500000Y-150398520D03*
D15*
X140990860Y-126000000D03*
X145009140Y-126000000D03*
D16*
X172500000Y-143601480D03*
X172500000Y-150398520D03*
X194500000Y-143601480D03*
X194500000Y-150398520D03*
D17*
X27000000Y-96080000D03*
X27000000Y-92920000D03*
D18*
X156500000Y-138050000D03*
X156500000Y-139950000D03*
X158500000Y-139000000D03*
X178500000Y-138050000D03*
X178500000Y-139950000D03*
X180500000Y-139000000D03*
D19*
X135450000Y-125000000D03*
X133550000Y-125000000D03*
X134500000Y-127000000D03*
D18*
X163500000Y-138050000D03*
X163500000Y-139950000D03*
X165500000Y-139000000D03*
X186500000Y-138050000D03*
X186500000Y-139950000D03*
X188500000Y-139000000D03*
D19*
X150450000Y-125500000D03*
X148550000Y-125500000D03*
X149500000Y-127500000D03*
D18*
X171500000Y-138050000D03*
X171500000Y-139950000D03*
X173500000Y-139000000D03*
X193500000Y-138050000D03*
X193500000Y-139950000D03*
X195500000Y-139000000D03*
D20*
X31000000Y-123650000D03*
D21*
X31000000Y-117350000D03*
X28700000Y-117350000D03*
X33300000Y-117350000D03*
D22*
X30405000Y-143300000D03*
X29135000Y-143300000D03*
X27865000Y-143300000D03*
X26595000Y-143300000D03*
X26595000Y-148700000D03*
X27865000Y-148700000D03*
X29135000Y-148700000D03*
X30405000Y-148700000D03*
D23*
X22920000Y-138200000D03*
X24190000Y-138200000D03*
X25460000Y-138200000D03*
X26730000Y-138200000D03*
X28000000Y-138200000D03*
X29270000Y-138200000D03*
X30540000Y-138200000D03*
X31810000Y-138200000D03*
X33080000Y-138200000D03*
X33080000Y-128800000D03*
X31810000Y-128800000D03*
X30540000Y-128800000D03*
X29270000Y-128800000D03*
X28000000Y-128800000D03*
X26730000Y-128800000D03*
X25460000Y-128800000D03*
X24190000Y-128800000D03*
X22920000Y-128800000D03*
D24*
X33500000Y-114000000D03*
X30500000Y-114000000D03*
D25*
X23000000Y-120000000D03*
X23000000Y-117000000D03*
X195500000Y-125500000D03*
X195500000Y-128500000D03*
X188500000Y-125500000D03*
X188500000Y-128500000D03*
X178000000Y-125500000D03*
X178000000Y-128500000D03*
X170500000Y-125500000D03*
X170500000Y-128500000D03*
X187500000Y-116000000D03*
X187500000Y-113000000D03*
X180500000Y-116000000D03*
X180500000Y-113000000D03*
X177000000Y-116000000D03*
X177000000Y-113000000D03*
X170000000Y-116000000D03*
X170000000Y-113000000D03*
X192000000Y-125500000D03*
X192000000Y-128500000D03*
X185000000Y-125500000D03*
X185000000Y-128500000D03*
X174000000Y-125500000D03*
X174000000Y-128500000D03*
X167000000Y-125500000D03*
X167000000Y-128500000D03*
X184000000Y-116000000D03*
X184000000Y-113000000D03*
X181500000Y-125500000D03*
X181500000Y-128500000D03*
X173500000Y-116000000D03*
X173500000Y-113000000D03*
X166500000Y-116000000D03*
X166500000Y-113000000D03*
D24*
X38500000Y-125500000D03*
X41500000Y-125500000D03*
X38500000Y-141500000D03*
X41500000Y-141500000D03*
D26*
X201050000Y-105000000D03*
X202950000Y-105000000D03*
X42550000Y-149500000D03*
X44450000Y-149500000D03*
D27*
X46500000Y-145950000D03*
X46500000Y-144050000D03*
X50500000Y-144050000D03*
X50500000Y-145950000D03*
D26*
X82550000Y-149500000D03*
X84450000Y-149500000D03*
D27*
X86500000Y-145950000D03*
X86500000Y-144050000D03*
X90500000Y-144050000D03*
X90500000Y-145950000D03*
D26*
X123950000Y-103500000D03*
X122050000Y-103500000D03*
D27*
X120500000Y-106550000D03*
X120500000Y-108450000D03*
X116500000Y-108450000D03*
X116500000Y-106550000D03*
D26*
X83950000Y-103500000D03*
X82050000Y-103500000D03*
D27*
X80500000Y-106550000D03*
X80500000Y-108450000D03*
X76500000Y-108450000D03*
X76500000Y-106550000D03*
D26*
X52550000Y-149500000D03*
X54450000Y-149500000D03*
D27*
X56500000Y-145950000D03*
X56500000Y-144050000D03*
X60500000Y-144050000D03*
X60500000Y-145950000D03*
D26*
X92550000Y-149500000D03*
X94450000Y-149500000D03*
D27*
X96500000Y-145950000D03*
X96500000Y-144050000D03*
X100500000Y-144050000D03*
X100500000Y-145950000D03*
D26*
X113950000Y-103500000D03*
X112050000Y-103500000D03*
D27*
X110500000Y-106550000D03*
X110500000Y-108450000D03*
X106500000Y-108450000D03*
X106500000Y-106550000D03*
D26*
X73950000Y-103500000D03*
X72050000Y-103500000D03*
D27*
X70500000Y-106550000D03*
X70500000Y-108450000D03*
X66500000Y-108450000D03*
X66500000Y-106550000D03*
D26*
X62550000Y-149500000D03*
X64450000Y-149500000D03*
D27*
X66000000Y-145950000D03*
X66000000Y-144050000D03*
X70000000Y-144050000D03*
X70000000Y-145950000D03*
D26*
X102550000Y-149500000D03*
X104450000Y-149500000D03*
D27*
X106500000Y-145950000D03*
X106500000Y-144050000D03*
X110500000Y-144050000D03*
X110500000Y-145950000D03*
D26*
X103950000Y-103500000D03*
X102050000Y-103500000D03*
D27*
X100500000Y-106550000D03*
X100500000Y-108450000D03*
X96500000Y-108450000D03*
X96500000Y-106550000D03*
D26*
X63950000Y-103500000D03*
X62050000Y-103500000D03*
D27*
X60000000Y-106550000D03*
X60000000Y-108450000D03*
X56000000Y-108450000D03*
X56000000Y-106550000D03*
D26*
X72550000Y-149500000D03*
X74450000Y-149500000D03*
D27*
X76500000Y-145950000D03*
X76500000Y-144050000D03*
X80500000Y-144050000D03*
X80500000Y-145950000D03*
D26*
X112550000Y-149500000D03*
X114450000Y-149500000D03*
D27*
X116500000Y-145950000D03*
X116500000Y-144050000D03*
X120500000Y-144050000D03*
X120500000Y-145950000D03*
D26*
X93450000Y-103500000D03*
X91550000Y-103500000D03*
D27*
X90000000Y-106550000D03*
X90000000Y-108450000D03*
X86000000Y-108450000D03*
X86000000Y-106550000D03*
D26*
X53950000Y-103500000D03*
X52050000Y-103500000D03*
D27*
X50500000Y-106550000D03*
X50500000Y-108450000D03*
X46500000Y-108450000D03*
X46500000Y-106550000D03*
X14000000Y-142950000D03*
X14000000Y-141050000D03*
X14000000Y-122550000D03*
X14000000Y-124450000D03*
X18500000Y-122550000D03*
X18500000Y-124450000D03*
X18500000Y-142950000D03*
X18500000Y-141050000D03*
X35000000Y-146950000D03*
X35000000Y-145050000D03*
X23000000Y-122550000D03*
X23000000Y-124450000D03*
D26*
X156550000Y-134500000D03*
X158450000Y-134500000D03*
X178550000Y-134500000D03*
X180450000Y-134500000D03*
D27*
X163500000Y-127950000D03*
X163500000Y-126050000D03*
D26*
X163550000Y-134500000D03*
X165450000Y-134500000D03*
X186550000Y-134500000D03*
X188450000Y-134500000D03*
D27*
X163000000Y-113550000D03*
X163000000Y-115450000D03*
D26*
X171550000Y-134500000D03*
X173450000Y-134500000D03*
X193550000Y-134500000D03*
X195450000Y-134500000D03*
M02*
